<svg width="164" height="115" viewBox="0 0 164 115" fill="none" xmlns="http://www.w3.org/2000/svg">
<g clip-path="url(#clip0_204_82)">
<rect width="164" height="114.212" fill="#383434"/>
<path fill-rule="evenodd" clip-rule="evenodd" d="M106.393 112V111.827C106.533 111.839 106.669 111.851 106.803 111.864V108.704C103.206 108.493 100.455 108.072 98.5507 107.44C96.7521 106.808 95.5354 105.544 94.9006 103.648C94.3757 102.08 94.0678 99.8642 93.977 97H78.7557C78.6703 99.9301 78.3611 102.191 77.8279 103.784C77.196 105.671 75.9351 106.932 74.0452 107.567C72.2551 108.129 69.6851 108.508 66.3352 108.704V108.815C66.2 108.824 66.0635 108.832 65.9256 108.84V112C68.1474 111.789 71.0569 111.684 74.6539 111.684C78.2511 111.579 82.1127 111.526 86.2388 111.526C89.9418 111.526 93.5918 111.579 97.1889 111.684C100.892 111.684 103.96 111.789 106.393 112ZM78.7801 68V57.196H27.6132V68H12.8544V16.748C12.8544 12.8507 12.537 10.0067 11.9023 8.216C11.2675 6.32 9.99789 5.056 8.09353 4.424C6.29497 3.68666 3.59712 3.26533 0 3.16V0C2.22175 0.105332 5.1312 0.210666 8.72832 0.315998C12.3254 0.42133 16.1871 0.473995 20.3132 0.473995C24.0161 0.473995 27.6662 0.42133 31.2633 0.315998C34.9662 0.210666 38.0343 0.105332 40.4677 0V3.16C36.8706 3.26533 34.1198 3.68666 32.2154 4.424C30.4168 5.056 29.2002 6.32 28.5654 8.216C27.9306 10.0067 27.6132 12.8507 27.6132 16.748V54.036H78.7801V16.884C78.7801 12.9867 78.4627 10.1427 77.8279 8.352C77.1931 6.456 75.9235 5.192 74.0192 4.56C72.2207 3.82266 69.5228 3.40133 65.9256 3.296V0.136002C66.0597 0.142355 66.1962 0.148709 66.3352 0.155063V0C68.7686 0.105332 71.8367 0.210666 75.5396 0.315998C79.2426 0.42133 82.8926 0.473995 86.4897 0.473995C90.6158 0.473995 94.4775 0.42133 98.0746 0.315998C101.671 0.210666 104.581 0.105332 106.803 0V3.16C106.665 3.16403 106.529 3.16853 106.393 3.17349V3.296C103.232 3.38857 100.724 3.72521 98.8706 4.3059C98.7614 4.34432 98.6548 4.38369 98.5507 4.424C96.7521 5.056 95.5354 6.32 94.9006 8.216C94.2658 10.0067 93.9485 12.8507 93.9485 16.748V52.58C98.2104 52.4306 101.777 51.5393 104.647 49.906C107.716 48.1153 110.255 45.956 112.265 43.428L127.5 24.152C130.991 19.728 133.372 15.9887 134.641 12.934C135.911 9.87934 135.858 7.562 134.482 5.98201C133.107 4.29667 130.198 3.40133 125.754 3.296V0.136002C127.765 0.241334 129.828 0.346668 131.943 0.452C134.06 0.452 136.123 0.504665 138.132 0.609997H144.004C146.755 0.609997 149.294 0.557332 151.622 0.452C153.95 0.346668 155.906 0.241334 157.493 0.136002V3.296C154.214 3.71734 151.04 4.82333 147.972 6.61399C144.904 8.29933 141.836 11.038 138.767 14.83L108.837 52.7035C112.884 52.9226 116.724 53.4648 120.358 54.33C125.331 55.4887 129.563 57.7007 133.054 60.966C135.024 62.8079 136.673 65.1526 138.003 68H122.988C122.752 67.3186 122.511 66.6593 122.263 66.022C120.993 62.7567 118.983 60.2287 116.232 58.438C113.482 56.542 109.408 55.594 104.013 55.594H93.9485V68H78.7801ZM130.005 97L130.039 97.148C131.626 104.205 133.901 108.84 136.863 111.052C139.931 113.159 143.317 114.212 147.019 114.212C151.463 114.212 154.902 113.264 157.335 111.368C159.768 109.472 161.99 107.049 164 104.1L161.62 102.362C160.245 104.153 158.922 105.575 157.652 106.628C156.489 107.681 155.008 108.261 153.209 108.366C150.881 108.471 149.241 107.576 148.289 105.68C147.445 103.905 146.517 101.012 145.506 97H130.005ZM12.8259 97H27.6418C27.7326 99.8642 28.0405 102.08 28.5654 103.648C29.2002 105.544 30.4168 106.808 32.2154 107.44C34.1198 108.072 36.8706 108.493 40.4677 108.704V111.864C38.0343 111.653 34.9662 111.548 31.2633 111.548C27.6662 111.443 24.0161 111.39 20.3132 111.39C16.1871 111.39 12.3254 111.443 8.72832 111.548C5.1312 111.548 2.22175 111.653 0 111.864V108.704C3.59712 108.493 6.29497 108.072 8.09353 107.44C9.99789 106.808 11.2675 105.544 11.9023 103.648C12.4272 102.08 12.735 99.8642 12.8259 97Z" fill="white"/>
<path d="M158.216 80.4291L158.408 80.0954L158.648 79.6902C159.016 79.1022 159.224 78.705 159.272 78.4984C159.464 78.4348 159.656 78.4269 159.848 78.4746C160.088 78.5222 160.256 78.6335 160.352 78.8083C160.272 79.0466 160.008 79.5233 159.56 80.2384L159.272 80.6913L158.984 81.168C158.744 81.5494 158.544 81.883 158.384 82.1691C157.456 83.8217 157.36 84.791 158.096 85.077C158.416 85.2518 159.144 84.9419 160.28 84.1474C161.336 83.4165 162.088 82.757 162.536 82.1691C162.728 82.1691 162.84 82.2485 162.872 82.4074C161.208 84.6003 159.68 85.7047 158.288 85.7206C157.584 85.7206 157.104 85.4266 156.848 84.8387C156.56 84.203 156.712 83.2655 157.304 82.0261C157.192 82.1373 157.08 82.2406 156.968 82.3359C155.64 83.48 154.528 83.8852 153.632 83.5515C153.552 83.5198 153.472 83.48 153.392 83.4324C153.296 83.7025 153.208 83.9885 153.128 84.2904C152.872 85.1167 152.68 85.6411 152.552 85.8636C152.504 85.9907 152.384 86.0066 152.192 85.9113C151.984 85.8159 151.864 85.6411 151.832 85.3869C151.752 84.6877 152.208 83.4562 153.2 81.6924L153.488 81.1918L153.752 80.7151C153.992 80.302 154.168 80 154.28 79.8094C154.616 79.1737 154.808 78.7288 154.856 78.4746C154.856 78.3633 154.92 78.2839 155.048 78.2362C155.16 78.2044 155.296 78.2124 155.456 78.26C155.616 78.3077 155.736 78.3792 155.816 78.4746C155.896 78.5858 155.904 78.705 155.84 78.8321C155.744 79.1817 155.368 79.8888 154.712 80.9535C154.568 81.1759 154.44 81.3825 154.328 81.5732C153.96 82.4154 153.864 82.9239 154.04 83.0987C154.216 83.2893 154.992 82.8762 156.368 81.8592C156.816 81.5414 157.288 81.1839 157.784 80.7866C157.928 80.6754 158.072 80.5562 158.216 80.4291Z" fill="white"/>
<path d="M152.891 82.1929C153.067 82.177 153.179 82.2485 153.227 82.4074C151.387 84.791 149.771 85.9828 148.379 85.9828C148.043 85.9828 147.747 85.9113 147.491 85.7682C147.187 85.6093 147.003 85.3869 146.939 85.1008C146.619 83.925 146.987 82.185 148.043 79.8809L147.731 80.3337L147.395 80.8104L146.723 81.7877C146.195 82.5187 145.731 83.1225 145.331 83.5992C144.291 84.8704 143.523 85.4743 143.027 85.4107C142.611 85.3471 142.283 85.1962 142.043 84.9578C141.771 84.7036 141.683 84.3937 141.779 84.0282C142.067 82.9636 142.771 81.7798 143.891 80.4768C145.107 79.0466 146.123 78.4031 146.939 78.5461C147.403 78.6096 147.723 78.7685 147.899 79.0228C148.539 78.1806 149.051 77.5847 149.435 77.2351C149.595 77.1716 149.771 77.1716 149.963 77.2351C150.171 77.2987 150.323 77.4179 150.419 77.5927C150.195 77.9263 149.915 78.4348 149.579 79.1181C149.163 79.9603 148.811 80.7548 148.523 81.5017C147.707 83.6628 147.643 84.9261 148.331 85.2915C148.651 85.4504 149.395 85.1088 150.563 84.2666C151.651 83.488 152.427 82.7967 152.891 82.1929ZM142.907 84.7195C143.275 84.7513 143.939 84.1792 144.899 83.0033C145.219 82.6061 145.659 82.0261 146.219 81.2633L146.891 80.3337L147.587 79.428C147.491 79.1261 147.267 79.0148 146.915 79.0943C146.515 79.1579 145.979 79.571 145.307 80.3337C144.715 80.9852 144.147 81.74 143.603 82.5981C142.771 83.9647 142.539 84.6718 142.907 84.7195Z" fill="white"/>
<path d="M134.572 79.4518C134.476 79.8173 134.14 80.4529 133.564 81.3587L133.204 81.9069L132.844 82.5028C132.572 82.9795 132.348 83.4244 132.172 83.8376C132.428 83.5357 132.796 83.0589 133.276 82.4074L133.852 81.5732L134.452 80.7628C135.412 79.5233 136.068 78.9354 136.42 78.999C136.628 79.0307 136.796 79.142 136.924 79.3326C137.052 79.4916 137.116 79.6505 137.116 79.8094C137.116 80.0318 137.028 80.4291 136.852 81.0011C136.772 81.2236 136.676 81.4858 136.564 81.7877L136.276 82.622C135.748 84.0203 135.532 84.7433 135.628 84.791C135.708 84.8228 136.308 83.8773 137.428 81.9546C137.956 81.0647 138.372 80.4053 138.676 79.9762C139.108 79.3724 139.412 79.0705 139.588 79.0705C139.748 79.0705 139.916 79.1737 140.092 79.3803C140.252 79.571 140.316 79.7379 140.284 79.8809C140.236 80.1033 140.132 80.4768 139.972 81.0011C139.924 81.1759 139.852 81.4143 139.756 81.7162L139.54 82.4789C139.156 83.7343 138.98 84.4414 139.012 84.6003C139.092 84.9499 139.716 84.8387 140.884 84.2666C141.284 84.0759 141.708 83.8535 142.156 83.5992C142.316 83.5039 142.468 83.4085 142.612 83.3132C142.74 83.2337 142.828 83.1781 142.876 83.1463C142.988 83.0669 143.076 83.0748 143.14 83.1702C143.188 83.2655 143.172 83.3529 143.092 83.4324C143.028 83.4959 142.948 83.5754 142.852 83.6707C142.708 83.782 142.564 83.9011 142.42 84.0283C142.02 84.3461 141.62 84.6162 141.22 84.8387C140.084 85.4743 139.22 85.5776 138.628 85.1485C138.292 84.9102 138.14 84.4732 138.172 83.8376C138.172 83.3291 138.292 82.7094 138.532 81.9784C138.628 81.6924 138.732 81.3905 138.844 81.0726C138.94 80.8343 139.044 80.58 139.156 80.3099L139.444 79.5948C139.396 79.6107 139.188 79.9524 138.82 80.6198L138.7 80.8581L138.556 81.0965L138.268 81.6209C138.028 82.0658 137.82 82.4472 137.644 82.765C136.444 84.8307 135.644 85.8 135.244 85.6729C134.764 85.514 134.54 85.0929 134.572 84.4096C134.604 83.8852 134.788 83.1861 135.124 82.3121C135.252 82.0102 135.404 81.6685 135.58 81.2872L135.796 80.8105C135.876 80.6198 135.932 80.4847 135.964 80.4052C136.204 79.865 136.268 79.6187 136.156 79.6663C135.868 79.7776 135.06 80.7946 133.732 82.7173C133.236 83.4324 132.74 84.1792 132.244 84.9578C131.796 85.6411 131.476 86.1417 131.284 86.4595C131.236 86.6025 131.116 86.6263 130.924 86.531C130.716 86.4356 130.596 86.2609 130.564 86.0066C130.468 85.3074 130.94 84.0283 131.98 82.1691L132.268 81.6209L132.556 81.1203C132.812 80.6913 132.996 80.3735 133.108 80.1669C133.46 79.4995 133.66 79.0387 133.708 78.7844C133.724 78.6732 133.78 78.6176 133.876 78.6176C133.972 78.6176 134.084 78.6573 134.212 78.7368C134.34 78.8321 134.436 78.9433 134.5 79.0705C134.58 79.1976 134.604 79.3247 134.572 79.4518Z" fill="white"/>
<path d="M129.131 80.7866C129.291 80.1351 129.163 79.6107 128.747 79.2135C128.411 78.8798 127.795 79.0546 126.899 79.7379C126.563 79.9762 126.227 80.2622 125.891 80.5959C125.603 80.8979 125.387 81.1442 125.243 81.3348C124.139 82.8603 123.883 83.9488 124.475 84.6003C124.955 85.0929 125.691 85.2836 126.683 85.1724C127.771 85.0611 128.779 84.7195 129.707 84.1474C130.251 83.8137 131.059 83.1781 132.131 82.2406C132.227 82.177 132.315 82.177 132.395 82.2406C132.459 82.3041 132.467 82.3757 132.419 82.4551C131.827 83.5039 130.891 84.3381 129.611 84.9578C128.347 85.5935 127.075 85.8477 125.795 85.7206C124.579 85.6093 123.763 84.9817 123.347 83.8376C122.979 82.8524 123.491 81.6447 124.883 80.2146C125.475 79.6266 126.091 79.1658 126.731 78.8321C127.403 78.4825 127.971 78.3633 128.435 78.4746C129.091 78.6335 129.515 78.9751 129.707 79.4995C129.883 79.9444 129.843 80.3814 129.587 80.8105C129.523 80.9058 129.427 80.9614 129.299 80.9773C129.171 80.9773 129.115 80.9137 129.131 80.7866Z" fill="white"/>
<path d="M123.821 82.1691C123.917 82.1055 124.005 82.1055 124.085 82.1691C124.149 82.2326 124.157 82.3041 124.109 82.3836C123.757 83.0033 123.245 83.5992 122.573 84.1713C121.997 84.648 121.301 85.0293 120.485 85.3154C119.605 85.6173 118.797 85.7285 118.061 85.6491C116.845 85.5378 116.021 84.9181 115.589 83.7899C115.221 82.7888 115.733 81.5811 117.125 80.1669C117.717 79.5631 118.333 79.1022 118.973 78.7844C119.661 78.4348 120.237 78.3157 120.701 78.4269C121.389 78.6017 121.781 78.9195 121.877 79.3803C121.957 79.8094 121.773 80.2861 121.325 80.8104C120.285 82.0499 118.717 82.8206 116.621 83.1225C116.493 83.7263 116.581 84.203 116.885 84.5526C117.477 85.1882 118.373 85.3313 119.573 84.9817C120.021 84.8387 120.493 84.64 120.989 84.3858C121.405 84.1633 121.773 83.925 122.093 83.6707C122.477 83.3847 123.053 82.8841 123.821 82.1691ZM117.509 81.2633C117.189 81.6924 116.933 82.1611 116.741 82.6696C117.765 82.3836 118.805 81.748 119.861 80.7628C120.901 79.7776 121.165 79.1579 120.653 78.9036C120.333 78.7606 119.773 79.0307 118.973 79.714C118.669 79.9841 118.373 80.2781 118.085 80.5959C117.829 80.8661 117.637 81.0885 117.509 81.2633Z" fill="white"/>
<path d="M100.802 84.2666C97.9377 85.7285 95.8177 87.1984 94.4417 88.6762C93.5137 89.6773 93.1297 90.2414 93.2897 90.3685C93.5137 90.5115 94.0737 90.2732 94.9697 89.6534C96.6497 88.557 98.5937 86.7614 100.802 84.2666ZM116.666 73.636C116.602 73.7313 116.53 73.8266 116.45 73.922C114.898 75.9242 113.546 77.831 112.394 79.6425C112.826 79.6425 113.234 79.6663 113.618 79.714C113.89 79.7299 114.042 79.8411 114.074 80.0477C114.09 80.2543 113.97 80.3496 113.714 80.3337C113.106 80.3337 112.49 80.3894 111.866 80.5006C110.826 82.185 110.114 83.6072 109.73 84.7672C109.682 84.8943 109.642 85.0135 109.61 85.1247L109.466 85.5776C109.37 85.9271 109.314 86.2529 109.298 86.5548C109.234 87.3334 109.442 87.834 109.922 88.0565C110.498 88.3266 110.994 88.2551 111.41 87.8419C111.458 87.8102 111.506 87.8022 111.554 87.8181C111.586 87.834 111.618 87.8578 111.65 87.8896C111.682 87.9373 111.698 87.985 111.698 88.0326C111.682 88.0962 111.642 88.1439 111.578 88.1756C111.306 88.414 110.946 88.557 110.498 88.6047C110.114 88.6523 109.762 88.6206 109.442 88.5093C108.802 88.271 108.434 87.6751 108.338 86.7217C108.258 85.7841 108.45 84.7195 108.914 83.5277C109.282 82.6378 109.73 81.7321 110.258 80.8105C108.098 81.2713 105.794 82.034 103.346 83.0987C100.386 86.6581 97.6257 89.1052 95.0657 90.44C94.0577 90.9485 93.3857 91.0915 93.0497 90.8691C92.5537 90.5195 92.7457 89.7885 93.6257 88.6762C95.1617 86.7693 97.9777 84.8069 102.074 82.7888C104.522 79.8173 106.25 77.0921 107.258 74.6132C108.458 71.6894 108.394 69.5998 107.066 68.3445C105.818 67.1527 104.034 66.7316 101.714 67.0812C99.6177 67.399 97.4737 68.2571 95.2817 69.6554C93.1057 71.0379 91.4737 72.5554 90.3857 74.208C89.2017 76.0195 88.9617 77.5927 89.6657 78.9274C90.4017 80.3417 92.4977 80.7151 95.9537 80.0477C96.0977 80.0318 96.1777 80.0874 96.1937 80.2146C96.2257 80.3417 96.1857 80.437 96.0737 80.5006C94.4737 81.1362 93.0017 81.3031 91.6577 81.0011C90.3617 80.7151 89.4897 80.0636 89.0417 79.0466C88.2577 77.3146 88.4417 75.4792 89.5937 73.5406C90.6497 71.7927 92.2977 70.2513 94.5377 68.9165C96.7617 67.5976 99.0257 66.8031 101.33 66.533C103.842 66.2628 105.89 66.6998 107.474 67.8439C109.154 69.0516 109.602 71.0299 108.818 73.779C108.162 76.1307 106.706 78.7685 104.45 81.6924C106.818 80.7072 108.954 80.0715 110.858 79.7855C111.994 77.9581 113.394 76.0195 115.058 73.9696C115.202 73.7949 115.338 73.628 115.466 73.4691C115.962 72.8653 116.458 72.2932 116.954 71.7529C117.482 71.165 117.914 70.7121 118.25 70.3943C118.474 70.1083 118.714 69.9891 118.97 70.0368C119.226 70.1003 119.322 70.2751 119.258 70.5612C118.746 71.0697 117.882 72.0946 116.666 73.636Z" fill="white"/>
<path d="M74.0099 79.4518C73.9139 79.8173 73.5779 80.4529 73.0019 81.3587L72.6419 81.9069L72.2819 82.5028C72.0099 82.9795 71.7859 83.4244 71.6099 83.8376C71.8659 83.5357 72.2339 83.0589 72.7139 82.4074L73.2899 81.5732L73.8899 80.7628C74.8499 79.5233 75.5059 78.9354 75.8579 78.999C76.0659 79.0307 76.2339 79.142 76.3619 79.3326C76.4899 79.4916 76.5539 79.6505 76.5539 79.8094C76.5539 80.0318 76.4659 80.4291 76.2899 81.0011C76.2099 81.2236 76.1139 81.4858 76.0019 81.7877L75.7139 82.622C75.1859 84.0203 74.9699 84.7433 75.0659 84.791C75.1459 84.8228 75.7459 83.8773 76.8659 81.9546C77.3939 81.0647 77.8099 80.4053 78.1139 79.9762C78.5459 79.3724 78.8499 79.0705 79.0259 79.0705C79.1859 79.0705 79.3539 79.1737 79.5299 79.3803C79.6899 79.571 79.7539 79.7379 79.7219 79.8809C79.6739 80.1033 79.5699 80.4768 79.4099 81.0011C79.3619 81.1759 79.2899 81.4143 79.1939 81.7162L78.9779 82.4789C78.5939 83.7343 78.4179 84.4414 78.4499 84.6003C78.5299 84.9499 79.1539 84.8387 80.3219 84.2666C80.7219 84.0759 81.1459 83.8535 81.5939 83.5992C81.7539 83.5039 81.9059 83.4085 82.0499 83.3132C82.1779 83.2337 82.2659 83.1781 82.3139 83.1463C82.4259 83.0669 82.5139 83.0748 82.5779 83.1702C82.6259 83.2655 82.6099 83.3529 82.5299 83.4324C82.4659 83.4959 82.3859 83.5754 82.2899 83.6707C82.1459 83.782 82.0019 83.9011 81.8579 84.0283C81.4579 84.3461 81.0579 84.6162 80.6579 84.8387C79.5219 85.4743 78.6579 85.5776 78.0659 85.1485C77.7299 84.9102 77.5779 84.4732 77.6099 83.8376C77.6099 83.3291 77.7299 82.7094 77.9699 81.9784C78.0659 81.6924 78.1699 81.3905 78.2819 81.0726C78.3779 80.8343 78.4819 80.58 78.5939 80.3099L78.8819 79.5948C78.8339 79.6107 78.6259 79.9524 78.2579 80.6198L78.1379 80.8581L77.9939 81.0965L77.7059 81.6209C77.4659 82.0658 77.2579 82.4472 77.0819 82.765C75.8819 84.8307 75.0819 85.8 74.6819 85.6729C74.2019 85.514 73.9779 85.0929 74.0099 84.4096C74.0419 83.8852 74.2259 83.1861 74.5619 82.3121C74.6899 82.0102 74.8419 81.6685 75.0179 81.2872L75.2339 80.8105C75.3139 80.6198 75.3699 80.4847 75.4019 80.4052C75.6419 79.865 75.7059 79.6187 75.5939 79.6663C75.3059 79.7776 74.4979 80.7946 73.1699 82.7173C72.6739 83.4324 72.1779 84.1792 71.6819 84.9578C71.2339 85.6411 70.9139 86.1417 70.7219 86.4595C70.6739 86.6025 70.5539 86.6263 70.3619 86.531C70.1539 86.4356 70.0339 86.2609 70.0019 86.0066C69.9059 85.3074 70.3779 84.0283 71.4179 82.1691L71.7059 81.6209L71.9939 81.1203C72.2499 80.6913 72.4339 80.3735 72.5459 80.1669C72.8979 79.4995 73.0979 79.0387 73.1459 78.7844C73.1619 78.6732 73.2179 78.6176 73.3139 78.6176C73.4099 78.6176 73.5219 78.6573 73.6499 78.7368C73.7779 78.8321 73.8739 78.9433 73.9379 79.0705C74.0179 79.1976 74.0419 79.3247 74.0099 79.4518Z" fill="white"/>
<path d="M71.4928 82.1929C71.6688 82.177 71.7808 82.2485 71.8288 82.4074C69.9888 84.791 68.3728 85.9828 66.9808 85.9828C66.6448 85.9828 66.3488 85.9113 66.0928 85.7682C65.7888 85.6093 65.6048 85.3869 65.5408 85.1008C65.2208 83.925 65.5888 82.185 66.6448 79.8809L66.3328 80.3337L65.9968 80.8104L65.3248 81.7877C64.7968 82.5187 64.3328 83.1225 63.9328 83.5992C62.8928 84.8704 62.1248 85.4743 61.6288 85.4107C61.2128 85.3471 60.8848 85.1962 60.6448 84.9578C60.3728 84.7036 60.2848 84.3937 60.3808 84.0282C60.6688 82.9636 61.3728 81.7798 62.4928 80.4768C63.7088 79.0466 64.7248 78.4031 65.5408 78.5461C66.0048 78.6096 66.3248 78.7685 66.5008 79.0228C67.1408 78.1806 67.6528 77.5847 68.0368 77.2351C68.1968 77.1716 68.3728 77.1716 68.5648 77.2351C68.7728 77.2987 68.9248 77.4179 69.0208 77.5927C68.7968 77.9263 68.5168 78.4348 68.1808 79.1181C67.7648 79.9603 67.4128 80.7548 67.1248 81.5017C66.3088 83.6628 66.2448 84.9261 66.9328 85.2915C67.2528 85.4504 67.9968 85.1088 69.1648 84.2666C70.2528 83.488 71.0288 82.7967 71.4928 82.1929ZM61.5088 84.7195C61.8768 84.7513 62.5408 84.1792 63.5008 83.0033C63.8208 82.6061 64.2608 82.0261 64.8208 81.2633L65.4928 80.3337L66.1888 79.428C66.0928 79.1261 65.8688 79.0148 65.5168 79.0943C65.1168 79.1579 64.5808 79.571 63.9088 80.3337C63.3168 80.9852 62.7488 81.74 62.2048 82.5981C61.3728 83.9647 61.1408 84.6718 61.5088 84.7195Z" fill="white"/>
<path d="M58.5324 78.3554C59.6044 78.1806 60.1324 78.4984 60.1164 79.3088C60.1004 80.1192 59.6284 81.2395 58.7004 82.6696C57.8364 84.0044 57.1004 84.8704 56.4924 85.2677C55.9324 85.6173 55.3484 85.6014 54.7404 85.22C54.1804 84.8545 53.8844 84.4017 53.8524 83.8614C52.7484 85.1962 51.8284 86.4436 51.0924 87.6036C49.5564 90.3208 48.9564 92.1482 49.2924 93.0858C48.7484 93.1493 48.4284 92.9984 48.3324 92.6329C48.0124 91.5206 49.1244 88.9066 51.6684 84.791L52.3884 83.623L52.7484 83.051L53.0844 82.5028C53.6124 81.6447 54.0284 80.9535 54.3324 80.4291C55.1324 79.0148 55.5004 78.0694 55.4364 77.5927C55.6764 77.4814 55.8844 77.5529 56.0604 77.8072C56.2204 78.0455 56.2684 78.3236 56.2044 78.6414C56.1244 79.2452 55.5164 80.4688 54.3804 82.3121C56.4764 79.8014 57.8604 78.4825 58.5324 78.3554ZM55.6764 84.8625C56.1404 84.7195 56.9404 83.6787 58.0764 81.74C59.2124 79.7855 59.5484 78.7844 59.0844 78.7368C58.8924 78.7209 58.3324 79.1499 57.4044 80.0239C56.4124 80.9614 55.3964 82.042 54.3564 83.2655C54.4844 83.7899 54.6764 84.211 54.9324 84.5288C55.1884 84.8307 55.4364 84.9419 55.6764 84.8625Z" fill="white"/>
<path d="M53.46 82.2167C53.524 82.1691 53.596 82.1691 53.676 82.2167C53.772 82.2644 53.796 82.3359 53.748 82.4313L53.7 82.4789C53.684 82.5107 53.652 82.5584 53.604 82.622C53.492 82.7491 53.372 82.8921 53.244 83.051C52.844 83.5118 52.436 83.925 52.02 84.2904C50.692 85.4345 49.58 85.8398 48.684 85.5061C47.836 85.1882 47.876 84.2507 48.804 82.6935C48.964 82.4233 49.148 82.1373 49.356 81.8354L49.62 81.4302C49.7 81.3348 49.788 81.2157 49.884 81.0726C50.252 80.5641 50.428 80.294 50.412 80.2622C50.396 80.294 50.316 80.3973 50.172 80.5721C50.012 80.7787 49.828 81.0091 49.62 81.2633C49.06 81.9466 48.5 82.5822 47.94 83.1702C46.212 84.9499 44.996 85.7762 44.292 85.6491C43.924 85.5855 43.716 85.371 43.668 85.0055C43.572 84.3063 43.932 83.2893 44.748 81.9546L44.988 81.5732L45.228 81.2157C45.42 80.8978 45.564 80.6595 45.66 80.5006C45.948 80.008 46.116 79.6346 46.164 79.3803C46.164 79.2691 46.228 79.1896 46.356 79.142C46.468 79.1102 46.604 79.1181 46.764 79.1658C46.924 79.2135 47.044 79.285 47.124 79.3803C47.22 79.4915 47.228 79.6107 47.148 79.7379C47.1 79.9285 46.908 80.3178 46.572 80.9058C46.444 81.1124 46.276 81.3984 46.068 81.7639L45.804 82.1929L45.516 82.6458C44.62 84.1713 44.268 84.9737 44.46 85.0532C44.7 85.1326 45.764 84.2825 47.652 82.5028C49.588 80.6595 50.66 79.3724 50.868 78.6414C50.932 78.4507 51.1 78.4507 51.372 78.6414C51.644 78.848 51.788 79.0307 51.804 79.1896C51.804 79.4121 51.636 79.8252 51.3 80.4291C51.172 80.6674 50.996 80.9614 50.772 81.311L50.484 81.7877L50.196 82.2406C49.22 83.8614 48.852 84.7989 49.092 85.0532C49.268 85.2439 50.044 84.8307 51.42 83.8137C51.868 83.4959 52.34 83.1384 52.836 82.7411C52.996 82.614 53.148 82.4869 53.292 82.3598C53.34 82.328 53.38 82.2962 53.412 82.2644L53.46 82.2167ZM48.804 75.5428C48.404 75.9242 48.22 76.3294 48.252 76.7584C48.3 77.2351 48.62 77.4894 49.212 77.5211C49.692 77.537 50.132 77.3384 50.532 76.9253C50.932 76.4962 51.124 76.0354 51.108 75.5428H51.708C51.708 77.0524 50.94 77.8469 49.404 77.9263C48.604 77.9581 48.052 77.7436 47.748 77.2828C47.428 76.7902 47.516 76.2102 48.012 75.5428H48.804Z" fill="white"/>
<path d="M44.7272 82.1929C44.9032 82.177 45.0152 82.2485 45.0632 82.4074C43.2232 84.791 41.6072 85.9828 40.2152 85.9828C39.8792 85.9828 39.5832 85.9113 39.3272 85.7682C39.0232 85.6093 38.8392 85.3869 38.7752 85.1008C38.4552 83.925 38.8232 82.185 39.8792 79.8809L39.5672 80.3337L39.2312 80.8104L38.5592 81.7877C38.0312 82.5187 37.5672 83.1225 37.1672 83.5992C36.1272 84.8704 35.3592 85.4743 34.8632 85.4107C34.4472 85.3471 34.1192 85.1962 33.8792 84.9578C33.6072 84.7036 33.5192 84.3937 33.6152 84.0282C33.9032 82.9636 34.6072 81.7798 35.7272 80.4768C36.9432 79.0466 37.9592 78.4031 38.7752 78.5461C39.2392 78.6096 39.5592 78.7685 39.7352 79.0228C40.3752 78.1806 40.8872 77.5847 41.2712 77.2351C41.4312 77.1716 41.6072 77.1716 41.7992 77.2351C42.0072 77.2987 42.1592 77.4179 42.2552 77.5927C42.0312 77.9263 41.7512 78.4348 41.4152 79.1181C40.9992 79.9603 40.6472 80.7548 40.3592 81.5017C39.5432 83.6628 39.4792 84.9261 40.1672 85.2915C40.4872 85.4504 41.2312 85.1088 42.3992 84.2666C43.4872 83.488 44.2632 82.7967 44.7272 82.1929ZM34.7432 84.7195C35.1112 84.7513 35.7752 84.1792 36.7352 83.0033C37.0552 82.6061 37.4952 82.0261 38.0552 81.2633L38.7272 80.3337L39.4232 79.428C39.3272 79.1261 39.1032 79.0148 38.7512 79.0943C38.3512 79.1579 37.8152 79.571 37.1432 80.3337C36.5512 80.9852 35.9832 81.74 35.4392 82.5981C34.6072 83.9647 34.3752 84.6718 34.7432 84.7195Z" fill="white"/>
<path d="M45.7122 66.7713C45.9842 66.7872 46.1202 66.9779 46.1202 67.3434C46.1042 67.693 45.9682 67.8598 45.7122 67.8439C44.5282 67.5738 42.4082 68.3842 39.3522 70.2751C38.3922 70.8949 36.8882 71.9436 34.8402 73.4214C32.4882 75.1217 30.1682 76.8538 27.8802 78.6176C29.4162 78.999 30.2402 79.865 30.3522 81.2157C30.4002 81.7241 30.3442 82.3598 30.1842 83.1225L29.9682 84.1474L29.7042 85.1724C29.1762 87.2063 29.0482 88.6047 29.3202 89.3674C29.5282 89.9077 29.9522 90.1778 30.5922 90.1778C31.2482 90.1619 31.8562 89.8362 32.4162 89.2006C32.4802 89.137 32.5602 89.137 32.6562 89.2006C32.7362 89.2641 32.7602 89.3436 32.7282 89.4389C32.1842 90.3288 31.4882 90.7817 30.6402 90.7975C30.3042 90.8134 29.9682 90.7578 29.6322 90.6307C29.3602 90.5354 29.1202 90.4162 28.9122 90.2732C28.1602 89.7329 27.7922 88.9145 27.8082 87.8181C27.8242 87.1348 28.0402 86.0781 28.4562 84.648L28.7202 83.7184L29.0082 82.8126C29.2002 82.1135 29.2962 81.5494 29.2962 81.1203C29.3282 79.9921 28.7202 79.3168 27.4722 79.0943C25.9682 81.462 24.1362 83.7502 21.9762 85.9589C19.8962 88.0882 18.0722 89.5819 16.5042 90.44C15.5122 90.9803 14.8402 91.1233 14.4882 90.8691C13.9602 90.5195 14.1442 89.7965 15.0402 88.7C16.7202 86.6184 20.5842 83.1861 26.6322 78.4031C29.7042 73.477 30.3202 70.1242 28.4802 68.3445C27.2802 67.1845 25.5282 66.7872 23.2242 67.1527C21.1602 67.4864 19.0322 68.3445 16.8402 69.7269C14.6642 71.1094 13.0242 72.6269 11.9202 74.2795C10.7042 76.0751 10.4242 77.6244 11.0802 78.9274C11.4162 79.5789 12.2642 80.008 13.6242 80.2146C14.8882 80.4052 16.1362 80.3496 17.3682 80.0477C17.5122 80.0318 17.5922 80.0954 17.6082 80.2384C17.6402 80.3655 17.6002 80.4529 17.4882 80.5006C15.9042 81.1362 14.4402 81.3031 13.0962 81.0011C11.7842 80.7151 10.9042 80.0715 10.4562 79.0705C9.67221 77.3384 9.86421 75.4951 11.0322 73.5406C12.1042 71.7768 13.7602 70.2195 16.0002 68.8688C18.2402 67.5341 20.5122 66.7395 22.8162 66.4853C25.3122 66.2152 27.3442 66.668 28.9122 67.8439C31.0402 69.4488 31.0402 72.3727 28.9122 76.6154C33.3762 73.1672 36.6722 70.7677 38.8002 69.4171C41.9042 67.4308 44.2082 66.5488 45.7122 66.7713ZM16.4082 89.6534C19.0642 87.8578 21.8562 84.9976 24.7842 81.0726C20.5602 84.4732 17.6482 87.0713 16.0482 88.8669C15.2642 89.7249 14.8482 90.2493 14.8002 90.44C14.7042 90.7102 15.2402 90.448 16.4082 89.6534Z" fill="white"/>
</g>
<defs>
<clipPath id="clip0_204_82">
<rect width="164" height="114.212" fill="white"/>
</clipPath>
</defs>
</svg>
