<svg width="101" height="135" viewBox="0 0 101 135" fill="none" xmlns="http://www.w3.org/2000/svg">
<path d="M56.7745 24.3231C56.6663 24.1953 56.5818 24.0697 56.4736 23.942C56.1224 23.3204 55.7433 22.7435 55.3146 22.1858C55.0137 21.8048 54.689 21.4216 54.3385 21.0597C56.6279 21.9491 59.2817 21.974 61.5948 21.2602C61.7414 21.2261 61.784 21.0174 61.622 20.9557C60.3262 20.4621 58.9528 20.0324 57.576 19.9092C56.3891 19.8031 54.9935 19.8907 53.9573 20.5063C53.9315 20.5276 53.9057 20.5489 53.8777 20.5936C53.854 20.5915 53.8324 20.5659 53.8086 20.5638C52.9045 19.7039 51.8691 18.9738 50.7736 18.3801C51.106 18.4098 51.4425 18.3927 51.7315 18.3713C52.4996 18.3456 53.2543 18.2006 53.9678 17.9812C55.4682 17.5251 56.8143 16.654 57.8274 15.4934C57.9091 15.3827 57.803 15.2315 57.6801 15.2677C56.149 15.5321 54.6179 15.7965 53.1454 16.2078C51.8949 16.5445 50.634 16.9983 49.6265 17.829C49.4646 17.7672 49.3047 17.6821 49.1664 17.6225C47.391 16.8735 45.4912 16.4439 43.5663 16.2954C43.3527 16.2763 43.3233 16.6042 43.537 16.6233C45.244 16.7996 46.9322 17.1866 48.5045 17.7994C48.4787 17.8207 48.4766 17.8441 48.4508 17.8654C47.6793 20.6058 47.2338 23.4461 47.1723 26.2736C47.164 26.3673 47.3022 26.4269 47.3581 26.3374C49.2418 24.0035 50.2968 20.7691 48.9214 17.9547C49.8437 18.3441 50.738 18.7783 51.5744 19.3252C51.6177 19.3763 51.661 19.4274 51.7043 19.4785C51.1646 20.9647 50.8127 22.4914 50.6486 24.0585C50.5774 24.8548 50.532 25.6298 50.5578 26.4111C50.5837 27.1925 50.6828 27.9568 50.7324 28.7403C50.7477 28.8361 50.8427 28.8446 50.9181 28.8042C52.4834 27.6221 53.0734 25.5738 53.1439 23.715C53.1802 22.774 53.1775 21.735 52.8772 20.811C52.7641 20.4704 52.5777 20.1468 52.3655 19.8445C52.5449 19.9786 52.7006 20.1106 52.88 20.2447C52.878 20.2681 52.8738 20.3149 52.8954 20.3405C52.9862 20.3958 53.0769 20.4511 53.1698 20.4831C54.0586 21.2472 54.844 22.0965 55.5024 23.0289C55.4787 23.0268 55.4766 23.0502 55.4507 23.0715C54.8189 23.9829 54.7037 25.271 54.6331 26.3271C54.5675 27.596 54.6422 28.9012 54.5291 30.1659C54.5207 30.2596 54.6373 30.2936 54.6911 30.2276C55.5903 29.2693 56.1545 28.0449 56.343 26.7397C56.4575 25.9945 56.4638 25.1215 56.2955 24.3274C56.5622 24.8234 56.8052 25.3173 57.0202 25.8559C57.3156 26.567 57.5355 27.3185 57.6842 28.0637C56.2983 29.3798 55.8396 31.2982 55.5121 33.0868C55.5037 33.1805 55.6399 33.2635 55.7174 33.1996C56.9287 31.9622 57.6709 30.3525 57.8238 28.6427C57.9816 29.554 58.0423 30.4801 58.006 31.4212C58.0172 31.5638 58.2071 31.5808 58.2176 31.4637C58.3391 29.3026 57.9362 27.1183 57.0831 25.1533C58.2867 26.6775 59.8458 27.9737 61.6771 28.6333C61.77 28.6652 61.8991 28.5587 61.8342 28.4821C60.6187 26.5555 58.7364 25.3956 56.7745 24.3231ZM47.4412 25.9435C47.5354 23.2842 47.962 20.6547 48.7643 18.106C50.0356 20.7457 49.1245 23.7097 47.4412 25.9435ZM55.8208 20.2716C56.4268 20.1842 57.0503 20.1691 57.6675 20.2243C58.8544 20.3305 59.9471 20.6879 61.0593 21.0943C59.8088 21.431 58.5081 21.5271 57.2025 21.4103C56.1817 21.319 55.1994 21.0659 54.2492 20.7212C54.7686 20.5316 55.2643 20.3399 55.8208 20.2716ZM53.4351 16.4462C54.7093 16.1116 56.0226 15.875 57.3359 15.6383C56.3891 16.5924 55.2001 17.3123 53.9197 17.7172C53.2299 17.9388 52.5009 18.0624 51.7546 18.1137C51.3943 18.1287 51.0103 18.1416 50.6305 18.1076C50.4881 18.0949 50.3219 18.08 50.1816 18.0439C50.1125 18.0141 50.0433 17.9843 49.9763 17.9311C51.0208 17.2218 52.2105 16.7616 53.4351 16.4462ZM52.8528 23.7598C52.7648 25.5462 52.2775 27.2496 50.967 28.5252C50.7366 27.0881 50.8036 25.536 50.981 24.0882C51.1604 22.6169 51.5039 21.1839 51.9857 19.8106C52.2412 20.1639 52.4709 20.5386 52.6015 20.9516C52.9059 21.8287 52.887 22.8422 52.8528 23.7598ZM57.724 28.4213C57.5362 29.9863 56.8994 31.4875 55.8821 32.6949C56.1628 31.1619 56.6139 29.5969 57.724 28.4213ZM56.1936 24.9321C56.2816 25.5538 56.2983 26.1691 56.1943 26.7972C56.0421 27.964 55.538 29.0521 54.7637 29.9508C54.8405 28.8245 54.8244 27.6662 54.9012 26.5399C54.9536 25.9544 55.0297 25.371 55.1512 24.8153C55.2706 24.283 55.4808 23.806 55.6693 23.3035C55.6888 23.3525 55.7321 23.4035 55.7517 23.4525C55.973 23.9209 56.121 24.4063 56.1936 24.9321ZM57.1836 24.8318C58.8062 25.6852 60.4853 26.7088 61.4237 28.2565C59.7194 27.5138 58.3482 26.258 57.1836 24.8318Z" fill="white"/>
<path d="M34.2383 1.52712C33.5452 3.15637 32.8387 4.82032 32.5546 6.57893C32.4193 7.44088 32.3782 8.31738 32.4797 9.18647C32.5732 9.9734 32.7232 10.8205 32.9944 11.6128C32.8401 12.6263 32.8635 13.6452 32.9703 14.6549C33.0823 15.8052 33.2481 17.0741 33.1098 18.252C32.725 15.0805 30.8299 12.2498 29.9767 9.20464C29.9364 9.05129 29.6296 9.01863 29.6322 9.21766C29.6429 9.24139 29.6429 9.24139 29.6294 9.27609C29.6856 12.8823 30.6351 16.656 32.7615 19.6107C32.5754 20.0381 32.3301 20.4638 32.0042 20.8401C31.8156 21.0685 32.1841 21.302 32.3834 21.0973C32.6205 20.847 32.8118 20.5602 32.9789 20.2844C33.0139 20.2971 33.0624 20.2752 33.0759 20.2405C33.1271 20.1601 33.2025 20.0688 33.2644 20.0121C33.3129 19.9902 33.3749 19.9335 33.3776 19.8751C33.3776 19.8751 33.3911 19.8404 33.4153 19.8294C33.4395 19.8184 33.4638 19.8075 33.488 19.7965C34.42 18.8883 35.3547 17.9217 35.9317 16.7454C36.5626 15.4303 37.2635 14.1407 38.08 12.913C38.1824 12.7523 37.9995 12.6063 37.8407 12.7069C36.6074 13.4655 35.7531 14.7388 35.0792 15.959C34.5212 16.9838 34.0197 18.0687 33.4724 19.1172C33.7803 17.8626 33.6792 16.4786 33.5242 15.2334C33.4842 14.8225 33.4307 14.4464 33.3906 14.0356C33.4581 13.8621 33.5013 13.6996 33.5687 13.526C34.8399 12.4643 36.1004 11.3788 37.1108 10.0634C38.1212 8.74797 38.9273 7.23916 40.177 6.12993C40.2767 6.0276 40.153 5.88344 40.0426 5.96203C38.4296 6.97839 36.9725 8.21011 35.7198 9.63523C35.119 10.3076 34.5155 11.0384 34.0519 11.8203C33.8066 12.2459 33.5721 12.6952 33.4075 13.1701C33.3833 13.1811 33.3591 13.192 33.3698 13.2158C33.3648 12.8177 33.3597 12.4197 33.3896 12.0344C33.4139 12.0234 33.4274 11.9887 33.4301 11.9302C33.4086 11.8828 33.4221 11.8481 33.4006 11.8006C33.4141 11.7659 33.4034 11.7422 33.4061 11.6838C33.5389 10.6228 33.852 9.50871 34.3131 8.52785C34.3536 8.42374 34.1922 8.32525 34.1167 8.4166C33.8175 8.98103 33.5667 9.52352 33.3967 10.1153C33.2564 7.29057 33.6168 4.41076 34.5289 1.65291C34.6098 1.4447 34.3192 1.31891 34.2383 1.52712ZM30.817 14.8007C30.3499 13.3822 30.0632 11.9107 30.0025 10.4225C30.8777 13.0002 32.3775 15.4095 32.8328 18.0915C32.3947 17.3176 31.9702 16.509 31.6533 15.6802C31.6318 15.6327 31.5591 15.6657 31.5806 15.7131C31.943 16.8358 32.4023 17.9147 32.9585 18.9496C32.9558 19.008 32.953 19.0665 32.9745 19.1139C32.066 17.7524 31.3136 16.3487 30.817 14.8007ZM37.3636 13.5234C36.8191 14.5135 36.2531 15.4561 35.7678 16.4479C35.4658 17.0708 35.1316 17.6224 34.6575 18.1231C34.4582 18.3277 34.2831 18.5214 34.0837 18.7261C34.5231 17.9552 34.8925 17.1588 35.2969 16.3752C35.8441 15.3267 36.507 14.3402 37.3636 13.5234ZM32.9233 6.55494C33.0531 5.80985 33.2422 5.06655 33.5011 4.34876C33.1444 6.14029 32.941 7.94814 32.9394 9.75037C32.9127 9.56232 32.8724 9.40896 32.8564 9.24464C32.7442 8.35182 32.7745 7.45159 32.9233 6.55494ZM35.9861 9.772C36.9505 8.67757 38.0522 7.69261 39.221 6.79159C38.4182 7.72705 37.766 8.73726 37.0089 9.7092C36.2518 10.6811 35.3467 11.5199 34.431 12.3349C35.0345 11.6041 35.6137 10.8843 36.2172 10.1535C36.2549 10.1078 36.1742 10.0585 36.1365 10.1042C35.4361 10.8789 34.7357 11.6536 34.0595 12.4173C34.1754 12.2219 34.2913 12.0264 34.4072 11.831C34.868 11.1076 35.3988 10.4097 35.9861 9.772Z" fill="white"/>
<path d="M17.5888 100.202C19.0035 100.318 20.4183 100.435 21.7908 100.872C22.0116 100.931 21.9128 101.283 21.692 101.224C20.3955 100.855 19.0161 100.866 17.6491 100.833C17.038 100.812 16.4392 100.747 15.8687 100.666C15.5508 100.699 15.1888 100.721 14.855 100.727C14.3322 100.729 13.7811 100.748 13.2742 100.779C12.204 100.872 11.1249 101.081 10.0777 101.346C9.97703 101.366 9.92575 101.211 10.0264 101.19C11.0983 100.837 12.1774 100.628 13.3006 100.431C13.6467 100.381 13.9929 100.332 14.339 100.282C14.2066 100.247 14.1023 100.195 13.9699 100.16C13.5406 99.9984 13.1396 99.8206 12.7386 99.6429C12.698 99.703 12.6415 99.7353 12.5532 99.7117C12.5249 99.7278 12.509 99.7 12.4808 99.7161C9.32508 100.814 5.61378 99.4949 3.62751 96.9325C3.51972 96.8092 3.6662 96.5408 3.8464 96.6597C5.12371 97.5201 6.69564 97.5841 8.14578 97.8285C8.84877 97.9448 9.53941 98.1051 10.2213 98.3813C10.8148 98.634 11.3837 98.9746 12.0337 99.1951C11.1363 98.6723 10.2759 98.0175 9.55673 97.2822C8.16144 97.2652 6.76424 96.9167 5.46058 96.404C4.15693 95.8913 2.77373 95.2391 1.83545 94.1853C1.72766 94.062 1.90595 93.8494 2.02965 94.0006C2.93612 94.9987 4.35113 95.7066 5.61063 96.2075C6.81006 96.6688 7.9988 96.9145 9.26874 97.04C8.85349 96.5747 8.46649 96.0933 8.136 95.5797C8.10418 95.524 8.07237 95.4682 8.02465 95.3846C6.58685 95.0962 5.1455 94.7359 3.94416 93.9431C2.68276 93.1106 1.77794 91.8529 0.904943 90.651C0.841313 90.5394 0.963103 90.3591 1.09558 90.3944C2.31092 90.8836 3.37978 91.6412 4.43629 92.4427C5.02462 92.8831 5.56878 93.3118 6.15711 93.7522C6.6253 94.1134 7.13408 94.4144 7.64287 94.7154C6.94294 93.4887 6.41253 92.1652 5.88212 90.8417C5.84674 90.7141 6.06041 90.6291 6.12404 90.7406C6.63142 91.8925 7.1229 93.0164 7.74328 94.1038C7.08014 92.1538 6.97326 89.9974 5.99579 88.1529C5.91625 88.0135 6.14227 87.8846 6.2218 88.024C7.50674 90.2104 7.36482 92.9153 8.43608 95.1868C8.51562 95.3262 8.6075 95.4216 8.68704 95.561C8.4819 94.9389 8.43393 94.2641 8.40186 93.6172C8.37999 92.0035 8.67957 90.4282 8.17907 88.829C8.14369 88.7014 8.34146 88.5885 8.40509 88.7001L8.42099 88.7279C9.24271 89.7743 9.79425 90.9379 9.74537 92.2963C9.71596 93.7544 8.95009 95.3 9.57238 96.7189C9.924 97.0726 10.2597 97.3985 10.6678 97.72C11.1201 98.0533 11.5724 98.3865 12.0653 98.6597C11.2737 97.9287 10.6481 97.0291 10.4499 95.9596C10.1224 94.3355 10.9341 92.542 11.8997 91.215C11.9808 91.0947 12.1575 91.1418 12.1646 91.2855C12.1917 92.7114 12.2912 94.1329 12.3183 95.5588C12.3701 96.8966 12.4572 98.3621 13.4644 99.3397C13.4644 99.3397 13.4644 99.3397 13.4803 99.3676C13.6128 99.4028 13.7329 99.4821 13.8654 99.5174C14.3388 99.6908 14.8086 99.7923 15.2785 99.8938C14.1989 98.9206 13.4107 97.6703 13.0215 96.2662C13.0021 96.1665 13.1592 96.1137 13.1787 96.2135C13.6562 97.6411 14.4444 98.8914 15.5116 99.9086C16.2305 100.053 16.9176 100.141 17.5888 100.202ZM4.54243 92.8256C3.59014 92.0755 2.59725 91.3854 1.47023 90.9198C2.2637 91.9823 3.09776 92.9847 4.20721 93.6821C5.19653 94.3003 6.28818 94.6383 7.37626 94.9045C6.3905 94.3582 5.4629 93.52 4.54243 92.8256ZM8.71802 89.4454C8.99225 90.5825 8.86384 91.8014 8.77602 92.9602C8.7181 93.8432 8.78033 94.8056 9.04031 95.6551C9.01347 94.8204 9.26036 93.9404 9.4225 93.1087C9.60742 91.8576 9.42316 90.4844 8.71802 89.4454ZM10.2267 98.7847C9.51307 98.4528 8.7341 98.2689 7.91454 98.1452C6.75761 97.9553 5.56009 97.8255 4.46488 97.4156C5.42786 98.3814 6.59738 99.1185 7.93807 99.4992C9.27877 99.8799 10.6864 99.8529 12.0392 99.5985C11.4333 99.3898 10.8362 99.0653 10.2267 98.7847ZM12.0783 95.9913C12.0388 94.6095 11.9994 93.2276 11.96 91.8458C11.3123 93.1392 10.6046 94.393 10.8525 95.8777C11.042 97.063 11.7559 97.9862 12.6358 98.7407C12.2027 97.916 12.1087 96.8979 12.0783 95.9913Z" fill="white"/>
<path d="M33.3096 80.2346C33.326 80.1581 33.3884 80.0514 33.4047 79.9749C33.3526 78.3635 33.3845 76.7301 33.5301 75.121C33.3733 74.9275 33.4305 74.6596 33.5768 74.5309C33.6236 73.9408 33.7083 73.3588 33.7929 72.7767C33.709 72.7988 33.6711 72.7907 33.5953 72.7746C32.9892 72.6451 33.1934 71.6886 33.7996 71.818C33.8753 71.8342 33.9511 71.8504 33.9808 71.8967C34.0729 71.8364 34.1866 71.8607 34.1621 71.9754C34.1539 72.0137 34.1457 72.052 34.1376 72.0902C34.1806 72.2595 34.1398 72.4508 34.0692 72.5957C33.9764 73.216 33.8836 73.8363 33.8286 74.4646C33.8665 74.4727 33.8665 74.4727 33.8665 74.4727C34.359 74.5779 34.2038 75.3048 33.7328 75.2843C33.6527 76.5873 33.6186 77.8602 33.6602 79.1493C33.8503 78.6298 34.0486 78.0721 34.2091 77.5063C34.9295 75.0597 35.2793 72.494 35.112 69.938C35.1016 69.6157 35.5428 69.5899 35.5911 69.9202C35.904 72.9074 35.3425 75.908 34.3725 78.7813C34.5352 78.576 34.6979 78.3707 34.8605 78.1654C35.2319 77.7246 35.6115 77.2456 35.9531 76.7585C36.2866 76.3096 36.612 75.899 36.9455 75.4502C36.9076 75.4421 36.9076 75.4421 36.8697 75.434C36.4151 75.3369 36.5622 74.6482 37.0168 74.7453C37.1683 74.7776 37.2656 74.8784 37.279 75.0013C37.5583 74.6209 37.8457 74.2022 38.125 73.8217C38.1792 73.7533 38.2929 73.7776 38.3226 73.8239C38.3226 73.8239 38.3226 73.8239 38.2929 73.7776C38.2713 73.693 38.2877 73.6164 38.304 73.5399C38.3203 73.4634 38.3285 73.4251 38.3827 73.3567C38.3991 73.2802 38.4451 73.25 38.5291 73.2279C38.5833 73.1595 38.6672 73.1374 38.7511 73.1153C38.8351 73.0932 38.9487 73.1175 39.0163 73.1719L39.0542 73.18C39.0921 73.1881 39.1218 73.2345 39.1597 73.2425C39.2191 73.3352 39.2488 73.3816 39.2786 73.4279C39.3083 73.4743 39.338 73.5206 39.3298 73.5589C39.3595 73.6053 39.3432 73.6818 39.3268 73.7583C39.3187 73.7966 39.3105 73.8348 39.3023 73.8731C39.2942 73.9113 39.2481 73.9415 39.2399 73.9798C39.1478 74.0401 39.1018 74.0703 39.0557 74.1005C39.0097 74.1306 38.9257 74.1527 38.8879 74.1446L38.85 74.1366C38.766 74.1586 38.6524 74.1344 38.5848 74.0799C38.5172 74.0255 38.4496 73.9711 38.382 73.9166C38.382 73.9166 38.382 73.9166 38.3523 73.8703C38.3441 73.9085 38.3441 73.9085 38.336 73.9468C37.6444 74.9593 36.9611 75.9336 36.2317 76.938C35.5105 77.9041 34.819 78.9167 33.9923 79.8203C33.9677 79.9351 33.9135 80.0035 33.889 80.1183C33.9269 80.1264 33.973 80.0962 34.0108 80.1043C34.5746 79.5046 35.1681 78.9512 35.821 78.4905C36.1976 78.2109 36.6039 77.9776 37.0102 77.7443C37.4165 77.511 37.8525 77.3241 38.2885 77.1371C38.3725 77.115 38.478 77.1776 38.4995 77.2622C38.5226 78.2672 37.6067 79.0318 36.8402 79.4682C35.9815 79.965 35.0419 80.2844 34.0888 80.481C34.0428 80.5112 34.0346 80.5494 33.9886 80.5796C33.9343 80.648 33.8207 80.6238 33.791 80.5774C33.5221 81.2801 33.2072 82.013 32.9004 82.7076C31.2337 86.4323 29.1369 89.9452 27.3647 93.6073C27.4568 93.547 27.5489 93.4866 27.6032 93.4182C28.2642 92.9193 28.9335 92.3821 29.5946 91.8831C30.9546 90.8933 32.3444 89.9499 33.7557 89.0911C33.8938 89.0006 34.0587 89.1558 33.9882 89.3007C32.1766 92.0344 29.8747 95.0234 26.4393 95.53C25.4863 97.7669 24.8068 100.022 24.3679 102.449C24.2862 102.831 23.764 102.68 23.7996 102.327C24.0461 100.06 24.7175 97.8428 25.5702 95.7045C25.5323 95.6964 25.4944 95.6883 25.4729 95.6037C24.9083 94.7231 24.528 93.7217 24.3994 92.6541C24.2709 91.5866 24.4157 90.5373 24.7878 89.5366C24.8123 89.4218 24.9802 89.3777 25.0314 89.5086C25.6903 90.6895 26.0432 92.005 26.1904 93.3566C26.3322 92.5067 26.474 91.6569 26.5401 90.7909C26.0803 90.5327 26.1976 89.7976 26.6337 89.6107C26.65 89.5342 26.6285 89.4496 26.6448 89.373C26.6641 89.0971 26.6752 88.8595 26.6567 88.5755C26.6106 88.6056 26.5727 88.5975 26.5348 88.5895C26.413 88.6035 26.3372 88.5873 26.2615 88.5711C26.2236 88.563 26.1478 88.5468 26.1181 88.5005C26.0126 88.438 25.945 88.3835 25.8856 88.2908C25.8559 88.2445 25.8262 88.1981 25.7965 88.1518C25.7831 88.0289 25.7615 87.9443 25.7861 87.8295C25.7942 87.7912 25.8024 87.753 25.8106 87.7147C25.8269 87.6382 25.8432 87.5617 25.8975 87.4932C25.9517 87.4248 26.0059 87.3564 26.052 87.3262C26.1062 87.2578 26.1901 87.2357 26.2659 87.2519C26.3498 87.2298 26.4338 87.2077 26.5014 87.2621C26.4345 86.6478 26.3676 86.0334 26.2628 85.4109C26.1952 85.3565 26.1737 85.2719 26.19 85.1954C26.1685 85.1108 26.147 85.0262 26.2012 84.9577C26.1744 84.712 26.1098 84.4581 26.0749 84.2507C26.0615 84.1278 26.1915 84.0755 26.2427 84.2065C26.294 84.3374 26.375 84.5148 26.4262 84.6457C26.4344 84.6075 26.4723 84.6155 26.4805 84.5773C26.5265 84.5471 26.5726 84.5169 26.6186 84.4868C26.7486 84.4345 26.8244 84.4507 26.938 84.475C27.0138 84.4911 27.0896 84.5073 27.1572 84.5617C27.2247 84.6162 27.2923 84.6706 27.3221 84.717C27.3815 84.8097 27.4112 84.856 27.3949 84.9325C27.4164 85.0172 27.438 85.1018 27.3837 85.1702C27.3756 85.2085 27.3592 85.285 27.3132 85.3152C27.2508 85.4219 27.1966 85.4903 27.1044 85.5506C27.0584 85.5808 27.0123 85.611 26.9663 85.6412C26.8824 85.6632 26.7605 85.6772 26.6469 85.653C26.7895 86.2835 26.8401 86.9744 26.8609 87.6189C26.8609 87.6189 26.8609 87.6189 26.8527 87.6572C26.8661 87.7801 26.8876 87.8647 26.8631 87.9795L26.855 88.0177C26.8787 88.4629 26.8647 88.8999 26.8127 89.3289C26.7963 89.4054 26.8179 89.49 26.8015 89.5665C27.5592 89.7283 27.3683 90.8077 26.7214 90.8696C26.6389 91.8121 26.4808 92.7385 26.3226 93.6649C26.9658 92.322 27.6469 90.9872 28.3577 89.6988C30.0096 86.971 31.5397 84.2573 32.7749 81.4406C32.6828 81.501 32.607 81.4848 32.5476 81.3921C31.3672 79.4998 30.5879 77.2131 30.1495 74.9992C29.7112 72.7854 29.6004 70.5214 29.8388 68.292C29.8418 68.0926 30.1151 68.1109 30.1961 68.2882C31.9723 72.028 33.5316 76.0414 33.3096 80.2346ZM33.2595 89.7452C32.0703 90.4915 30.9108 91.284 29.7892 92.0847C29.1281 92.5836 28.4752 93.0443 27.852 93.5513C27.5675 93.7706 27.2749 94.0282 26.9822 94.2858C26.8953 94.5072 26.7705 94.7206 26.6836 94.9421C26.6755 94.9804 26.6673 95.0186 26.6212 95.0488C29.556 94.4753 31.5972 92.1507 33.2595 89.7452ZM25.6927 95.1306C25.6712 95.046 25.6415 94.9996 25.6957 94.9312C25.9118 93.1771 25.6027 91.4709 24.9119 89.8832C24.3385 91.641 24.704 93.6393 25.6927 95.1306ZM36.4643 79.1879C37.1387 78.8119 37.8459 78.2828 38.085 77.5337C37.3133 77.809 36.5846 78.2535 35.9696 78.7223C35.4548 79.0924 34.9237 79.5391 34.4684 80.002C35.1859 79.7951 35.8359 79.5338 36.4643 79.1879ZM30.4526 75.064C30.937 77.2477 31.7816 79.2283 32.832 81.1728L32.8618 81.2191C32.8781 81.1426 32.9242 81.1124 32.9405 81.0359C33.3221 76.8368 31.8089 72.7932 30.1248 68.9931C29.9273 71.0312 30.041 73.0958 30.4526 75.064Z" fill="white"/>
<path d="M72.8965 120.06C74.3107 119.936 75.7248 119.811 77.1513 120.009C77.3789 120.03 77.3412 120.393 77.1136 120.373C75.7733 120.229 74.4157 120.473 73.0628 120.672C72.4569 120.754 71.8558 120.792 71.2798 120.808C70.9722 120.895 70.6191 120.978 70.291 121.04C69.7762 121.131 69.2363 121.243 68.7419 121.359C67.7029 121.632 66.6748 122.021 65.6875 122.459C65.5917 122.496 65.5149 122.352 65.6106 122.314C66.6073 121.785 67.6354 121.396 68.709 121.012C69.0418 120.904 69.3745 120.797 69.7073 120.689C69.5707 120.677 69.4593 120.644 69.3228 120.631C68.8724 120.545 68.4471 120.437 68.0218 120.33C67.9919 120.396 67.9417 120.438 67.8507 120.429C67.8256 120.45 67.8052 120.425 67.78 120.446C64.8558 122.062 60.9747 121.39 58.5834 119.201C58.4563 119.098 58.5552 118.808 58.7529 118.895C60.1574 119.527 61.7175 119.324 63.1881 119.319C63.9006 119.315 64.6085 119.356 65.3272 119.513C65.955 119.661 66.5733 119.901 67.2512 120.008C66.2783 119.645 65.3195 119.145 64.4862 118.542C63.1082 118.761 61.6722 118.654 60.3006 118.37C58.9289 118.085 57.4553 117.676 56.3522 116.797C56.2251 116.693 56.3648 116.454 56.5123 116.582C57.5747 117.412 59.0891 117.87 60.4152 118.151C61.6754 118.402 62.8886 118.443 64.1614 118.352C63.6734 117.964 63.2105 117.555 62.7979 117.105C62.7571 117.055 62.7163 117.005 62.6551 116.931C61.1892 116.89 59.7077 116.779 58.3895 116.201C57.0054 115.594 55.9008 114.508 54.8369 113.471C54.7553 113.372 54.8448 113.173 54.9814 113.186C56.262 113.462 57.4436 114.028 58.6206 114.639C59.275 114.974 59.8838 115.304 60.5382 115.638C61.0608 115.915 61.6132 116.126 62.1656 116.336C61.2681 115.246 60.5213 114.031 59.7746 112.816C59.7181 112.697 59.9143 112.577 59.9959 112.676C60.6909 113.725 61.3655 114.75 62.161 115.716C61.1774 113.907 60.7071 111.8 59.4315 110.147C59.3295 110.023 59.5305 109.858 59.6324 109.982C61.2689 111.919 61.5869 114.609 63.0271 116.667C63.1291 116.79 63.2358 116.869 63.3378 116.993C63.0303 116.414 62.8688 115.758 62.7277 115.125C62.433 113.539 62.4617 111.935 61.6977 110.444C61.6413 110.324 61.8171 110.179 61.8987 110.279L61.9191 110.303C62.906 111.196 63.6465 112.249 63.8283 113.596C64.0461 115.038 63.5529 116.691 64.4063 117.984C64.8127 118.273 65.1988 118.538 65.6554 118.785C66.1576 119.037 66.6597 119.289 67.1917 119.475C66.2879 118.889 65.519 118.108 65.1426 117.087C64.545 115.542 65.0414 113.637 65.7685 112.166C65.8281 112.034 66.0102 112.05 66.0415 112.191C66.3096 113.591 66.6482 114.975 66.9163 116.376C67.1937 117.686 67.5277 119.115 68.6858 119.908C68.6858 119.908 68.6858 119.908 68.7061 119.933C68.8427 119.946 68.9745 120.003 69.111 120.016C69.607 120.107 70.0872 120.127 70.5675 120.148C69.3388 119.371 68.3503 118.272 67.7291 116.954C67.693 116.859 67.839 116.781 67.8751 116.876C68.5873 118.202 69.5758 119.301 70.7997 120.123C71.5327 120.143 72.2248 120.114 72.8965 120.06ZM58.79 114.998C57.7245 114.42 56.6291 113.908 55.4395 113.64C56.4014 114.553 57.3931 115.4 58.6046 115.899C59.6843 116.341 60.8174 116.49 61.9348 116.568C60.8708 116.196 59.8147 115.527 58.79 114.998ZM62.3332 110.96C62.796 112.035 62.8757 113.258 62.9853 114.415C63.0777 115.295 63.3019 116.233 63.7019 117.026C63.5341 116.208 63.6285 115.299 63.6476 114.452C63.6181 113.187 63.2041 111.865 62.3332 110.96ZM65.4009 119.909C64.6413 119.703 63.8425 119.654 63.0138 119.671C61.8414 119.679 60.6392 119.754 59.4904 119.535C60.603 120.324 61.8804 120.853 63.2662 121.001C64.652 121.149 66.0347 120.884 67.3249 120.405C66.6925 120.302 66.049 120.083 65.4009 119.909ZM66.7529 116.843C66.4802 115.488 66.2074 114.133 65.9347 112.777C65.5153 114.162 65.03 115.517 65.5256 116.938C65.913 118.075 66.7728 118.864 67.7677 119.458C67.2013 118.719 66.9363 117.731 66.7529 116.843Z" fill="white"/>
<path d="M45.8159 101.377C45.8881 102.326 45.7678 103.306 45.5071 104.19C45.5071 104.19 45.5071 104.19 45.494 104.221C45.1726 105.338 44.5925 106.383 43.7624 107.25L43.7801 107.294C44.8033 110.369 45.2708 113.653 46.5565 116.616C46.2943 114.999 46.2248 113.352 46.3348 111.706C46.4743 109.558 47.1878 107.502 47.2091 105.378C47.2131 105.196 47.4801 105.16 47.5767 105.274C50.3093 108.914 49.0728 113.952 47.0538 117.67C47.8501 119.215 48.9043 120.574 50.3256 121.572C50.545 121.737 50.3314 122.162 50.0683 122.016C48.3009 120.985 47.0535 119.398 46.1514 117.587C46.1514 117.587 46.1208 117.575 46.1077 117.606C44.8201 117.584 43.5625 117.317 42.4357 116.736C41.3088 116.156 40.4222 115.345 39.601 114.377C39.5527 114.32 39.5919 114.226 39.6794 114.189C40.73 114.002 41.8296 114.13 42.8377 114.477C41.0998 112.943 39.6285 111.116 38.8219 108.904C38.7116 108.564 38.6013 108.223 38.5217 107.896C38.4467 107.644 38.2705 107.203 38.4187 106.934C38.5278 106.758 38.7204 106.729 38.9046 106.805C39.2859 106.928 39.6763 107.201 40.0314 107.386C41.4697 108.169 42.7069 109.09 43.5293 110.573C43.9823 111.387 44.291 112.288 44.6127 113.158C44.0248 110.853 43.5683 108.493 42.7617 106.281C39.401 105.615 36.3959 103.405 34.3051 100.731C34.2085 100.618 34.3045 100.474 34.4534 100.462C36.3893 100.571 38.2521 101.201 39.8882 102.288C40.4803 102.682 41.077 103.151 41.6038 103.702C40.6803 102.03 39.468 100.531 38.0592 99.2448C37.8222 99.0357 38.141 98.617 38.3779 98.8261C40.0107 100.353 41.3769 102.173 42.4545 104.167C42.1583 102.977 42.0241 101.744 42.0694 100.513C42.0518 100.469 42.0342 100.425 42.091 100.375C42.1238 99.4323 42.2311 98.4842 42.4435 97.5431C42.3514 97.5047 42.4213 97.4235 42.4781 97.3736C42.6212 96.7714 42.8081 96.1506 43.0257 95.5426C43.091 95.386 43.2706 95.3873 43.3672 95.5012C44.6936 97.1577 45.6707 99.2201 45.8159 101.377ZM43.7749 97.5467C43.8368 97.83 43.9295 98.1261 43.9915 98.4093C44.1267 98.1715 44.2005 97.9081 44.1999 97.6505C44.1823 97.6063 44.226 97.5878 44.2698 97.5693C43.9532 97.0327 43.6236 96.5275 43.2195 96.028C43.0411 96.542 42.9065 97.0375 42.7895 97.5771C43.101 97.7805 43.4124 97.9839 43.7238 98.1874C43.6664 97.9796 43.6396 97.7845 43.5822 97.5767C43.547 97.4885 43.7527 97.4272 43.7749 97.5467ZM44.3227 97.7017C44.3278 98.0348 44.1972 98.348 44.0182 98.6044C44.1291 99.2022 44.2269 99.8314 44.2633 100.435C44.5821 100.016 44.8087 99.5593 44.9433 99.0638C44.7802 98.5912 44.5733 98.1372 44.3227 97.7017ZM42.4638 100.604C42.7314 100.826 42.9991 101.048 43.2668 101.27C43.4554 101.422 43.6134 101.561 43.7714 101.701C43.8504 101.771 43.9294 101.84 44.0084 101.91C44.0163 101.546 44.0242 101.181 44.0014 100.804L43.9838 100.76C43.9747 100.609 43.9656 100.458 43.9565 100.307C43.6842 100.01 43.4558 99.6937 43.2273 99.3778C42.9988 99.0618 42.8141 98.7273 42.5857 98.4114C42.5261 99.1588 42.4796 99.8749 42.4638 100.604ZM42.8574 104.151C42.9671 104.234 43.1075 104.329 43.2171 104.412C43.3268 104.494 43.4058 104.564 43.5155 104.646C43.5769 104.672 43.6252 104.729 43.6865 104.755C43.7428 104.447 43.799 104.14 43.8552 103.832C43.6665 103.68 43.4779 103.527 43.3022 103.344C43.1266 103.16 42.9203 102.964 42.7447 102.78C42.7271 102.736 42.7839 102.686 42.8016 102.731C42.9772 102.914 43.1965 103.079 43.4159 103.244C43.5739 103.384 43.7449 103.492 43.916 103.6C43.9591 103.324 43.9716 103.035 44.0278 102.727C43.9664 102.702 43.9443 102.582 44.0011 102.532C44.0011 102.532 44.0141 102.501 44.0448 102.514C44.0533 102.407 44.0618 102.3 44.0704 102.193C43.93 102.098 43.8334 101.984 43.7237 101.902C43.535 101.749 43.377 101.61 43.1884 101.458C42.969 101.293 42.7627 101.096 42.5434 100.931C42.4713 101.968 42.5965 103.05 42.8574 104.151ZM41.7852 104.476C41.5437 104.192 41.2584 103.926 40.9731 103.66C41.0351 103.943 41.097 104.226 41.1721 104.478C41.6108 104.808 42.0495 105.138 42.4575 105.456C42.4223 105.367 42.3871 105.279 42.3518 105.191C42.1893 104.976 42.0091 104.717 41.7852 104.476ZM37.5958 101.479C37.7015 101.743 37.7896 101.964 37.8954 102.229C37.8954 102.229 37.8954 102.229 37.8823 102.26C38.3648 102.572 38.8779 102.896 39.3604 103.208C39.2194 102.855 39.0785 102.502 38.9506 102.117C38.534 101.907 38.0561 101.671 37.5958 101.479ZM40.0896 104.137C39.7043 104.197 39.3014 104.213 38.9116 104.197C39.793 104.675 40.7136 105.059 41.6603 105.38C41.4716 105.228 41.283 105.076 41.0943 104.924C41.0636 104.911 41.0022 104.885 40.9846 104.841C40.7169 104.619 40.4186 104.384 40.0896 104.137ZM45.0826 104.344C45.2479 103.861 45.3388 103.384 45.399 102.895C45.0274 103.181 44.6558 103.467 44.2666 103.709C44.2325 104.136 44.1678 104.551 44.0724 104.952C44.0855 104.921 44.1162 104.934 44.1599 104.915C44.3042 104.828 44.4485 104.741 44.5929 104.654C44.7372 104.568 44.8508 104.468 44.9951 104.381C44.9951 104.381 45.0389 104.362 45.0826 104.344ZM45.4437 101.405C45.1863 101.85 44.7755 102.23 44.3602 102.535C44.3523 102.899 44.3137 103.251 44.2751 103.603C44.6643 103.36 45.0666 103.087 45.4075 102.788C45.4546 102.329 45.471 101.858 45.4437 101.405ZM44.342 102.233C44.788 101.941 45.1988 101.561 45.4078 101.059C45.3583 100.487 45.2037 99.9079 45.036 99.3599C44.8707 99.8425 44.6133 100.287 44.2946 100.706C44.3396 101.202 44.3715 101.73 44.342 102.233ZM43.6127 105.018C43.5337 104.948 43.4547 104.879 43.345 104.796C43.2354 104.713 43.1564 104.644 43.0467 104.561C42.9853 104.536 42.9677 104.492 42.9063 104.466C43.0257 104.957 43.1758 105.461 43.3696 105.946C43.4696 105.62 43.5565 105.325 43.6127 105.018ZM44.9259 104.72C44.8384 104.757 44.7378 104.825 44.681 104.875C44.5367 104.962 44.3923 105.049 44.248 105.136C44.1605 105.173 44.1037 105.223 44.0162 105.26C43.9253 105.737 43.8168 106.17 43.6646 106.621C43.6822 106.665 43.7175 106.753 43.7351 106.797C44.2504 106.167 44.656 105.453 44.9259 104.72ZM42.2392 113.234C42.1471 113.196 42.0551 113.158 41.963 113.119C42.2176 113.372 42.4898 113.67 42.7882 113.905C42.924 113.924 43.0291 113.932 43.1649 113.951C43.27 113.958 43.3445 113.953 43.4496 113.96C43.4496 113.96 43.4496 113.96 43.4803 113.973C43.4934 113.941 43.4757 113.897 43.5019 113.834C43.4359 113.733 43.3393 113.62 43.2734 113.519C43.2734 113.519 43.2734 113.519 43.2427 113.506C42.866 113.459 42.546 113.362 42.2392 113.234ZM45.3682 116.01C45.3989 116.023 45.4296 116.036 45.4472 116.08C45.2534 115.595 45.0596 115.109 44.8657 114.624C44.8527 114.655 44.8265 114.718 44.8442 114.762C44.818 114.825 44.7788 114.919 44.7834 114.994C44.7703 115.025 44.7573 115.057 44.7618 115.132C44.7487 115.164 44.7357 115.195 44.7226 115.226C44.9028 115.485 45.1267 115.726 45.3682 116.01ZM44.5215 115.363C44.2447 114.99 43.9679 114.617 43.6911 114.244L43.6474 114.263C43.6167 114.25 43.6167 114.25 43.586 114.237C43.5553 114.225 43.5553 114.225 43.5246 114.212C43.4633 114.186 43.4195 114.205 43.3582 114.179C43.2661 114.141 43.1917 114.146 43.0996 114.108C43.0382 114.082 42.9945 114.101 42.9331 114.075C43.3588 114.437 43.7844 114.798 44.2407 115.172C44.3504 115.255 44.4425 115.293 44.5215 115.363ZM43.765 113.981C44.0111 114.341 44.2572 114.701 44.547 115.043C44.5601 115.011 44.5731 114.98 44.5993 114.917C44.6254 114.855 44.6646 114.761 44.6907 114.698C44.7299 114.604 44.7691 114.51 44.7776 114.403C44.5264 113.71 44.2314 113.036 43.9671 112.374C43.9194 112.574 43.9023 112.788 43.8853 113.002C43.8814 113.184 43.8337 113.384 43.8297 113.567C43.8212 113.673 43.8127 113.78 43.8172 113.856C43.7604 113.906 43.7474 113.937 43.765 113.981ZM48.467 113.331C48.3403 113.462 48.2267 113.562 48.1 113.693C47.9864 113.793 47.8858 113.861 47.7722 113.961C47.7153 114.011 47.6148 114.079 47.558 114.129C47.4887 114.468 47.4194 114.806 47.3808 115.158C47.6388 114.972 47.8791 114.741 48.137 114.554C48.2762 114.134 48.3716 113.733 48.467 113.331ZM48.7311 112.007C48.6044 112.138 48.5214 112.251 48.3641 112.369C48.1805 112.55 47.9794 112.686 47.7783 112.823C47.7482 113.068 47.7181 113.313 47.6573 113.545C47.6312 113.608 47.6358 113.683 47.6227 113.714C47.6227 113.714 47.6358 113.683 47.6664 113.696C47.767 113.628 47.8806 113.528 47.9812 113.459C48.1954 113.291 48.3789 113.111 48.5624 112.93C48.5624 112.93 48.5755 112.898 48.6062 112.911C48.6493 112.635 48.7056 112.327 48.7311 112.007ZM47.8008 111.215C47.8008 111.215 47.7701 111.202 47.7832 111.17C47.6155 110.622 47.4347 110.106 47.3415 109.552C47.2971 109.313 47.2351 109.03 47.2215 108.803C47.0398 109.757 46.8273 110.698 46.7508 111.659C46.7377 111.69 46.7553 111.735 46.7553 111.735C47.019 112.139 47.2827 112.543 47.5334 112.979C47.5595 112.916 47.555 112.84 47.5811 112.778C47.5811 112.778 47.5811 112.778 47.5942 112.746C47.6236 112.244 47.6969 111.723 47.8008 111.215ZM46.6322 113.412C46.7862 113.733 46.984 114.037 47.2079 114.277C47.2511 114.001 47.3249 113.737 47.3681 113.461C47.3942 113.399 47.3897 113.323 47.4027 113.292C47.139 112.888 46.9191 112.465 46.6553 112.061C46.652 112.501 46.6356 112.972 46.6322 113.412ZM47.1517 114.585C46.9454 114.388 46.7698 114.205 46.6204 113.958C46.6346 114.442 46.6489 114.926 46.6938 115.423C46.7115 115.467 46.7421 115.48 46.7598 115.524L46.7904 115.537C46.7904 115.537 46.7905 115.537 46.8211 115.55C46.8211 115.55 46.8211 115.55 46.8518 115.563L46.8825 115.575C46.9132 115.588 46.9439 115.601 46.9308 115.632C46.9569 115.57 46.9393 115.526 46.9655 115.463C47.0393 115.2 47.0955 114.892 47.1517 114.585ZM46.7956 115.87C46.7649 115.857 46.778 115.826 46.7473 115.813C46.7564 115.964 46.7962 116.128 46.8053 116.279C46.8269 116.141 46.8354 116.034 46.8877 115.909C46.857 115.896 46.8263 115.883 46.7956 115.87ZM47.6399 106.072C47.5843 106.638 47.498 107.19 47.3986 107.774L47.4162 107.818C47.4351 108.377 47.5283 108.931 47.5909 109.472C47.6489 109.938 47.7376 110.416 47.8701 110.876C47.9609 110.399 48.0211 109.909 48.0813 109.419C48.1074 109.357 48.1818 109.351 48.1864 109.426C48.1439 109.96 48.0706 110.481 48.015 111.046C48.286 110.829 48.5264 110.598 48.7184 110.31C48.7445 110.247 48.8235 110.317 48.8104 110.349C48.6099 110.743 48.3304 111.068 48.0156 111.304C47.9509 111.718 47.9299 112.114 47.8652 112.528C48.0095 112.442 48.1231 112.342 48.2805 112.224C48.451 112.074 48.639 111.969 48.7788 111.806C48.8134 111.637 48.8174 111.455 48.852 111.285C48.9353 109.444 48.5851 107.607 47.6399 106.072ZM47.9933 114.899C47.7661 115.098 47.5388 115.298 47.2808 115.484C47.2678 115.516 47.2854 115.56 47.2723 115.591C47.1815 116.068 47.0031 116.582 46.9122 117.059C46.9475 117.147 46.939 117.254 46.9742 117.342C47.3753 116.553 47.715 115.739 47.9933 114.899ZM39.9601 114.38C41.3349 116.093 43.6364 117.053 45.7957 117.145C44.2176 116.523 42.6918 115.777 41.249 114.917C41.1393 114.835 41.2614 114.628 41.3711 114.711C42.6736 115.475 44.0283 116.113 45.3916 116.645C45.2467 116.475 45.0711 116.291 44.9261 116.12C44.5971 115.873 44.2374 115.612 43.9214 115.333C42.7286 114.652 41.3614 114.302 39.9601 114.38ZM41.7567 112.923C41.9408 113 42.1073 113.032 42.2914 113.109C42.5807 113.193 42.8569 113.308 43.133 113.423C42.8869 113.063 42.6539 112.672 42.4078 112.312C42.4078 112.312 42.3641 112.33 42.3334 112.317C42.0572 112.202 41.7373 112.106 41.448 112.022C41.2026 111.919 40.9747 111.861 40.7292 111.759C40.9577 112.075 41.1685 112.346 41.4101 112.631C41.5635 112.695 41.6601 112.809 41.7567 112.923ZM40.7137 110.759C40.4506 110.613 40.1744 110.498 39.8983 110.382C40.1182 110.805 40.395 111.178 40.6587 111.582C40.948 111.666 41.2679 111.763 41.5571 111.847C41.7543 111.892 41.9691 111.982 42.1663 112.027L42.1487 111.983C42.1617 111.952 42.1441 111.908 42.1572 111.876C42.043 111.718 41.9418 111.529 41.8275 111.371C41.8275 111.371 41.7838 111.389 41.7531 111.377C41.411 111.16 41.0689 110.944 40.7137 110.759ZM39.8323 110.281C40.1699 110.422 40.4768 110.55 40.8012 110.722C41.095 110.882 41.4195 111.054 41.7133 111.213C41.4803 110.822 41.2035 110.449 40.9574 110.089C40.9267 110.076 40.9267 110.076 40.896 110.063C40.4266 109.72 39.918 109.471 39.3833 109.285C39.4936 109.625 39.6783 109.96 39.8323 110.281ZM39.2293 108.963C39.2469 109.007 39.2469 109.007 39.2645 109.052C39.5538 109.135 39.8299 109.251 40.1061 109.366C40.2902 109.443 40.492 109.564 40.663 109.672C40.0919 108.882 39.4945 108.155 38.8097 107.464C38.8319 107.584 38.8541 107.704 38.907 107.836C38.9604 108.226 39.0883 108.61 39.2293 108.963ZM38.7654 107.225C38.7654 107.225 38.7961 107.238 38.8268 107.251C39.4633 107.884 40.0429 108.567 40.5789 109.269C40.5959 109.055 40.5515 108.816 40.5248 108.621C40.5026 108.502 40.4498 108.369 40.4276 108.25C40.3924 108.161 40.3571 108.073 40.3219 107.985C40.2605 107.959 40.1815 107.89 40.1201 107.864C39.778 107.648 39.4183 107.387 39.0063 107.252C38.8222 107.175 38.7608 107.15 38.7654 107.225ZM40.664 108.201C40.6862 108.321 40.739 108.453 40.7612 108.573C40.8232 108.856 40.8107 109.145 40.8159 109.478C40.8028 109.509 40.7897 109.541 40.7767 109.572C41.2512 110.248 41.7258 110.924 42.1566 111.619C42.1855 110.858 42.1399 110.104 42.0506 109.368C41.717 109.045 41.3527 108.709 40.9316 108.423C40.8657 108.322 40.756 108.239 40.664 108.201ZM42.3359 109.634C42.3991 110.433 42.4622 111.231 42.4203 112.023C42.7806 112.541 43.0972 113.077 43.4575 113.595C43.4706 113.564 43.4706 113.564 43.4836 113.533C43.5183 113.363 43.566 113.163 43.57 112.98C43.6392 112.641 43.6955 112.334 43.7647 111.995L43.7471 111.951C43.3947 111.068 42.9286 110.286 42.3359 109.634ZM38.6354 104.082C39.0383 104.066 39.4236 104.006 39.8088 103.946C39.7781 103.933 39.7605 103.889 39.7298 103.877C39.6861 103.895 39.6247 103.869 39.6071 103.825L39.5895 103.781C39.5105 103.711 39.4491 103.686 39.3701 103.616C39.0718 103.381 38.7603 103.178 38.4182 102.962C37.8926 102.926 37.367 102.891 36.8414 102.856C37.3591 103.255 37.8768 103.655 38.4206 103.992C38.4951 103.987 38.5871 104.025 38.6354 104.082ZM34.7869 100.785C35.3536 101.5 36.0208 102.146 36.7141 102.729C37.1783 102.739 37.6426 102.749 38.1506 102.74C37.3874 102.238 36.6549 101.748 35.9223 101.259C35.8303 101.22 35.9263 101.077 36.0184 101.115C36.5753 101.421 37.1498 101.771 37.6936 102.108C37.6055 101.887 37.5305 101.635 37.4424 101.415C36.6008 101.1 35.6893 100.867 34.7869 100.785ZM39.2313 102.308C39.4029 102.674 39.5615 103.071 39.7201 103.468C39.9219 103.589 40.1105 103.741 40.3123 103.862C40.343 103.875 40.343 103.875 40.3736 103.888C40.5447 103.996 40.7027 104.135 40.9044 104.256C40.8294 104.004 40.7981 103.734 40.7668 103.463C40.7799 103.432 40.7799 103.432 40.7929 103.401C40.4463 103.109 40.0996 102.817 39.7268 102.588C39.5427 102.511 39.3717 102.403 39.2313 102.308ZM42.664 98.2234C42.8795 98.5707 43.1255 98.9308 43.3716 99.2908C43.5518 99.5499 43.745 99.7776 43.9382 100.005C43.9155 99.628 43.862 99.238 43.7779 98.8351C43.721 98.885 43.6244 98.7711 43.6943 98.6899C43.7074 98.6586 43.7074 98.6586 43.7511 98.6401C43.7466 98.5646 43.7113 98.4764 43.7068 98.4009C43.7068 98.4009 43.663 98.4195 43.6454 98.3753C43.334 98.1719 43.0226 97.9685 42.7112 97.765C42.7203 97.9159 42.6856 98.0853 42.664 98.2234Z" fill="white"/>
<path d="M90.4148 33.9299C91.3046 33.1063 92.1945 32.2827 92.8875 31.2663C93.005 31.1105 92.7532 30.9258 92.6357 31.0817C91.9582 32.0126 91.0249 32.7317 90.1231 33.474C89.7232 33.8099 89.3547 34.1689 89.0138 34.5238C88.7824 34.6687 88.5274 34.8447 88.3 35.0167C87.947 35.2903 87.5666 35.5679 87.2097 35.8144C86.4409 36.3153 85.6052 36.743 84.7615 37.1164C84.683 37.1557 84.7305 37.2873 84.8089 37.248C85.7156 36.9208 86.5513 36.4931 87.4105 36.0342C87.6695 35.8853 87.9284 35.7364 88.1873 35.5875C88.1168 35.681 88.0738 35.7705 88.0033 35.864C87.7998 36.1987 87.6237 36.5294 87.4477 36.8601C87.3887 36.8411 87.3338 36.8492 87.2868 36.9115C87.2593 36.9155 87.2633 36.9427 87.2358 36.9467C84.5353 37.8702 82.7347 40.7121 82.7486 43.4813C82.7411 43.6209 82.9809 43.7242 83.0394 43.5494C83.4452 42.2981 84.4685 41.4272 85.3149 40.4991C85.7264 40.0506 86.1064 39.5791 86.4194 39.0343C86.6854 38.5518 86.8885 38.0231 87.2096 37.5325C86.8814 38.3567 86.6477 39.2501 86.5514 40.1233C85.6221 40.8696 84.8661 41.8398 84.2595 42.8712C83.653 43.9026 83.0663 45.0696 82.9904 46.2723C82.9828 46.412 83.2147 46.4611 83.2183 46.2943C83.3022 45.1457 83.8808 43.9245 84.4639 42.9243C85.0275 41.9824 85.6974 41.1911 86.4853 40.4379C86.4511 40.9694 86.4444 41.497 86.4927 42.0164C86.5007 42.0706 86.5087 42.1249 86.5206 42.2063C85.7057 43.1574 84.9262 44.1588 84.5359 45.3246C84.1262 46.5488 84.1801 47.871 84.2261 49.139C84.2421 49.2475 84.419 49.3047 84.4895 49.2112C85.049 48.2421 85.3688 47.1698 85.6571 46.0743C85.8207 45.4683 85.9609 44.8935 86.1245 44.2875C86.2491 43.7981 86.4327 43.3277 86.6163 42.8573C86.7918 44.0508 87.1321 45.2201 87.4725 46.3894C87.5159 46.4939 87.7043 46.4385 87.6884 46.33C87.4229 45.2882 87.1615 44.2736 87.006 43.2157C87.587 44.8761 88.6509 46.3825 88.965 48.1376C88.985 48.2732 89.2048 48.2409 89.1849 48.1053C88.8974 45.9583 87.3774 44.2142 86.9014 42.1226C86.8815 41.987 86.893 41.8744 86.8731 41.7388C87.0628 42.2651 87.3859 42.7442 87.7051 43.1961C88.5402 44.2926 89.5713 45.1941 90.0771 46.5331C90.1205 46.6376 90.3129 46.6093 90.2969 46.5008L90.293 46.4737C90.2944 45.3373 90.0524 44.2643 89.3042 43.3767C88.5165 42.4117 87.1874 41.7757 86.8586 40.4939C86.9087 40.0708 86.9629 39.6749 87.068 39.2438C87.1966 38.7815 87.3252 38.3192 87.5128 37.8759C87.3655 38.7844 87.4186 39.7188 87.8486 40.5423C88.4837 41.8069 89.9741 42.5854 91.3223 42.9692C91.4402 43.0073 91.5342 42.8826 91.4633 42.7822C90.7305 41.8091 90.0488 40.8009 89.3161 39.8278C88.6463 38.9009 87.9331 37.8696 88.0954 36.6818C88.0954 36.6818 88.0954 36.6818 88.0914 36.6547C88.1619 36.5612 88.201 36.4446 88.2715 36.3511C88.4985 35.9852 88.761 35.6695 89.0235 35.3538C88.8101 36.5767 88.9385 37.8326 89.4163 38.9817C89.4558 39.059 89.5892 39.0117 89.5498 38.9344C89.119 37.723 88.9905 36.4671 89.1724 35.221C89.5799 34.7454 89.9953 34.3241 90.4148 33.9299ZM85.5268 45.7609C85.2815 46.7669 84.9773 47.7538 84.4647 48.6606C84.4386 47.5282 84.4716 46.4149 84.8503 45.3616C85.19 44.4249 85.746 43.6226 86.3375 42.8706C85.9623 43.7571 85.78 44.8092 85.5268 45.7609ZM90.1148 45.8348C89.7004 44.9258 88.9721 44.1737 88.3027 43.4408C87.7987 42.8775 87.3337 42.1976 87.0611 41.4895C87.4827 42.0649 88.1121 42.5266 88.6592 43.0004C89.4425 43.7443 90.0418 44.7647 90.1148 45.8348ZM86.2106 38.7601C85.9055 39.3592 85.4786 39.8931 84.9926 40.4079C84.3147 41.1449 83.5778 41.8629 83.0572 42.7154C83.1961 41.5588 83.5943 40.4472 84.2953 39.4851C84.9964 38.5229 85.9571 37.7998 87.0008 37.2584C86.7033 37.7178 86.4727 38.2505 86.2106 38.7601ZM88.9268 39.6633C89.6281 40.6133 90.3294 41.5633 91.0306 42.5133C89.9139 41.9846 88.7777 41.5142 88.1625 40.3853C87.6656 39.4885 87.6595 38.4917 87.8537 37.521C87.9969 38.3036 88.4698 39.0377 88.9268 39.6633Z" fill="white"/>
<path d="M89.5701 118.79C90.5105 117.15 91.451 115.509 92.7531 114.101C92.9488 113.868 93.3175 114.186 93.1218 114.419C91.944 115.774 91.1774 117.444 90.3648 119.073C89.9942 119.798 89.5775 120.484 89.1573 121.126C89.0181 121.528 88.8397 121.977 88.6579 122.383C88.3655 123.015 88.0766 123.69 87.8269 124.318C87.3344 125.662 86.9766 127.081 86.7041 128.494C86.6719 128.627 86.4554 128.601 86.4876 128.468C86.668 126.976 87.0257 125.556 87.4226 124.09C87.5583 123.645 87.6941 123.199 87.8299 122.754C87.7124 122.894 87.5915 122.99 87.4741 123.13C87.0366 123.556 86.5956 123.939 86.1546 124.322C86.2042 124.405 86.2111 124.492 86.1328 124.585C86.1363 124.628 86.0937 124.632 86.0971 124.675C85.6378 129.101 81.9489 132.831 77.7361 133.777C77.5265 133.838 77.2857 133.509 77.531 133.359C79.2905 132.305 80.2562 130.446 81.3706 128.835C81.9082 128.053 82.4919 127.311 83.2104 126.645C83.8506 126.072 84.5829 125.579 85.2161 124.919C84.0785 125.706 82.8026 126.373 81.5093 126.825C80.7002 128.498 79.4902 129.986 78.135 131.268C76.7798 132.55 75.2116 133.85 73.4105 134.386C73.2009 134.446 73.0453 134.111 73.2975 134.047C75.0134 133.518 76.6669 132.212 77.9829 130.976C79.2172 129.791 80.1854 128.496 81.0545 127.035C80.2587 127.273 79.4595 127.468 78.6533 127.576C78.5681 127.583 78.4828 127.59 78.355 127.6C77.1945 129.171 75.9454 130.705 74.3103 131.706C72.5934 132.756 70.5653 133.137 68.6225 133.51C68.452 133.524 68.3034 133.275 68.4208 133.135C69.6977 131.946 71.2154 131.085 72.7792 130.264C73.6428 129.804 74.4673 129.39 75.331 128.929C76.0311 128.569 76.6817 128.125 77.3323 127.682C75.4573 127.833 73.5616 127.724 71.6658 127.616C71.4919 127.586 71.5102 127.281 71.6807 127.267C73.3564 127.306 74.9896 127.349 76.6515 127.215C73.9253 126.913 71.2644 125.823 68.4877 125.959C68.2746 125.976 68.2469 125.631 68.4599 125.613C71.8229 125.3 75.0044 127 78.3491 126.992C78.5621 126.975 78.7291 126.918 78.9422 126.901C78.076 126.797 77.2352 126.473 76.4369 126.146C74.4787 125.26 72.7484 124.009 70.537 123.708C70.3631 123.679 70.3388 123.376 70.5093 123.363L70.5519 123.359C72.2782 122.96 73.9931 122.953 75.6035 123.779C77.3452 124.639 78.7762 126.436 80.8389 126.488C81.4642 126.264 82.0469 126.043 82.6653 125.733C83.3228 125.376 83.9804 125.019 84.5883 124.579C83.2594 125.12 81.821 125.366 80.4192 125C78.2757 124.477 76.5717 122.485 75.5173 120.57C75.4182 120.404 75.5747 120.218 75.7521 120.291C77.4869 121.064 79.2573 121.747 80.992 122.521C82.6346 123.215 84.4511 123.938 86.1992 123.276C86.1992 123.276 86.1992 123.276 86.2418 123.272C86.3592 123.133 86.5228 123.033 86.6402 122.893C87.1169 122.42 87.5048 121.911 87.8928 121.401C86.109 122.153 84.1558 122.397 82.2427 122.073C82.1113 122.04 82.1366 121.82 82.2679 121.853C84.2593 122.084 86.2126 121.841 88.0424 121.129C88.6227 120.343 89.1177 119.565 89.5701 118.79ZM73.3009 130.353C71.8581 131.077 70.4647 131.884 69.2661 132.98C70.9959 132.624 72.6761 132.185 74.1443 131.241C75.4489 130.397 76.4736 129.272 77.4096 128.11C76.1936 128.99 74.6586 129.635 73.3009 130.353ZM71.585 123.407C73.1111 123.719 74.5084 124.563 75.8562 125.324C76.8883 125.892 78.084 126.361 79.2553 126.528C78.2336 126.089 77.312 125.293 76.4008 124.628C74.9965 123.698 73.2365 123.144 71.585 123.407ZM83.6999 126.866C82.8962 127.539 82.2342 128.375 81.6218 129.293C80.7388 130.581 79.9054 131.952 78.792 133.041C80.501 132.425 82.0509 131.432 83.2679 130.03C84.4848 128.629 85.2479 126.916 85.7057 125.141C85.1116 125.753 84.3827 126.29 83.6999 126.866ZM81.378 123.055C79.6894 122.321 78.0007 121.588 76.312 120.854C77.5057 122.366 78.6176 123.928 80.5481 124.469C82.0846 124.91 83.6013 124.571 85.0085 123.936C83.7693 123.993 82.4884 123.53 81.378 123.055Z" fill="white"/>
<path d="M89.7652 109.69C89.7631 109.71 89.7631 109.71 89.7611 109.73C88.5097 109.645 87.24 109.742 85.9991 109.964C84.568 110.229 83.1431 110.636 81.8226 111.238C81.1071 111.575 80.449 111.958 79.8236 112.425C79.7337 112.498 79.7808 112.646 79.9035 112.658C82.7417 112.984 85.6427 112.48 88.204 111.247C88.8765 110.927 89.5142 110.542 90.113 110.133C90.1335 110.135 90.1744 110.139 90.1948 110.141C90.2766 110.15 90.3216 110.113 90.3686 110.057C91.1274 110.521 91.9128 110.927 92.7206 111.314C92.8577 111.389 92.9434 111.153 92.8044 111.098C91.9392 110.664 91.0986 110.191 90.3029 109.683C90.6313 108.266 90.6734 106.821 90.695 105.374C90.7187 103.907 90.4602 102.37 90.0872 100.944C89.8802 100.128 89.6119 99.3044 89.2986 98.5176C89.2515 98.37 89.0184 98.4282 89.0042 98.5697C88.8295 100.512 88.6548 102.454 88.7479 104.403C88.8266 106.084 89.1343 107.748 89.7404 109.32C89.7404 109.32 89.7404 109.32 89.7384 109.34C88.8875 108.765 88.059 108.171 87.2796 107.501C87.3021 107.482 87.3246 107.464 87.3287 107.424C87.2121 103.86 87.0852 100.193 85.6663 96.8458C85.2978 95.9922 84.8454 95.1506 84.2806 94.3997C84.1701 94.2661 83.9739 94.3688 83.9781 94.5326C84.4565 97.9897 85.1026 101.423 85.8959 104.83C86.0394 105.457 86.1849 106.064 86.3488 106.692C85.4589 105.888 84.6365 105.03 83.861 104.115C83.8058 104.048 83.7505 103.981 83.6953 103.915C83.7239 103.836 83.734 103.735 83.7217 103.652C83.701 103.242 83.6783 102.851 83.6372 102.439C83.5549 101.614 83.4093 100.803 83.2207 100.009C82.862 98.4417 82.3131 96.9167 81.5925 95.4562C81.179 94.6388 80.7226 93.8376 80.2008 93.0707C80.1291 92.9614 79.937 93.0237 79.9452 93.147C79.9137 95.1035 79.8412 97.0559 80.1838 98.9888C80.4115 100.216 80.7209 101.452 81.5291 102.452C82.0263 103.053 82.6584 103.545 83.3171 103.979C84.2726 105.157 85.3406 106.244 86.5005 107.238C86.4984 107.259 86.4984 107.259 86.5168 107.281C84.0873 106.383 81.3349 106.025 78.7854 106.319C78.6812 106.329 78.6444 106.489 78.7426 106.54C80.9293 108.209 84.148 108.859 86.7359 107.772C86.7748 107.797 86.8381 107.783 86.8811 107.767C86.9404 107.793 86.9833 107.777 87.0262 107.761C87.0671 107.765 87.1305 107.751 87.1714 107.755C87.9672 108.468 88.8529 109.108 89.7652 109.69ZM80.2775 112.43C82.4562 110.894 85.2529 110.195 87.8884 110.073C88.1992 110.063 88.51 110.053 88.8187 110.064C88.0276 110.332 87.2508 110.662 86.4801 110.931C85.2597 111.36 84.0433 111.543 82.7879 111.703C82.6837 111.713 82.7103 111.858 82.8146 111.849C84.0413 111.768 85.2517 111.645 86.4292 111.232C87.4983 110.87 88.4795 110.357 89.5834 110.059C89.6652 110.068 89.747 110.076 89.8288 110.084C86.9857 111.86 83.6166 112.705 80.2775 112.43ZM89.0628 104.353C88.9861 102.651 89.116 100.949 89.2663 99.2492C89.8295 100.837 90.2006 102.487 90.3631 104.157C90.4536 105.105 90.4807 106.067 90.4261 107.021C90.3816 107.874 90.2553 108.718 90.127 109.583C90.127 109.583 90.127 109.583 90.1066 109.581C90.0902 109.539 90.0718 109.517 90.0758 109.476C90.0817 109.007 90.0282 108.512 90.0137 108.041C89.9949 107.406 89.9761 106.772 89.9389 106.115C89.883 104.823 89.8679 103.535 89.8528 102.248C89.8446 102.124 89.6605 102.106 89.6688 102.229C89.7043 103.519 89.7214 104.786 89.7365 106.074C89.7573 106.688 89.7556 107.321 89.756 107.933C89.7581 108.117 89.7603 108.301 89.7399 108.503C89.3384 107.156 89.1065 105.765 89.0628 104.353ZM80.9946 100.989C80.3967 99.541 80.2097 97.9095 80.1802 96.3552C80.147 95.4536 80.1751 94.5583 80.2256 93.6448C81.7217 96.0203 82.7823 98.6174 83.246 101.399C83.3097 101.794 83.3733 102.188 83.4144 102.6C83.437 102.786 83.4576 102.993 83.4802 103.179C83.4761 103.219 83.4742 103.443 83.4968 103.629C82.9648 102.963 82.4553 102.279 81.9703 101.557C81.8434 101.381 81.5736 101.599 81.7005 101.775C81.987 102.212 82.3144 102.653 82.6234 103.072C81.9156 102.511 81.3427 101.841 80.9946 100.989ZM84.7445 97.3859C84.6316 96.66 84.5207 95.914 84.4079 95.1882C86.1392 97.8936 86.7218 101.137 86.9404 104.302C87.0044 105.309 87.0459 106.334 87.0894 107.338C87.071 107.316 87.0526 107.294 87.0321 107.292C86.8262 104.822 86.4547 102.355 85.9135 99.9326C85.9011 99.8497 85.7744 99.8778 85.7867 99.9607C86.2399 102.231 86.5459 104.528 86.7067 106.83C85.9279 103.69 85.2514 100.56 84.7445 97.3859ZM79.1536 106.561C80.3988 106.502 81.6563 106.527 82.8975 106.713C84.0569 106.891 85.1837 107.188 86.2798 107.584C85.7196 107.609 85.1635 107.594 84.6093 107.559C83.7485 107.492 82.8978 107.325 82.0512 107.117C81.9899 107.111 81.9613 107.19 82.0226 107.196C83.3314 107.532 84.7342 107.755 86.1143 107.792C83.7613 108.392 81.1439 107.924 79.1536 106.561Z" fill="white"/>
<path d="M60.618 9.92395C67.57 9.92395 73.258 10.9773 77.682 13.084C82.2114 15.0853 86.214 17.4553 89.69 20.194C91.7967 21.774 93.3767 21.9846 94.43 20.826C95.5887 19.562 96.3787 16.6653 96.8 12.136H100.434C100.223 16.0333 100.065 20.7733 99.96 26.356C99.8547 31.9386 99.802 39.312 99.802 48.476H96.168C95.4307 43.9466 94.746 40.3653 94.114 37.732C93.482 34.9933 92.692 32.676 91.744 30.78C90.9014 28.884 89.7427 26.988 88.268 25.092C85.0027 20.7733 80.8947 17.666 75.944 15.77C70.9934 13.7686 65.7794 12.768 60.302 12.768C55.1407 12.768 50.4534 14.0846 46.24 16.718C42.132 19.246 38.5507 22.9326 35.496 27.778C32.5467 32.6233 30.2294 38.4693 28.544 45.316C26.964 52.1626 26.174 59.852 26.174 68.384C26.174 77.232 27.0694 85.0793 28.86 91.926C30.6507 98.6673 33.126 104.355 36.286 108.99C39.5514 113.625 43.3434 117.153 47.662 119.576C52.086 121.893 56.826 123.052 61.882 123.052C66.622 123.052 71.5727 122.104 76.734 120.208C81.8954 118.312 85.9507 115.257 88.9 111.044C91.2174 107.989 92.7974 104.671 93.64 101.09C94.588 97.5086 95.4307 92.5053 96.168 86.08H99.802C99.802 95.6653 99.8547 103.407 99.96 109.306C100.065 115.099 100.223 119.997 100.434 124H96.8C96.3787 119.471 95.6414 116.627 94.588 115.468C93.64 114.309 92.0074 114.467 89.69 115.942C85.7927 118.681 81.632 121.103 77.208 123.21C72.8894 125.211 67.3067 126.212 60.46 126.212C50.4534 126.212 41.658 123.947 34.074 119.418C26.5954 114.889 20.7494 108.358 16.536 99.826C12.428 91.294 10.374 81.024 10.374 69.016C10.374 57.2186 12.5334 46.896 16.852 38.048C21.1707 29.2 27.0694 22.3006 34.548 17.35C42.132 12.3993 50.822 9.92395 60.618 9.92395Z" fill="white"/>
<path d="M71.9616 12.5363C73.7078 13.7793 75.4916 15.0472 77.4971 15.8402C78.4811 16.2242 79.5068 16.5006 80.5608 16.6065C81.5156 16.7004 82.5562 16.7432 83.5635 16.6285C84.7218 17.0744 85.9325 17.3116 87.1541 17.4477C88.5433 17.6142 90.0868 17.748 91.4435 18.2176C87.5936 17.8484 83.754 19.3533 79.9317 19.5707C79.7399 19.5785 79.6216 19.9327 79.8576 19.9815C79.8884 19.9749 79.8884 19.9749 79.926 19.9999C84.2045 20.8708 88.9132 20.7289 92.9596 18.9827C93.4166 19.3138 93.8561 19.7144 94.2164 20.1977C94.4374 20.48 94.8092 20.105 94.6191 19.8161C94.3847 19.4707 94.0953 19.1699 93.8126 18.9007C93.8368 18.8626 93.8234 18.7996 93.7859 18.7747C93.7042 18.6932 93.6158 18.5803 93.5649 18.4923C93.5515 18.4293 93.5007 18.3413 93.4323 18.3229C93.4323 18.3229 93.3947 18.2979 93.3881 18.2664C93.3814 18.2349 93.3747 18.2034 93.368 18.1719C92.5365 16.8339 91.6366 15.4774 90.3956 14.4895C89.0046 13.4017 87.662 12.2378 86.4227 10.9533C86.2592 10.7904 86.0391 10.9687 86.1167 11.1827C86.6931 12.8381 87.9766 14.1792 89.2442 15.2931C90.3109 16.2192 91.4634 17.0942 92.5609 18.0138C91.1574 17.3236 89.4947 17.0834 87.9821 16.9431C87.4859 16.8837 87.0273 16.8492 86.5311 16.7897C86.3435 16.6649 86.1626 16.5716 85.9749 16.4467C85.0499 14.6677 84.094 12.8951 82.8013 11.3586C81.5086 9.82199 79.9341 8.47681 78.9474 6.71081C78.8523 6.56636 78.6497 6.67513 78.714 6.82611C79.4965 8.99749 80.5741 11.0405 81.9336 12.8921C82.5724 13.7772 83.2797 14.6807 84.0836 15.432C84.5231 15.8327 84.9935 16.2268 85.5122 16.5448C85.5188 16.5763 85.5255 16.6078 85.5564 16.6013C85.0844 16.5038 84.6124 16.4063 84.1646 16.2707C84.1579 16.2392 84.1204 16.2143 84.052 16.1958C83.9903 16.2089 83.9528 16.1839 83.8911 16.197C83.8536 16.1721 83.8227 16.1786 83.7544 16.1602C82.5344 15.7274 81.2985 15.0676 80.2586 14.2675C80.146 14.1926 79.9876 14.3578 80.076 14.4708C80.6656 14.9713 81.2419 15.4088 81.8973 15.7636C78.521 15.1953 75.2096 14.0207 72.1858 12.2255C71.9607 12.0757 71.7364 12.3865 71.9616 12.5363ZM86.7668 20.0316C84.9682 20.2152 83.1538 20.1718 81.3785 19.8567C84.6538 19.4918 87.8922 18.3447 91.1818 18.5035C90.1528 18.8203 89.0864 19.1121 88.0241 19.2714C87.9624 19.2845 87.9824 19.379 88.0441 19.3659C89.4658 19.2292 90.8608 18.9666 92.2291 18.5779C92.2975 18.5963 92.3658 18.6147 92.4275 18.6016C90.5815 19.322 88.7263 19.8468 86.7668 20.0316ZM86.9581 11.959C87.9872 12.8602 88.9547 13.7744 90.0013 14.606C90.6592 15.1249 91.2247 15.6635 91.6934 16.3542C91.8836 16.6431 92.067 16.9004 92.2572 17.1893C91.4599 16.4695 90.6143 15.8257 89.7929 15.1439C88.6954 14.2243 87.7013 13.1841 86.9581 11.959ZM77.5646 15.398C76.7174 15.0508 75.8876 14.6341 75.1063 14.1413C77.1318 15.0288 79.2165 15.7392 81.3471 16.2094C81.1177 16.1922 80.926 16.1999 80.7275 16.1761C79.6427 16.0768 78.5861 15.8069 77.5646 15.398ZM82.1645 12.6127C81.1211 11.1879 80.2428 9.62936 79.4813 8.01316C80.3787 9.20556 81.4036 10.2393 82.3561 11.3871C83.3085 12.5349 84.065 13.823 84.7907 15.1176C84.0834 14.2141 83.3828 13.3421 82.6756 12.4386C82.6314 12.3821 82.5522 12.4647 82.5964 12.5212C83.3303 13.5507 84.0643 14.5803 84.7916 15.5783C84.5906 15.3904 84.3896 15.2026 84.1886 15.0148C83.453 14.2818 82.7658 13.4728 82.1645 12.6127Z" fill="white"/>
<path d="M90.9075 29.8093C92.059 30.189 93.2106 30.5686 94.4354 30.6827C94.6287 30.7101 94.6683 30.4003 94.4751 30.373C93.3325 30.2311 92.2513 29.7629 91.1652 29.3333C90.6776 29.1461 90.1851 28.9976 89.7094 28.8712C89.4706 28.7389 89.1931 28.6011 88.9325 28.4854C88.5222 28.3091 88.0951 28.1108 87.7066 27.9179C86.896 27.4879 86.1171 26.9638 85.3817 26.4065C85.3094 26.3569 85.2172 26.4621 85.2896 26.5117C86.015 27.1465 86.7939 27.6705 87.6115 28.2C87.8672 28.3545 88.1228 28.5089 88.3785 28.6633C88.2626 28.6469 88.1635 28.6526 88.0475 28.6362C87.6561 28.6202 87.2815 28.6264 86.9069 28.6325C86.895 28.5717 86.8613 28.5275 86.784 28.5166C86.7672 28.4945 86.7454 28.5111 86.7285 28.4891C84.6127 26.5737 81.2543 26.3746 78.8383 27.7279C78.7124 27.7889 78.7382 28.0488 78.9196 28.0153C80.2108 27.7643 81.4684 28.2378 82.6903 28.5289C83.2819 28.6717 83.8785 28.7758 84.5067 28.7858C85.0577 28.7849 85.6186 28.7066 86.2033 28.7498C85.3233 28.8619 84.4285 29.0901 83.6178 29.4287C82.5149 28.9771 81.2999 28.7856 80.1038 28.7544C78.9077 28.7232 77.6026 28.7751 76.5135 29.2912C76.3876 29.3522 76.457 29.5788 76.6046 29.5012C77.6501 29.0183 78.9989 28.9332 80.1563 28.9589C81.2533 28.9958 82.2701 29.1987 83.3106 29.5233C82.829 29.7508 82.3642 30.0004 81.9332 30.2942C81.8896 30.3274 81.846 30.3607 81.7806 30.4106C80.5537 30.1582 79.3001 29.9612 78.0911 30.1844C76.8217 30.4188 75.691 31.1063 74.6039 31.7606C74.5167 31.8272 74.5524 32.0096 74.6683 32.026C75.7871 32.0462 76.8802 31.8067 77.9782 31.5284C78.5876 31.378 79.1584 31.2223 79.7679 31.0719C80.2564 30.944 80.7569 30.8768 81.2573 30.8096C80.2981 31.5411 79.4399 32.4052 78.5817 33.2693C78.5113 33.3579 78.6511 33.4959 78.7383 33.4294C79.5212 32.6926 80.2822 31.9725 81.1325 31.3241C79.9611 32.6366 79.1585 34.2969 77.7751 35.4217C77.6661 35.5048 77.8008 35.6816 77.9099 35.5985C79.649 34.3071 80.4388 32.1326 82.0382 30.7032C82.1472 30.6201 82.2513 30.5757 82.3603 30.4926C81.9917 30.9134 81.729 31.4281 81.4882 31.9262C80.9333 33.188 80.644 34.5267 79.7174 35.6176C79.647 35.7062 79.765 35.8608 79.8522 35.7943L79.874 35.7777C80.8689 35.2286 81.6904 34.4973 82.1047 33.4128C82.5674 32.2562 82.4802 30.7854 83.4424 29.877C83.8368 29.7159 84.2095 29.5715 84.6376 29.4547C85.1043 29.3433 85.5711 29.232 86.0497 29.1814C85.1836 29.4925 84.3918 29.9915 83.8795 30.7665C83.0808 31.9347 83.1214 33.6157 83.4385 34.981C83.4623 35.1027 83.6169 35.1245 83.6704 35.0138C84.1669 33.9015 84.7189 32.8167 85.2153 31.7044C85.7019 30.6695 86.2588 29.546 87.3766 29.1129C87.3766 29.1129 87.3766 29.1129 87.3984 29.0962C87.5144 29.1126 87.6353 29.0903 87.7512 29.1067C88.1813 29.1281 88.5846 29.2049 88.988 29.2816C87.8147 29.6872 86.7781 30.4078 86.0041 31.3824C85.9556 31.4543 86.0616 31.5482 86.1102 31.4762C86.9614 30.5126 87.998 29.792 89.1763 29.3477C89.7897 29.4738 90.3595 29.6333 90.9075 29.8093ZM78.1893 31.2626C77.1903 31.5352 76.1795 31.747 75.138 31.7376C76.1161 31.1665 77.1061 30.6561 78.211 30.4773C79.1951 30.3208 80.1663 30.4188 81.1107 30.572C80.1534 30.6732 79.1446 31.0232 78.1893 31.2626ZM80.3467 35.3124C80.9413 34.5096 81.2465 33.5082 81.5636 32.5676C81.8123 31.8538 82.1819 31.1177 82.6695 30.5363C82.3702 31.1838 82.2711 31.9581 82.1215 32.6662C81.85 33.7118 81.2475 34.7303 80.3467 35.3124ZM84.6455 28.4704C83.9736 28.4936 83.2997 28.3786 82.614 28.2028C81.6408 27.9666 80.6558 27.6696 79.6578 27.627C80.737 27.1884 81.9024 26.9984 83.0837 27.1458C84.2649 27.2931 85.3629 27.7835 86.342 28.4344C85.796 28.3966 85.2183 28.4528 84.6455 28.4704ZM85.1707 31.2842C84.6792 32.3578 84.1877 33.4314 83.6962 34.505C83.6179 33.272 83.4791 32.0501 84.1688 30.9651C84.7129 30.096 85.582 29.608 86.5254 29.3078C85.91 29.812 85.4968 30.5814 85.1707 31.2842Z" fill="white"/>
<path d="M82.0163 24.2014C81.9415 24.221 81.8602 24.2158 81.7606 24.242C81.7356 24.2485 81.7356 24.2485 81.7042 24.2303C81.0768 23.9707 80.5047 23.6171 79.9445 23.2074C79.7808 23.0913 79.6421 22.9686 79.4785 22.8525C79.4969 22.8212 79.4904 22.7964 79.5088 22.765C79.3365 21.803 78.4988 21.148 77.6396 20.8167C76.5982 20.4006 75.4497 20.4898 74.3499 20.4601C74.2188 20.468 74.1831 20.6364 74.2774 20.6912C75.1334 21.3149 75.971 21.9699 76.8888 22.5244C77.5867 22.951 78.3961 23.2954 79.2055 23.0301C79.2304 23.0236 79.2304 23.0236 79.2553 23.017C79.4883 23.1945 79.7148 23.3472 79.9412 23.4998C80.2999 23.7503 80.677 23.9695 81.0541 24.1887C80.8103 24.1731 80.5849 24.1262 80.3411 24.1106C78.5024 23.9037 76.656 23.5662 75.0534 22.6347C74.8399 22.5316 74.7175 22.7758 74.8681 22.8423C76.6343 23.8899 78.6248 24.2691 80.6326 24.5113C79.9912 24.706 79.3942 24.9686 78.7593 25.1881C77.9498 24.8437 77.0743 24.7552 76.2064 24.7973C75.1825 24.8538 74.2106 25.1087 73.2127 25.2643C73.1379 25.2839 73.1076 25.3714 73.152 25.4393C73.6235 26.3229 74.6214 26.7768 75.5717 26.8457C76.7658 26.9301 78.0345 26.3854 78.8948 25.6031C78.963 25.5587 78.8807 25.4478 78.8124 25.4922C77.8373 26.0395 76.8687 26.6116 75.6941 26.6015C74.8067 26.5692 73.9344 26.1883 73.4208 25.4483C74.2865 25.1948 75.2096 25.0587 76.1024 25.0101C76.8891 24.9629 77.6833 25.0461 78.4169 25.3044C77.4396 25.6402 76.4482 25.8207 75.396 25.5665C75.3148 25.5613 75.291 25.6735 75.3722 25.6787C76.3875 25.9956 77.4169 25.8582 78.4072 25.572C78.5318 25.5393 78.6813 25.5001 78.7994 25.4426C78.8308 25.4609 78.8557 25.4543 78.8872 25.4726C78.9814 25.5274 79.0616 25.4269 79.067 25.3459C79.8764 25.0807 80.6478 24.7723 81.4767 24.5815C82.1333 24.6478 82.765 24.7207 83.4282 24.8119C82.7488 24.9635 82.1735 25.512 81.7098 25.9782C81.543 26.1544 81.3761 26.3307 81.1778 26.4887C79.2936 26.7178 77.5395 27.4429 76.0085 28.613C75.9403 28.6574 75.9295 28.8193 76.0422 28.8428C77.2568 29.1074 78.6026 29.3641 79.7966 28.8389C80.7544 28.4287 81.5008 27.5173 81.6524 26.4703C81.6708 26.439 81.6578 26.3894 81.6264 26.3711C81.9417 26.0499 82.2505 25.7039 82.6037 25.4257C82.9319 25.1541 83.3177 24.9999 83.7348 24.864C83.8161 24.8692 83.8973 24.8744 83.9602 24.9109C86.5694 25.3134 89.171 26.195 91.3295 27.7229C90.492 27.6775 89.6999 27.8057 88.9274 28.0083C88.807 27.2446 88.0464 26.7815 87.3637 26.6159C86.4492 26.3787 85.487 26.3659 84.5671 26.2096C84.4295 26.1927 84.3558 26.318 84.4382 26.4289C84.9757 27.0566 85.7364 27.5198 86.4829 27.8276C86.9911 28.0389 87.5362 28.1876 88.0931 28.2801C87.9002 28.3571 87.7258 28.4029 87.5329 28.48C87.4636 28.4186 87.3758 28.3886 87.2891 28.4644C87.2458 28.5023 87.1841 28.5715 87.1472 28.6341C86.2328 29.0065 85.3313 29.4284 84.4168 29.8008C84.4288 29.7446 84.4093 29.6702 84.3464 29.6337C82.3786 28.4269 79.9918 30.1925 78.1303 30.8132C78.0556 30.8328 78.0501 30.9138 78.113 30.9503C80.2043 32.0187 83.3986 32.2148 84.7625 30.0017C84.7809 29.9703 84.7744 29.9455 84.7744 29.9455C85.4094 29.726 86.0378 29.4817 86.6597 29.2126C86.6846 29.206 86.7095 29.1995 86.7594 29.1864C85.9262 30.1736 85.2253 31.2586 84.675 32.4101C84.6013 32.5355 84.753 32.7077 84.8896 32.6189C85.6718 32.1487 86.479 31.672 87.0337 30.9434C87.4963 30.3715 87.8007 29.6025 87.6803 28.8389C89.0434 28.3489 90.5137 27.9634 91.9461 28.1443C92.0534 28.2487 92.1791 28.3218 92.2864 28.4262C93.5531 29.4988 94.5729 30.8482 95.2134 32.3766C95.2914 32.6742 95.6826 32.4391 95.5861 32.1729C94.4969 29.5429 92.2397 27.5372 89.7464 26.2562C89.444 26.0174 89.2284 25.7028 89.0311 25.357C90.406 24.2013 90.7038 22.1882 90.6364 20.5095C90.6288 20.379 90.4847 20.3373 90.3981 20.413C89.2962 21.3911 88.5801 22.8247 88.4329 24.2946C88.2043 23.9305 87.9258 23.5794 87.6104 23.291C87.5725 23.248 87.5346 23.2049 87.4966 23.1618C87.076 21.1517 85.0367 19.672 83.0029 19.9403C82.9531 19.9534 82.8848 19.9978 82.9043 20.0722C83.2393 21.0446 83.8667 21.9138 84.6913 22.5192C85.4282 23.0946 86.4012 23.5551 87.3504 23.5182C87.3753 23.5117 87.4068 23.53 87.4317 23.5234C87.4761 23.5913 87.539 23.6278 87.5834 23.6957C87.9247 24.0833 88.1913 24.4905 88.4146 24.9355C88.4092 25.0165 88.4287 25.0909 88.4168 25.147C88.4179 25.2528 88.5121 25.3075 88.6118 25.2814C88.7137 25.4667 88.8221 25.6769 88.9488 25.8557C87.7125 25.3052 86.409 24.9049 85.0881 24.6416C84.8942 24.613 84.6937 24.5595 84.4997 24.5309C84.0847 24.2686 83.6881 23.975 83.3164 23.6749C83.1084 23.4909 82.9188 23.2756 82.7291 23.0603C82.7475 23.0289 82.7724 23.0224 82.7659 22.9976C83.0497 22.0485 82.4028 21.1049 81.6789 20.5791C80.7351 19.9254 79.5541 19.8905 78.5062 19.4497C78.387 19.4014 78.3069 19.502 78.3329 19.6012C78.7035 20.4051 79.3234 21.1438 79.992 21.7636C80.6606 22.3835 81.4094 22.9028 82.2502 23.2654C82.338 23.2954 82.4366 23.1635 82.3423 23.1087C81.5697 22.7017 80.8209 22.1824 80.1838 21.5808C79.6159 21.0406 79.1597 20.4181 78.7219 19.7642C79.0979 19.8776 79.4739 19.9911 79.8499 20.1045C80.3386 20.2414 80.8338 20.4031 81.2553 20.6902C81.9845 21.1351 82.561 21.9116 82.4452 22.7902C82.2426 22.5252 82.0832 22.2224 81.8557 21.964C81.7798 21.8779 81.6184 21.9733 81.6444 22.0725C81.7853 22.4066 82.0324 22.7394 82.2664 23.0226C82.5135 23.3554 82.8039 23.6503 83.1128 23.9139C83.3522 24.1161 83.5852 24.2936 83.8431 24.4645C83.2613 24.3785 82.6859 24.3174 82.1105 24.2562C82.104 24.2314 82.0661 24.1884 82.0163 24.2014ZM76.8292 22.1955C76.1184 21.7192 75.4259 21.2117 74.7086 20.7106C75.6144 20.7116 76.5138 20.6878 77.3849 20.963C78.2247 21.2199 78.9681 21.8201 79.1892 22.6633C79.057 22.5655 78.8934 22.4493 78.7612 22.3515C78.3711 22.0827 77.9246 21.8022 77.4923 21.677C77.3796 21.6535 77.3373 21.7971 77.4316 21.8519C77.8716 22.1077 78.2985 22.3138 78.72 22.6008C78.8208 22.6804 78.9465 22.7535 79.0473 22.8331C78.2433 23.0174 77.4707 22.6104 76.8292 22.1955ZM79.6633 28.6353C78.6123 29.0965 77.4486 28.9245 76.3531 28.7082C77.7356 27.683 79.3901 26.9841 81.0858 26.6454C80.6221 27.1116 80.1204 27.5347 79.4541 27.736C79.3046 27.7752 79.3631 27.9984 79.5126 27.9592C80.2104 27.7762 80.7554 27.3152 81.2689 26.836C81.0143 27.5919 80.4466 28.2708 79.6633 28.6353ZM81.7039 31.4399C80.5553 31.5291 79.5151 31.2187 78.437 30.8653C78.9657 30.6471 79.5259 30.4472 80.086 30.2473C80.5465 30.0736 80.9821 29.9063 81.4556 29.7822C82.3462 29.5221 83.3322 29.4225 84.1806 29.9157C83.2098 30.2763 82.213 30.5377 81.1512 30.5511C81.1262 30.5577 81.1143 30.6138 81.1393 30.6073C82.3268 30.6669 83.4547 30.3976 84.5566 30.0291C83.8654 30.8466 82.796 31.339 81.7039 31.4399ZM86.6054 27.5835C86.0029 27.3174 85.4741 26.9259 84.9702 26.528C85.2703 26.5553 85.5521 26.6139 85.8273 26.6478C86.2401 26.6985 86.6529 26.7493 87.0474 26.8314C87.7798 26.9839 88.4397 27.3675 88.6847 28.0984C88.6598 28.105 88.6349 28.1115 88.6099 28.118C87.9284 28.0582 87.2392 27.8678 86.6054 27.5835ZM86.6826 30.8234C86.2568 31.3327 85.7173 31.7127 85.1463 32.0745C85.753 30.9347 86.4918 29.8927 87.3629 28.9487C87.3878 28.9421 87.3878 28.9421 87.4127 28.9356C87.4074 29.6261 87.1517 30.2763 86.6826 30.8234ZM84.8343 22.4552C84.0726 21.8863 83.4646 21.0915 83.1427 20.1687C84.8471 20.0663 86.5083 21.221 87.0621 22.8252C86.3502 22.2432 85.5462 21.8179 84.6815 21.5676C84.5374 21.5258 84.4832 21.7256 84.6273 21.7673C85.6177 22.0907 86.4857 22.6583 87.2052 23.3708C87.2117 23.3956 87.2182 23.4204 87.2247 23.4452C86.8617 23.3813 86.4922 23.2927 86.1661 23.1662C85.6709 23.0045 85.2309 22.7488 84.8343 22.4552ZM90.3277 20.8556C90.2736 21.6649 90.2693 22.4612 90.0527 23.2602C89.8415 23.9782 89.4862 24.6545 88.8979 25.1534C88.8339 25.0111 88.745 24.8754 88.6811 24.7331C88.6723 23.2776 89.2572 21.8519 90.3277 20.8556Z" fill="white"/>
<path d="M16.2712 24.3999C16.2325 24.4668 16.1716 24.5209 16.12 24.6101C16.1071 24.6324 16.1072 24.6324 16.0721 24.6419C15.4461 24.9049 14.7923 25.0626 14.1069 25.1722C13.9093 25.2067 13.7245 25.2189 13.5269 25.2534C13.5176 25.2183 13.4954 25.2055 13.4861 25.1703C12.6813 24.6157 11.6265 24.7498 10.7864 25.1271C9.75794 25.574 9.01295 26.4527 8.21787 27.2131C8.1312 27.3118 8.22568 27.4557 8.33096 27.4273C9.37651 27.2581 10.4314 27.124 11.4712 26.8623C12.2654 26.6668 13.0797 26.3341 13.4609 25.5724C13.4738 25.5501 13.4738 25.5501 13.4867 25.5278C13.7767 25.4872 14.0446 25.4337 14.3124 25.3803C14.7428 25.3018 15.1639 25.1881 15.585 25.0745C15.4023 25.2367 15.2104 25.3638 15.0277 25.5261C13.5866 26.6867 12.0474 27.7609 10.2578 28.2438C10.0343 28.3229 10.1216 28.5817 10.2749 28.5216C12.2622 28.0041 13.9325 26.8569 15.5175 25.6009C15.2044 26.1937 14.9708 26.8026 14.6799 27.4081C13.8656 27.7408 13.1866 28.3005 12.6057 28.9467C11.9252 29.7138 11.4222 30.5837 10.8305 31.4022C10.7918 31.4691 10.8326 31.5522 10.9121 31.5684C11.8716 31.8553 12.8964 31.4658 13.6141 30.8392C14.5145 30.0504 15.0204 28.7656 15.0701 27.604C15.0866 27.5243 14.9499 27.5047 14.9334 27.5844C14.6359 28.6623 14.3606 29.7531 13.5268 30.5804C12.8793 31.1881 11.9948 31.5397 11.1076 31.3838C11.5368 30.5904 12.0898 29.8388 12.6837 29.1703C13.2037 28.5782 13.8218 28.0726 14.5216 27.7332C14.0723 28.6638 13.5028 29.4952 12.5817 30.0637C12.5208 30.1178 12.5838 30.2137 12.6447 30.1597C13.5844 29.6614 14.2112 28.8334 14.7048 27.9285C14.7693 27.8169 14.8467 27.6831 14.889 27.5588C14.9241 27.5493 14.937 27.527 14.9721 27.5175C15.0773 27.4891 15.0623 27.3614 15.0086 27.3006C15.3898 26.5389 15.7137 25.7739 16.1615 25.0507C16.6707 24.6309 17.1671 24.2335 17.6985 23.8265C17.3282 24.4159 17.3129 25.2106 17.3177 25.8681C17.3256 26.1107 17.3334 26.3533 17.3061 26.6053C16.1427 28.1051 15.4233 29.8616 15.1771 31.7727C15.1606 31.8525 15.268 31.9741 15.364 31.9105C16.4068 31.2338 17.5363 30.4584 18.0036 29.2406C18.3862 28.2715 18.2641 27.0997 17.627 26.2552C17.6177 26.2201 17.5733 26.1944 17.5382 26.2039C17.5319 25.7538 17.5034 25.2909 17.5543 24.8443C17.5924 24.4199 17.7543 24.0373 17.9514 23.6454C18.0123 23.5913 18.0731 23.5372 18.1433 23.5183C20.2656 21.9479 22.7228 20.7201 25.3274 20.262C24.7057 20.8251 24.2393 21.478 23.8396 22.1694C23.2124 21.7174 22.348 21.9319 21.7499 22.3003C20.9378 22.783 20.2515 23.4576 19.493 24.0011C19.3842 24.0869 19.4214 24.2275 19.5581 24.247C20.3824 24.307 21.2468 24.0925 21.9909 23.7788C22.4986 23.5665 22.9878 23.2839 23.4455 22.9533C23.3645 23.1446 23.2743 23.3007 23.1933 23.492C23.1009 23.4981 23.0178 23.5393 23.0106 23.6542C23.007 23.7116 23.0127 23.8042 23.0313 23.8745C22.6523 24.7862 22.3176 25.7235 21.9385 26.6352C21.907 26.5873 21.8404 26.5488 21.7703 26.5677C19.528 27.1163 19.1026 30.0546 18.2334 31.8138C18.1948 31.8807 18.2484 31.9415 18.3186 31.9226C20.5495 31.1888 22.9368 29.0576 22.3245 26.5311C22.3152 26.4959 22.293 26.4831 22.293 26.4831C22.5839 25.8776 22.8527 25.2592 23.0992 24.6279C23.1121 24.6056 23.125 24.5833 23.1507 24.5387C23.2657 25.8253 23.5432 27.0869 23.974 28.2883C24.0112 28.4288 24.2403 28.4423 24.2733 28.2828C24.4898 27.3962 24.7192 26.4872 24.592 25.5804C24.5113 24.8492 24.1792 24.0918 23.552 23.6399C24.1632 22.3267 24.9241 21.0108 26.0608 20.1206C26.2104 20.1178 26.3508 20.0799 26.5005 20.0772C28.154 19.9322 29.8303 20.1574 31.3669 20.7781C31.6332 20.9321 31.7415 20.4888 31.4844 20.3699C28.8495 19.2927 25.8361 19.4847 23.1712 20.3544C22.7888 20.4012 22.4136 20.333 22.0291 20.2297C22.1757 18.4396 20.9551 16.8113 19.7152 15.6777C19.6171 15.5913 19.486 15.6643 19.4788 15.7792C19.3982 17.2503 19.9127 18.7679 20.8533 19.907C20.4337 19.8132 19.9883 19.764 19.5615 19.785C19.5042 19.7817 19.4469 19.7783 19.3897 19.7749C17.6656 18.659 15.1792 19.0665 13.9384 20.7001C13.9126 20.7447 13.8962 20.8244 13.9627 20.8629C14.8893 21.3094 15.9483 21.4753 16.9588 21.3156C17.8862 21.1971 18.8981 20.8299 19.5399 20.1297C19.5528 20.1074 19.5879 20.0979 19.6008 20.0756C19.6803 20.0918 19.7505 20.0729 19.83 20.089C20.3456 20.1193 20.8225 20.2165 21.2958 20.3711C21.3494 20.4319 21.416 20.4704 21.4475 20.5184C21.5234 20.5921 21.6287 20.5636 21.6803 20.4744C21.8836 20.5325 22.1092 20.6034 22.3254 20.6392C21.0642 21.1301 19.8624 21.7744 18.7458 22.5275C18.589 22.6451 18.4099 22.7499 18.2531 22.8675C17.7747 22.9778 17.287 23.0529 16.8122 23.1057C16.5351 23.124 16.2486 23.1072 15.9622 23.0904C15.9529 23.0553 15.9658 23.033 15.9436 23.0201C15.4691 22.1505 14.3434 21.9461 13.4604 22.0902C12.3318 22.3007 11.4758 23.1152 10.4252 23.5493C10.307 23.6 10.322 23.7277 10.4108 23.7791C11.2428 24.0816 12.2038 24.1611 13.1147 24.1223C14.0256 24.0836 14.9215 23.9171 15.7709 23.575C15.8539 23.5337 15.8296 23.3709 15.7244 23.3993C14.8915 23.6617 13.9956 23.8281 13.1198 23.8574C12.3364 23.8806 11.573 23.7666 10.8004 23.6175C11.1456 23.4302 11.4908 23.2429 11.836 23.0556C12.2772 22.8048 12.7406 22.5668 13.2412 22.4694C14.0705 22.2644 15.0279 22.4014 15.5705 23.102C15.2397 23.0595 14.9124 22.9596 14.5687 22.9394C14.4541 22.9327 14.4083 23.1144 14.497 23.1658C14.8336 23.3008 15.2439 23.3595 15.6098 23.3926C16.0201 23.4512 16.434 23.4525 16.8386 23.4186C17.1508 23.3908 17.4409 23.3502 17.7438 23.2873C17.2732 23.6401 16.8249 24.0058 16.3765 24.3715C16.3543 24.3587 16.297 24.3553 16.2712 24.3999ZM11.1956 26.6731C10.357 26.843 9.50907 26.9776 8.64827 27.1346C9.28649 26.4918 9.90252 25.8362 10.7111 25.4109C11.4846 24.9951 12.4342 24.8895 13.1888 25.3258C13.0263 25.3509 12.8286 25.3854 12.6661 25.4104C12.2006 25.4984 11.6871 25.6181 11.2939 25.8372C11.1979 25.9007 11.2702 26.0318 11.3755 26.0034C11.8668 25.8708 12.3137 25.7126 12.8142 25.6152C12.9417 25.5996 13.0821 25.5617 13.2096 25.5461C12.7747 26.247 11.9418 26.5094 11.1956 26.6731ZM17.7651 29.192C17.3531 30.2632 16.4119 30.9689 15.4873 31.5949C15.7319 29.8913 16.3998 28.224 17.3526 26.781C17.3574 27.4385 17.305 28.0927 16.979 28.7077C16.9016 28.8415 17.1013 28.957 17.1787 28.8232C17.5398 28.1987 17.5959 27.4871 17.6168 26.785C17.9747 27.4978 18.0575 28.379 17.7651 29.192ZM21.1937 29.7162C20.4487 30.5949 19.4961 31.1155 18.4863 31.6327C18.7034 31.1035 18.9556 30.5648 19.2078 30.0262C19.4085 29.5768 19.5962 29.1496 19.8412 28.7259C20.2833 27.9101 20.9065 27.1396 21.854 26.8839C21.4269 27.8274 20.9111 28.7195 20.1733 29.4833C20.1604 29.5056 20.1919 29.5536 20.2048 29.5313C21.0829 28.7296 21.6854 27.7388 22.1992 26.6967C22.2934 27.763 21.8907 28.8693 21.1937 29.7162ZM21.9036 23.52C21.2905 23.7607 20.6403 23.8609 20.0029 23.9388C20.2336 23.7448 20.4735 23.5859 20.6912 23.4142C21.0179 23.1567 21.3445 22.8991 21.6804 22.6767C22.3042 22.2637 23.0411 22.0648 23.7328 22.4052C23.7199 22.4275 23.707 22.4498 23.6941 22.4721C23.172 22.9142 22.5517 23.2698 21.9036 23.52ZM24.2597 25.7453C24.3218 26.4062 24.212 27.057 24.0672 27.7173C23.6844 26.4841 23.4642 25.2259 23.4066 23.9426C23.4195 23.9203 23.4195 23.9203 23.4324 23.898C23.9192 24.3878 24.2011 25.027 24.2597 25.7453ZM17.014 21.169C16.0737 21.3098 15.0812 21.1823 14.1991 20.7615C15.3259 19.4786 17.3153 19.1112 18.8447 19.8467C17.9302 19.9429 17.0622 20.2148 16.2758 20.6529C16.1447 20.7259 16.2485 20.9049 16.3796 20.8319C17.3064 20.3559 18.3204 20.1388 19.333 20.129C19.3552 20.1419 19.3774 20.1547 19.3996 20.1675C19.0988 20.3805 18.7757 20.5806 18.4563 20.7233C17.9929 20.9612 17.5016 21.0938 17.014 21.169ZM19.7437 16.1406C20.2806 16.7487 20.8433 17.3121 21.2584 18.0283C21.6199 18.6837 21.8503 19.4121 21.7906 20.1811C21.6446 20.1264 21.4856 20.094 21.3395 20.0393C20.2993 19.0212 19.6982 17.6023 19.7437 16.1406Z" fill="white"/>
<path d="M19.8331 101.634C19.8305 101.618 19.8305 101.618 19.8279 101.601C18.7996 101.729 17.7477 101.708 16.7138 101.582C15.521 101.43 14.3268 101.159 13.2097 100.723C12.604 100.479 12.0435 100.193 11.506 99.8363C11.4284 99.7805 11.4605 99.6566 11.5611 99.6407C13.8873 99.2406 16.3037 99.5227 18.4734 100.421C19.0429 100.654 19.5868 100.943 20.0996 101.253C20.1164 101.25 20.15 101.245 20.1667 101.242C20.2338 101.231 20.2726 101.259 20.314 101.304C20.9185 100.886 21.5477 100.515 22.1962 100.158C22.3058 100.09 22.3874 100.281 22.2752 100.332C21.5816 100.73 20.9099 101.159 20.2771 101.615C20.6133 102.768 20.7147 103.959 20.7993 105.151C20.8865 106.361 20.7442 107.64 20.5023 108.834C20.3692 109.517 20.1859 110.208 19.9637 110.872C19.9317 110.996 19.7367 110.959 19.7185 110.843C19.4847 109.248 19.251 107.654 19.238 106.043C19.2253 104.652 19.4023 103.265 19.8298 101.941C19.8298 101.941 19.8298 101.941 19.8272 101.924C19.1518 102.438 18.4958 102.966 17.8838 103.555C17.9032 103.569 17.9226 103.583 17.9278 103.616C17.996 106.561 18.0606 109.592 17.0445 112.419C16.7799 113.14 16.4456 113.855 16.0143 114.5C15.9294 114.616 15.7628 114.54 15.7587 114.405C15.9938 111.531 16.3684 108.669 16.8655 105.822C16.955 105.298 17.047 104.791 17.1533 104.264C16.4563 104.969 15.8174 105.715 15.2199 106.505C15.1775 106.563 15.135 106.621 15.0925 106.678C15.1197 106.742 15.1327 106.825 15.1264 106.894C15.1283 107.233 15.1275 107.556 15.1126 107.898C15.0828 108.582 15.0001 109.258 14.8812 109.922C14.6576 111.231 14.2752 112.515 13.7481 113.753C13.4448 114.446 13.1052 115.128 12.7101 115.785C12.6561 115.878 12.4947 115.836 12.4958 115.734C12.3795 114.121 12.2296 112.514 12.4231 110.904C12.5542 109.881 12.7525 108.847 13.3731 107.985C13.7555 107.466 14.2542 107.031 14.7775 106.643C15.5114 105.627 16.3422 104.681 17.2531 103.807C17.2505 103.79 17.2505 103.79 17.2647 103.771C15.3019 104.624 13.048 105.047 10.9313 104.921C10.8448 104.918 10.8072 104.788 10.8858 104.741C12.6127 103.263 15.2378 102.578 17.4227 103.356C17.4537 103.334 17.5066 103.342 17.5427 103.354C17.5905 103.329 17.6266 103.341 17.6628 103.352C17.6963 103.347 17.7492 103.355 17.7828 103.35C18.4063 102.725 19.1074 102.156 19.8331 101.634ZM11.8802 99.8113C13.7483 100.978 16.0876 101.425 18.2673 101.405C18.5241 101.399 18.7809 101.392 19.0351 101.369C18.3702 101.185 17.7142 100.949 17.066 100.762C16.0395 100.465 15.0275 100.369 13.9846 100.295C13.8982 100.292 13.9134 100.171 13.9999 100.174C15.0156 100.184 16.0197 100.23 17.0101 100.516C17.9087 100.765 18.7418 101.143 19.6661 101.338C19.7332 101.327 19.8003 101.317 19.8674 101.306C17.4402 99.9724 14.622 99.4307 11.8802 99.8113ZM19.5 106.069C19.5153 107.477 19.7009 108.875 19.9033 110.27C20.2947 108.934 20.5246 107.556 20.5816 106.171C20.6126 105.385 20.5906 104.59 20.5015 103.805C20.4254 103.104 20.2823 102.413 20.1365 101.705C20.1365 101.705 20.1365 101.705 20.1198 101.708C20.1082 101.744 20.094 101.763 20.0993 101.796C20.1257 102.183 20.1045 102.594 20.1142 102.983C20.128 103.507 20.1418 104.032 20.1414 104.575C20.1549 105.644 20.2018 106.706 20.2488 107.769C20.2477 107.871 20.0967 107.895 20.0979 107.793C20.0677 106.728 20.0233 105.681 19.9763 104.618C19.9651 104.111 19.9345 103.589 19.9066 103.084C19.8999 102.932 19.8932 102.78 19.8671 102.614C19.598 103.744 19.4709 104.902 19.5 106.069ZM12.9996 109.216C12.5733 110.438 12.4943 111.793 12.5416 113.076C12.5558 113.822 12.6203 114.559 12.7042 115.31C13.8286 113.282 14.5838 111.09 14.8379 108.774C14.8722 108.446 14.9065 108.118 14.9214 107.775C14.9315 107.621 14.9389 107.45 14.949 107.295C14.9438 107.262 14.9318 107.077 14.9419 106.923C14.5338 107.497 14.145 108.084 13.7783 108.703C13.6817 108.854 13.4491 108.687 13.5457 108.536C13.7619 108.162 14.0116 107.783 14.2471 107.423C13.6892 107.918 13.2475 108.498 12.9996 109.216ZM16.2592 112.016C16.1996 112.62 16.1425 113.24 16.0829 113.844C17.3863 111.532 17.7173 108.83 17.7515 106.209C17.7578 105.375 17.7448 104.528 17.7343 103.697C17.7202 103.717 17.706 103.736 17.6892 103.738C17.6334 105.786 17.4407 107.838 17.106 109.861C17.0997 109.93 16.9938 109.912 17.0001 109.843C17.2692 107.949 17.4157 106.041 17.4421 104.134C16.9446 106.76 16.5309 109.374 16.2592 112.016ZM11.2239 104.705C12.2537 104.696 13.2899 104.618 14.3052 104.407C15.2535 104.207 16.1692 103.91 17.0552 103.532C16.5919 103.537 16.1338 103.576 15.6784 103.63C14.9713 103.725 14.2773 103.902 13.5885 104.112C13.5382 104.12 13.5109 104.056 13.5613 104.048C14.6254 103.711 15.7723 103.463 16.9091 103.369C14.9403 102.982 12.8028 103.488 11.2239 104.705Z" fill="white"/>
<path d="M42.0021 30.5306C42.0403 30.5978 42.0562 30.6777 42.1072 30.7672C42.1199 30.7896 42.1199 30.7896 42.1104 30.8247C42.0214 31.4978 41.8272 32.1417 41.5758 32.7887C41.5058 32.9767 41.4231 33.1423 41.3531 33.3304C41.318 33.3207 41.2958 33.3333 41.2607 33.3236C40.3757 33.7382 39.9588 34.7164 39.8602 35.632C39.7267 36.7454 40.109 37.8321 40.3639 38.9024C40.4053 39.027 40.5772 39.0181 40.6059 38.9129C40.9877 37.925 41.4047 36.9468 41.7038 35.9171C41.936 35.1328 42.0601 34.262 41.5951 33.5484C41.5823 33.526 41.5823 33.526 41.5696 33.5036C41.681 33.2327 41.7701 32.9746 41.8592 32.7164C42.0088 32.3052 42.1233 31.8844 42.2378 31.4635C42.2857 31.7031 42.2984 31.933 42.3462 32.1725C42.6204 34.0025 42.7703 35.8735 42.2835 37.6621C42.239 37.8949 42.5065 37.9502 42.5319 37.7875C43.0887 35.8109 42.9419 33.7899 42.6582 31.7876C43.0117 32.3571 43.4193 32.8662 43.7951 33.4231C43.6711 34.2939 43.8114 35.1627 44.0758 35.9904C44.3943 36.9651 44.8912 37.8384 45.2989 38.7625C45.3371 38.8297 45.4294 38.8364 45.4835 38.776C46.2157 38.0927 46.397 37.0114 46.2185 36.0755C45.9923 34.9001 45.1388 33.8147 44.1612 33.1852C44.1007 33.1307 44.0148 33.2389 44.0753 33.2934C44.8555 34.0944 45.658 34.8828 45.9511 36.0202C46.1486 36.8859 46.0055 37.8269 45.423 38.514C44.9548 37.7429 44.5853 36.8861 44.3082 36.036C44.0597 35.2881 43.9354 34.4993 43.9958 33.7239C44.5722 34.5816 45.0022 35.493 45.0278 36.5751C45.0438 36.6549 45.1584 36.649 45.1425 36.5691C45.1868 35.5065 44.7887 34.5474 44.2568 33.6643C44.1931 33.5524 44.1167 33.418 44.0307 33.3187C44.0403 33.2836 44.0275 33.2612 44.0371 33.2262C44.0657 33.121 43.9479 33.0694 43.8683 33.0851C43.4033 32.3715 42.9065 31.7056 42.5084 30.9539C42.4032 30.3024 42.3108 29.6733 42.2279 29.0091C42.5495 29.6263 43.2278 30.0408 43.7978 30.3686C44.0111 30.4844 44.2244 30.6001 44.4282 30.7509C45.1354 32.5124 46.2882 34.0203 47.8135 35.1978C47.874 35.2523 48.0332 35.221 48.0268 35.1061C47.9693 33.8642 47.8703 32.4978 47.0551 31.4796C46.4118 30.6599 45.3387 30.1737 44.2881 30.2972C44.253 30.2874 44.2085 30.3128 44.1989 30.3479C43.8073 30.1261 43.3933 29.917 43.0335 29.6474C42.6864 29.4003 42.438 29.0674 42.1991 28.6993C42.1832 28.6195 42.1673 28.5396 42.1864 28.4695C41.9025 25.8448 42.0835 23.1038 43.0032 20.6243C43.1753 21.4452 43.5034 22.1775 43.8983 22.8716C43.1915 23.1848 42.9402 24.0392 42.9562 24.7414C42.9627 25.6862 43.1985 26.6191 43.2846 27.5483C43.3038 27.6856 43.4439 27.7244 43.5298 27.6163C43.9977 26.9351 44.2491 26.0807 44.354 25.28C44.4271 24.7345 44.4302 24.1696 44.376 23.6076C44.5002 23.7741 44.5894 23.9309 44.7136 24.0973C44.6722 24.1801 44.6659 24.2727 44.7614 24.3369C44.8092 24.369 44.8919 24.4108 44.962 24.4302C45.5575 25.2178 46.1976 25.98 46.7931 26.7675C46.7358 26.7705 46.669 26.8085 46.6499 26.8787C45.9912 29.0911 48.3126 30.942 49.3922 32.5805C49.4304 32.6476 49.51 32.632 49.5291 32.5619C50.0222 30.2658 49.3881 27.129 46.8981 26.3817C46.8631 26.372 46.8408 26.3847 46.8408 26.3847C46.465 25.8278 46.0669 25.2837 45.6466 24.7522C45.6338 24.7298 45.6211 24.7074 45.5956 24.6626C46.7642 25.213 47.9933 25.6105 49.2477 25.8453C49.3878 25.8842 49.5152 25.6932 49.3942 25.5842C48.7382 24.9496 48.0694 24.2926 47.2225 23.9445C46.5506 23.645 45.7291 23.5492 45.0224 23.8624C44.1975 22.6717 43.4459 21.3506 43.2514 19.9199C43.3246 19.7893 43.3628 19.649 43.436 19.5185C44.1458 18.018 45.1866 16.6848 46.4982 15.6719C46.7656 15.5197 46.4376 15.2024 46.2053 15.3643C43.945 17.0948 42.5892 19.7928 41.9943 22.5321C41.8415 22.8858 41.5932 23.1752 41.3099 23.455C39.8388 22.4246 37.817 22.6559 36.2125 23.1538C36.0883 23.1948 36.0851 23.3448 36.1807 23.409C37.4098 24.2214 38.9795 24.5436 40.4377 24.3069C40.1448 24.6217 39.8774 24.9813 39.6801 25.3603C39.6483 25.4081 39.6164 25.4558 39.5846 25.5036C37.7509 26.4282 36.8471 28.7801 37.6306 30.676C37.6561 30.7208 37.7166 30.7753 37.7835 30.7372C38.6366 30.1629 39.3147 29.3326 39.687 28.3797C40.053 27.5194 40.247 26.4605 39.9667 25.553C39.9539 25.5306 39.9635 25.4955 39.9507 25.4731C40.0049 25.4127 40.024 25.3425 40.0781 25.2821C40.3645 24.8524 40.6892 24.4898 41.0617 24.1594C41.1413 24.1437 41.2081 24.1057 41.2654 24.1027C41.3673 24.0744 41.396 23.9692 41.345 23.8796C41.4978 23.7334 41.6729 23.5745 41.8129 23.4059C41.5999 24.7424 41.5492 26.1051 41.6354 27.4491C41.6577 27.6439 41.6577 27.8514 41.6801 28.0462C41.5337 28.5148 41.3523 28.9737 41.1581 29.4101C41.034 29.6586 40.8749 29.8974 40.7157 30.1361C40.6807 30.1264 40.668 30.104 40.6457 30.1167C39.6555 30.0872 38.9106 30.9556 38.5892 31.7905C38.2009 32.871 38.4718 34.0211 38.316 35.1471C38.3001 35.2747 38.4179 35.3263 38.507 35.2756C39.1883 34.7101 39.7421 33.9208 40.1686 33.115C40.5951 32.3092 40.9038 31.4518 41.0374 30.5459C41.0437 30.4534 40.8909 30.3921 40.8622 30.4973C40.6682 31.3488 40.3595 32.2061 39.9425 32.9769C39.567 33.6648 39.0831 34.2661 38.5643 34.8577C38.5769 34.4651 38.5896 34.0726 38.6023 33.6801C38.6085 33.1726 38.6371 32.6525 38.8058 32.1712C39.0476 31.3519 39.6492 30.5946 40.5279 30.4801C40.3242 30.7442 40.0727 30.9762 39.8817 31.2626C39.8181 31.3581 39.9518 31.4895 40.041 31.4388C40.3275 31.2165 40.5853 30.892 40.7986 30.5928C41.0564 30.2683 41.2665 29.9117 41.4415 29.5453C41.5752 29.2618 41.6866 28.9909 41.7852 28.6977C41.8522 29.2821 41.9415 29.8537 42.0307 30.4254C42.0084 30.4381 41.9766 30.4858 42.0021 30.5306ZM41.4013 36.0595C41.1245 36.8691 40.8126 37.669 40.5134 38.4913C40.2809 37.6158 40.026 36.753 40.0672 35.8403C40.0989 34.9627 40.4872 34.0897 41.2449 33.6587C41.1844 33.8117 41.1144 33.9997 41.0539 34.1526C40.8948 34.5989 40.7389 35.1025 40.7294 35.5525C40.7358 35.6675 40.8855 35.6712 40.9141 35.566C41.0477 35.075 41.1368 34.6094 41.3055 34.1281C41.3564 34.0102 41.3946 33.8699 41.4455 33.7521C41.8309 34.4813 41.6368 35.3327 41.4013 36.0595ZM46.8927 31.6608C47.6093 32.5574 47.7432 33.7261 47.8166 34.8403C46.4696 33.7689 45.3678 32.3506 44.6034 30.7995C45.1733 31.1274 45.7115 31.5029 46.0777 32.0949C46.1542 32.2292 46.3547 32.1151 46.2783 31.9808C45.9216 31.3538 45.3357 30.9461 44.7402 30.5735C45.5362 30.6245 46.3386 30.9979 46.8927 31.6608ZM49.0764 28.9662C49.4586 30.0529 49.427 31.1379 49.3635 32.2707C49.0164 31.8161 48.6788 31.3265 48.3412 30.8368C48.0546 30.4367 47.7807 30.0589 47.5387 29.6335C47.0578 28.84 46.7074 27.913 46.9651 26.9661C47.5638 27.8111 48.0734 28.7068 48.3601 29.7293C48.3729 29.7517 48.4302 29.7487 48.4175 29.7263C48.1689 28.5636 47.6179 27.5432 46.9778 26.5736C47.9458 27.0306 48.6973 27.9369 49.0764 28.9662ZM44.0866 25.2247C43.9848 25.8754 43.7429 26.4872 43.4883 27.0767C43.4373 26.7797 43.4214 26.4924 43.3831 26.2177C43.3257 25.8057 43.2683 25.3938 43.246 24.9915C43.2045 24.2445 43.4049 23.508 44.048 23.0829C44.0607 23.1053 44.0734 23.1277 44.0862 23.1501C44.2041 23.824 44.1979 24.5389 44.0866 25.2247ZM47.1971 24.3147C47.7989 24.5948 48.3052 25.0181 48.8019 25.4765C47.5442 25.1842 46.347 24.739 45.2103 24.1408C45.1975 24.1184 45.1975 24.1184 45.1848 24.096C45.8534 23.9231 46.5475 24.0025 47.1971 24.3147ZM39.5883 28.2581C39.235 29.1408 38.6239 29.9331 37.8153 30.482C37.2769 28.8617 37.9643 26.9589 39.3714 26.0102C38.9926 26.8481 38.789 27.7346 38.7701 28.6346C38.7669 28.7846 38.9739 28.7854 38.977 28.6354C39.0342 27.5952 39.3587 26.6102 39.8616 25.7313C39.8839 25.7186 39.9062 25.7059 39.9285 25.6933C39.9604 26.0604 39.97 26.4403 39.9319 26.788C39.9033 27.3082 39.7697 27.7992 39.5883 28.2581ZM36.6264 23.3629C37.4223 23.2065 38.1928 23.0053 39.0206 23.0086C39.7688 23.0275 40.5139 23.1965 41.1476 23.6363C41.0266 23.7347 40.9184 23.8556 40.7974 23.954C39.3934 24.3378 37.8651 24.1402 36.6264 23.3629Z" fill="white"/>
</svg>
