<svg width="383px" height="302px" viewBox="0 0 164 115" fill="none" xmlns="http://www.w3.org/2000/svg">
<g clip-path="url(#clip0_204_82)">
<path fill-rule="evenodd" clip-rule="evenodd" d="M105.926 112V111.827C106.065 111.839 106.201 111.851 106.334 111.864V108.704C102.753 108.493 100.014 108.072 98.118 107.44C96.3273 106.808 95.116 105.544 94.484 103.648C93.9614 102.08 93.6549 99.8642 93.5644 97H78.4099C78.3249 99.9301 78.017 102.191 77.4862 103.784C76.8571 105.671 75.6017 106.932 73.7201 107.567C71.9379 108.129 69.3792 108.508 66.044 108.704V108.815C65.9094 108.824 65.7735 108.832 65.6362 108.84V112C67.8482 111.789 70.7449 111.684 74.3262 111.684C77.9076 111.579 81.7522 111.526 85.8602 111.526C89.5469 111.526 93.1809 111.579 96.7622 111.684C100.449 111.684 103.504 111.789 105.926 112ZM78.4342 68V57.196H27.492V68H12.798V16.748C12.798 12.8507 12.482 10.0067 11.85 8.216C11.218 6.32 9.954 5.056 8.058 4.424C6.26733 3.68666 3.58133 3.26533 0 3.16V0C2.212 0.105332 5.10867 0.210666 8.69 0.315998C12.2713 0.42133 16.116 0.473995 20.224 0.473995C23.9107 0.473995 27.5447 0.42133 31.126 0.315998C34.8127 0.210666 37.8673 0.105332 40.29 0V3.16C36.7087 3.26533 33.97 3.68666 32.074 4.424C30.2833 5.056 29.072 6.32 28.44 8.216C27.808 10.0067 27.492 12.8507 27.492 16.748V54.036H78.4342V16.884C78.4342 12.9867 78.1182 10.1427 77.4862 8.352C76.8542 6.456 75.5902 5.192 73.6942 4.56C71.9036 3.82266 69.2176 3.40133 65.6362 3.296V0.136002C65.7697 0.142355 65.9056 0.148709 66.044 0.155063V0C68.4667 0.105332 71.5213 0.210666 75.208 0.315998C78.8947 0.42133 82.5287 0.473995 86.11 0.473995C90.218 0.473995 94.0627 0.42133 97.644 0.315998C101.225 0.210666 104.122 0.105332 106.334 0V3.16C106.197 3.16403 106.061 3.16853 105.926 3.17349V3.296C102.779 3.38857 100.282 3.72521 98.4365 4.3059C98.3278 4.34432 98.2217 4.38369 98.118 4.424C96.3273 5.056 95.116 6.32 94.484 8.216C93.852 10.0067 93.536 12.8507 93.536 16.748V52.58C97.7792 52.4306 101.33 51.5393 104.188 49.906C107.243 48.1153 109.771 45.956 111.772 43.428L126.94 24.152C130.416 19.728 132.786 15.9887 134.05 12.934C135.314 9.87934 135.262 7.562 133.892 5.98201C132.523 4.29667 129.626 3.40133 125.202 3.296V0.136002C127.204 0.241334 129.258 0.346668 131.364 0.452C133.471 0.452 135.525 0.504665 137.526 0.609997H143.372C146.111 0.609997 148.639 0.557332 150.956 0.452C153.274 0.346668 155.222 0.241334 156.802 0.136002V3.296C153.537 3.71734 150.377 4.82333 147.322 6.61399C144.268 8.29933 141.213 11.038 138.158 14.83L108.359 52.7035C112.388 52.9226 116.212 53.4648 119.83 54.33C124.781 55.4887 128.994 57.7007 132.47 60.966C134.431 62.8079 136.073 65.1526 137.397 68H122.448C122.213 67.3186 121.973 66.6593 121.726 66.022C120.462 62.7567 118.461 60.2287 115.722 58.438C112.984 56.542 108.928 55.594 103.556 55.594H93.536V68H78.4342ZM129.435 97L129.468 97.148C131.048 104.205 133.313 108.84 136.262 111.052C139.317 113.159 142.688 114.212 146.374 114.212C150.798 114.212 154.222 113.264 156.644 111.368C159.067 109.472 161.279 107.049 163.28 104.1L160.91 102.362C159.541 104.153 158.224 105.575 156.96 106.628C155.802 107.681 154.327 108.261 152.536 108.366C150.219 108.471 148.586 107.576 147.638 105.68C146.797 103.905 145.874 101.012 144.867 97H129.435ZM12.7696 97H27.5204C27.6109 99.8642 27.9174 102.08 28.44 103.648C29.072 105.544 30.2833 106.808 32.074 107.44C33.97 108.072 36.7087 108.493 40.29 108.704V111.864C37.8673 111.653 34.8127 111.548 31.126 111.548C27.5447 111.443 23.9107 111.39 20.224 111.39C16.116 111.39 12.2713 111.443 8.69 111.548C5.10867 111.548 2.212 111.653 0 111.864V108.704C3.58133 108.493 6.26733 108.072 8.058 107.44C9.954 106.808 11.218 105.544 11.85 103.648C12.3726 102.08 12.6791 99.8642 12.7696 97Z" fill="white"/>
<path d="M158.216 80.984L158.408 80.648L158.648 80.24C159.016 79.648 159.224 79.248 159.272 79.04C159.464 78.976 159.656 78.968 159.848 79.016C160.088 79.064 160.256 79.176 160.352 79.352C160.272 79.592 160.008 80.072 159.56 80.792L159.272 81.248L158.984 81.728C158.744 82.112 158.544 82.448 158.384 82.736C157.456 84.4 157.36 85.376 158.096 85.664C158.416 85.84 159.144 85.528 160.28 84.728C161.336 83.992 162.088 83.328 162.536 82.736C162.728 82.736 162.84 82.816 162.872 82.976C161.208 85.184 159.68 86.296 158.288 86.312C157.584 86.312 157.104 86.016 156.848 85.424C156.56 84.784 156.712 83.84 157.304 82.592C157.192 82.704 157.08 82.808 156.968 82.904C155.64 84.056 154.528 84.464 153.632 84.128C153.552 84.096 153.472 84.056 153.392 84.008C153.296 84.28 153.208 84.568 153.128 84.872C152.872 85.704 152.68 86.232 152.552 86.456C152.504 86.584 152.384 86.6 152.192 86.504C151.984 86.408 151.864 86.232 151.832 85.976C151.752 85.272 152.208 84.032 153.2 82.256L153.488 81.752L153.752 81.272C153.992 80.856 154.168 80.552 154.28 80.36C154.616 79.72 154.808 79.272 154.856 79.016C154.856 78.904 154.92 78.824 155.048 78.776C155.16 78.744 155.296 78.752 155.456 78.8C155.616 78.848 155.736 78.92 155.816 79.016C155.896 79.128 155.904 79.248 155.84 79.376C155.744 79.728 155.368 80.44 154.712 81.512C154.568 81.736 154.44 81.944 154.328 82.136C153.96 82.984 153.864 83.496 154.04 83.672C154.216 83.864 154.992 83.448 156.368 82.424C156.816 82.104 157.288 81.744 157.784 81.344C157.928 81.232 158.072 81.112 158.216 80.984Z" fill="white"/>
<path d="M152.891 82.76C153.067 82.744 153.179 82.816 153.227 82.976C151.387 85.376 149.771 86.576 148.379 86.576C148.043 86.576 147.747 86.504 147.491 86.36C147.187 86.2 147.003 85.976 146.939 85.688C146.619 84.504 146.987 82.752 148.043 80.432L147.731 80.888L147.395 81.368L146.723 82.352C146.195 83.088 145.731 83.696 145.331 84.176C144.291 85.456 143.523 86.064 143.027 86C142.611 85.936 142.283 85.784 142.043 85.544C141.771 85.288 141.683 84.976 141.779 84.608C142.067 83.536 142.771 82.344 143.891 81.032C145.107 79.592 146.123 78.944 146.939 79.088C147.403 79.152 147.723 79.312 147.899 79.568C148.539 78.72 149.051 78.12 149.435 77.768C149.595 77.704 149.771 77.704 149.963 77.768C150.171 77.832 150.323 77.952 150.419 78.128C150.195 78.464 149.915 78.976 149.579 79.664C149.163 80.512 148.811 81.312 148.523 82.064C147.707 84.24 147.643 85.512 148.331 85.88C148.651 86.04 149.395 85.696 150.563 84.848C151.651 84.064 152.427 83.368 152.891 82.76ZM142.907 85.304C143.275 85.336 143.939 84.76 144.899 83.576C145.219 83.176 145.659 82.592 146.219 81.824L146.891 80.888L147.587 79.976C147.491 79.672 147.267 79.56 146.915 79.64C146.515 79.704 145.979 80.12 145.307 80.888C144.715 81.544 144.147 82.304 143.603 83.168C142.771 84.544 142.539 85.256 142.907 85.304Z" fill="white"/>
<path d="M134.572 80C134.476 80.368 134.14 81.008 133.564 81.92L133.204 82.472L132.844 83.072C132.572 83.552 132.348 84 132.172 84.416C132.428 84.112 132.796 83.632 133.276 82.976L133.852 82.136L134.452 81.32C135.412 80.072 136.068 79.48 136.42 79.544C136.628 79.576 136.796 79.688 136.924 79.88C137.052 80.04 137.116 80.2 137.116 80.36C137.116 80.584 137.028 80.984 136.852 81.56C136.772 81.784 136.676 82.048 136.564 82.352L136.276 83.192C135.748 84.6 135.532 85.328 135.628 85.376C135.708 85.408 136.308 84.456 137.428 82.52C137.956 81.624 138.372 80.96 138.676 80.528C139.108 79.92 139.412 79.616 139.588 79.616C139.748 79.616 139.916 79.72 140.092 79.928C140.252 80.12 140.316 80.288 140.284 80.432C140.236 80.656 140.132 81.032 139.972 81.56C139.924 81.736 139.852 81.976 139.756 82.28L139.54 83.048C139.156 84.312 138.98 85.024 139.012 85.184C139.092 85.536 139.716 85.424 140.884 84.848C141.284 84.656 141.708 84.432 142.156 84.176C142.316 84.08 142.468 83.984 142.612 83.888C142.74 83.808 142.828 83.752 142.876 83.72C142.988 83.64 143.076 83.648 143.14 83.744C143.188 83.84 143.172 83.928 143.092 84.008C143.028 84.072 142.948 84.152 142.852 84.248C142.708 84.36 142.564 84.48 142.42 84.608C142.02 84.928 141.62 85.2 141.22 85.424C140.084 86.064 139.22 86.168 138.628 85.736C138.292 85.496 138.14 85.056 138.172 84.416C138.172 83.904 138.292 83.28 138.532 82.544C138.628 82.256 138.732 81.952 138.844 81.632C138.94 81.392 139.044 81.136 139.156 80.864L139.444 80.144C139.396 80.16 139.188 80.504 138.82 81.176L138.7 81.416L138.556 81.656L138.268 82.184C138.028 82.632 137.82 83.016 137.644 83.336C136.444 85.416 135.644 86.392 135.244 86.264C134.764 86.104 134.54 85.68 134.572 84.992C134.604 84.464 134.788 83.76 135.124 82.88C135.252 82.576 135.404 82.232 135.58 81.848L135.796 81.368C135.876 81.176 135.932 81.04 135.964 80.96C136.204 80.416 136.268 80.168 136.156 80.216C135.868 80.328 135.06 81.352 133.732 83.288C133.236 84.008 132.74 84.76 132.244 85.544C131.796 86.232 131.476 86.736 131.284 87.056C131.236 87.2 131.116 87.224 130.924 87.128C130.716 87.032 130.596 86.856 130.564 86.6C130.468 85.896 130.94 84.608 131.98 82.736L132.268 82.184L132.556 81.68C132.812 81.248 132.996 80.928 133.108 80.72C133.46 80.048 133.66 79.584 133.708 79.328C133.724 79.216 133.78 79.16 133.876 79.16C133.972 79.16 134.084 79.2 134.212 79.28C134.34 79.376 134.436 79.488 134.5 79.616C134.58 79.744 134.604 79.872 134.572 80Z" fill="white"/>
<path d="M129.131 81.344C129.291 80.688 129.163 80.16 128.747 79.76C128.411 79.424 127.795 79.6 126.899 80.288C126.563 80.528 126.227 80.816 125.891 81.152C125.603 81.456 125.387 81.704 125.243 81.896C124.139 83.432 123.883 84.528 124.475 85.184C124.955 85.68 125.691 85.872 126.683 85.76C127.771 85.648 128.779 85.304 129.707 84.728C130.251 84.392 131.059 83.752 132.131 82.808C132.227 82.744 132.315 82.744 132.395 82.808C132.459 82.872 132.467 82.944 132.419 83.024C131.827 84.08 130.891 84.92 129.611 85.544C128.347 86.184 127.075 86.44 125.795 86.312C124.579 86.2 123.763 85.568 123.347 84.416C122.979 83.424 123.491 82.208 124.883 80.768C125.475 80.176 126.091 79.712 126.731 79.376C127.403 79.024 127.971 78.904 128.435 79.016C129.091 79.176 129.515 79.52 129.707 80.048C129.883 80.496 129.843 80.936 129.587 81.368C129.523 81.464 129.427 81.52 129.299 81.536C129.171 81.536 129.115 81.472 129.131 81.344Z" fill="white"/>
<path d="M123.821 82.736C123.917 82.672 124.005 82.672 124.085 82.736C124.149 82.8 124.157 82.872 124.109 82.952C123.757 83.576 123.245 84.176 122.573 84.752C121.997 85.232 121.301 85.616 120.485 85.904C119.605 86.208 118.797 86.32 118.061 86.24C116.845 86.128 116.021 85.504 115.589 84.368C115.221 83.36 115.733 82.144 117.125 80.72C117.717 80.112 118.333 79.648 118.973 79.328C119.661 78.976 120.237 78.856 120.701 78.968C121.389 79.144 121.781 79.464 121.877 79.928C121.957 80.36 121.773 80.84 121.325 81.368C120.285 82.616 118.717 83.392 116.621 83.696C116.493 84.304 116.581 84.784 116.885 85.136C117.477 85.776 118.373 85.92 119.573 85.568C120.021 85.424 120.493 85.224 120.989 84.968C121.405 84.744 121.773 84.504 122.093 84.248C122.477 83.96 123.053 83.456 123.821 82.736ZM117.509 81.824C117.189 82.256 116.933 82.728 116.741 83.24C117.765 82.952 118.805 82.312 119.861 81.32C120.901 80.328 121.165 79.704 120.653 79.448C120.333 79.304 119.773 79.576 118.973 80.264C118.669 80.536 118.373 80.832 118.085 81.152C117.829 81.424 117.637 81.648 117.509 81.824Z" fill="white"/>
<path d="M100.802 84.848C97.9377 86.32 95.8177 87.8 94.4417 89.288C93.5137 90.296 93.1297 90.864 93.2897 90.992C93.5137 91.136 94.0737 90.896 94.9697 90.272C96.6497 89.168 98.5937 87.36 100.802 84.848ZM116.666 74.144C116.602 74.24 116.53 74.336 116.45 74.432C114.898 76.448 113.546 78.368 112.394 80.192C112.826 80.192 113.234 80.216 113.618 80.264C113.89 80.28 114.042 80.392 114.074 80.6C114.09 80.808 113.97 80.904 113.714 80.888C113.106 80.888 112.49 80.944 111.866 81.056C110.826 82.752 110.114 84.184 109.73 85.352C109.682 85.48 109.642 85.6 109.61 85.712L109.466 86.168C109.37 86.52 109.314 86.848 109.298 87.152C109.234 87.936 109.442 88.44 109.922 88.664C110.498 88.936 110.994 88.864 111.41 88.448C111.458 88.416 111.506 88.408 111.554 88.424C111.586 88.44 111.618 88.464 111.65 88.496C111.682 88.544 111.698 88.592 111.698 88.64C111.682 88.704 111.642 88.752 111.578 88.784C111.306 89.024 110.946 89.168 110.498 89.216C110.114 89.264 109.762 89.232 109.442 89.12C108.802 88.88 108.434 88.28 108.338 87.32C108.258 86.376 108.45 85.304 108.914 84.104C109.282 83.208 109.73 82.296 110.258 81.368C108.098 81.832 105.794 82.6 103.346 83.672C100.386 87.256 97.6257 89.72 95.0657 91.064C94.0577 91.576 93.3857 91.72 93.0497 91.496C92.5537 91.144 92.7457 90.408 93.6257 89.288C95.1617 87.368 97.9777 85.392 102.074 83.36C104.522 80.368 106.25 77.624 107.258 75.128C108.458 72.184 108.394 70.08 107.066 68.816C105.818 67.616 104.034 67.192 101.714 67.544C99.6177 67.864 97.4737 68.728 95.2817 70.136C93.1057 71.528 91.4737 73.056 90.3857 74.72C89.2017 76.544 88.9617 78.128 89.6657 79.472C90.4017 80.896 92.4977 81.272 95.9537 80.6C96.0977 80.584 96.1777 80.64 96.1937 80.768C96.2257 80.896 96.1857 80.992 96.0737 81.056C94.4737 81.696 93.0017 81.864 91.6577 81.56C90.3617 81.272 89.4897 80.616 89.0417 79.592C88.2577 77.848 88.4417 76 89.5937 74.048C90.6497 72.288 92.2977 70.736 94.5377 69.392C96.7617 68.064 99.0257 67.264 101.33 66.992C103.842 66.72 105.89 67.16 107.474 68.312C109.154 69.528 109.602 71.52 108.818 74.288C108.162 76.656 106.706 79.312 104.45 82.256C106.818 81.264 108.954 80.624 110.858 80.336C111.994 78.496 113.394 76.544 115.058 74.48C115.202 74.304 115.338 74.136 115.466 73.976C115.962 73.368 116.458 72.792 116.954 72.248C117.482 71.656 117.914 71.2 118.25 70.88C118.474 70.592 118.714 70.472 118.97 70.52C119.226 70.584 119.322 70.76 119.258 71.048C118.746 71.56 117.882 72.592 116.666 74.144Z" fill="white"/>
<path d="M74.0099 80C73.9139 80.368 73.5779 81.008 73.0019 81.92L72.6419 82.472L72.2819 83.072C72.0099 83.552 71.7859 84 71.6099 84.416C71.8659 84.112 72.2339 83.632 72.7139 82.976L73.2899 82.136L73.8899 81.32C74.8499 80.072 75.5059 79.48 75.8579 79.544C76.0659 79.576 76.2339 79.688 76.3619 79.88C76.4899 80.04 76.5539 80.2 76.5539 80.36C76.5539 80.584 76.4659 80.984 76.2899 81.56C76.2099 81.784 76.1139 82.048 76.0019 82.352L75.7139 83.192C75.1859 84.6 74.9699 85.328 75.0659 85.376C75.1459 85.408 75.7459 84.456 76.8659 82.52C77.3939 81.624 77.8099 80.96 78.1139 80.528C78.5459 79.92 78.8499 79.616 79.0259 79.616C79.1859 79.616 79.3539 79.72 79.5299 79.928C79.6899 80.12 79.7539 80.288 79.7219 80.432C79.6739 80.656 79.5699 81.032 79.4099 81.56C79.3619 81.736 79.2899 81.976 79.1939 82.28L78.9779 83.048C78.5939 84.312 78.4179 85.024 78.4499 85.184C78.5299 85.536 79.1539 85.424 80.3219 84.848C80.7219 84.656 81.1459 84.432 81.5939 84.176C81.7539 84.08 81.9059 83.984 82.0499 83.888C82.1779 83.808 82.2659 83.752 82.3139 83.72C82.4259 83.64 82.5139 83.648 82.5779 83.744C82.6259 83.84 82.6099 83.928 82.5299 84.008C82.4659 84.072 82.3859 84.152 82.2899 84.248C82.1459 84.36 82.0019 84.48 81.8579 84.608C81.4579 84.928 81.0579 85.2 80.6579 85.424C79.5219 86.064 78.6579 86.168 78.0659 85.736C77.7299 85.496 77.5779 85.056 77.6099 84.416C77.6099 83.904 77.7299 83.28 77.9699 82.544C78.0659 82.256 78.1699 81.952 78.2819 81.632C78.3779 81.392 78.4819 81.136 78.5939 80.864L78.8819 80.144C78.8339 80.16 78.6259 80.504 78.2579 81.176L78.1379 81.416L77.9939 81.656L77.7059 82.184C77.4659 82.632 77.2579 83.016 77.0819 83.336C75.8819 85.416 75.0819 86.392 74.6819 86.264C74.2019 86.104 73.9779 85.68 74.0099 84.992C74.0419 84.464 74.2259 83.76 74.5619 82.88C74.6899 82.576 74.8419 82.232 75.0179 81.848L75.2339 81.368C75.3139 81.176 75.3699 81.04 75.4019 80.96C75.6419 80.416 75.7059 80.168 75.5939 80.216C75.3059 80.328 74.4979 81.352 73.1699 83.288C72.6739 84.008 72.1779 84.76 71.6819 85.544C71.2339 86.232 70.9139 86.736 70.7219 87.056C70.6739 87.2 70.5539 87.224 70.3619 87.128C70.1539 87.032 70.0339 86.856 70.0019 86.6C69.9059 85.896 70.3779 84.608 71.4179 82.736L71.7059 82.184L71.9939 81.68C72.2499 81.248 72.4339 80.928 72.5459 80.72C72.8979 80.048 73.0979 79.584 73.1459 79.328C73.1619 79.216 73.2179 79.16 73.3139 79.16C73.4099 79.16 73.5219 79.2 73.6499 79.28C73.7779 79.376 73.8739 79.488 73.9379 79.616C74.0179 79.744 74.0419 79.872 74.0099 80Z" fill="white"/>
<path d="M71.4928 82.76C71.6688 82.744 71.7808 82.816 71.8288 82.976C69.9888 85.376 68.3728 86.576 66.9808 86.576C66.6448 86.576 66.3488 86.504 66.0928 86.36C65.7888 86.2 65.6048 85.976 65.5408 85.688C65.2208 84.504 65.5888 82.752 66.6448 80.432L66.3328 80.888L65.9968 81.368L65.3248 82.352C64.7968 83.088 64.3328 83.696 63.9328 84.176C62.8928 85.456 62.1248 86.064 61.6288 86C61.2128 85.936 60.8848 85.784 60.6448 85.544C60.3728 85.288 60.2848 84.976 60.3808 84.608C60.6688 83.536 61.3728 82.344 62.4928 81.032C63.7088 79.592 64.7248 78.944 65.5408 79.088C66.0048 79.152 66.3248 79.312 66.5008 79.568C67.1408 78.72 67.6528 78.12 68.0368 77.768C68.1968 77.704 68.3728 77.704 68.5648 77.768C68.7728 77.832 68.9248 77.952 69.0208 78.128C68.7968 78.464 68.5168 78.976 68.1808 79.664C67.7648 80.512 67.4128 81.312 67.1248 82.064C66.3088 84.24 66.2448 85.512 66.9328 85.88C67.2528 86.04 67.9968 85.696 69.1648 84.848C70.2528 84.064 71.0288 83.368 71.4928 82.76ZM61.5088 85.304C61.8768 85.336 62.5408 84.76 63.5008 83.576C63.8208 83.176 64.2608 82.592 64.8208 81.824L65.4928 80.888L66.1888 79.976C66.0928 79.672 65.8688 79.56 65.5168 79.64C65.1168 79.704 64.5808 80.12 63.9088 80.888C63.3168 81.544 62.7488 82.304 62.2048 83.168C61.3728 84.544 61.1408 85.256 61.5088 85.304Z" fill="white"/>
<path d="M58.5324 78.896C59.6044 78.72 60.1324 79.04 60.1164 79.856C60.1004 80.672 59.6284 81.8 58.7004 83.24C57.8364 84.584 57.1004 85.456 56.4924 85.856C55.9324 86.208 55.3484 86.192 54.7404 85.808C54.1804 85.44 53.8844 84.984 53.8524 84.44C52.7484 85.784 51.8284 87.04 51.0924 88.208C49.5564 90.944 48.9564 92.784 49.2924 93.728C48.7484 93.792 48.4284 93.64 48.3324 93.272C48.0124 92.152 49.1244 89.52 51.6684 85.376L52.3884 84.2L52.7484 83.624L53.0844 83.072C53.6124 82.208 54.0284 81.512 54.3324 80.984C55.1324 79.56 55.5004 78.608 55.4364 78.128C55.6764 78.016 55.8844 78.088 56.0604 78.344C56.2204 78.584 56.2684 78.864 56.2044 79.184C56.1244 79.792 55.5164 81.024 54.3804 82.88C56.4764 80.352 57.8604 79.024 58.5324 78.896ZM55.6764 85.448C56.1404 85.304 56.9404 84.256 58.0764 82.304C59.2124 80.336 59.5484 79.328 59.0844 79.28C58.8924 79.264 58.3324 79.696 57.4044 80.576C56.4124 81.52 55.3964 82.608 54.3564 83.84C54.4844 84.368 54.6764 84.792 54.9324 85.112C55.1884 85.416 55.4364 85.528 55.6764 85.448Z" fill="white"/>
<path d="M53.46 82.784C53.524 82.736 53.596 82.736 53.676 82.784C53.772 82.832 53.796 82.904 53.748 83L53.7 83.048C53.684 83.08 53.652 83.128 53.604 83.192C53.492 83.32 53.372 83.464 53.244 83.624C52.844 84.088 52.436 84.504 52.02 84.872C50.692 86.024 49.58 86.432 48.684 86.096C47.836 85.776 47.876 84.832 48.804 83.264C48.964 82.992 49.148 82.704 49.356 82.4L49.62 81.992C49.7 81.896 49.788 81.776 49.884 81.632C50.252 81.12 50.428 80.848 50.412 80.816C50.396 80.848 50.316 80.952 50.172 81.128C50.012 81.336 49.828 81.568 49.62 81.824C49.06 82.512 48.5 83.152 47.94 83.744C46.212 85.536 44.996 86.368 44.292 86.24C43.924 86.176 43.716 85.96 43.668 85.592C43.572 84.888 43.932 83.864 44.748 82.52L44.988 82.136L45.228 81.776C45.42 81.456 45.564 81.216 45.66 81.056C45.948 80.56 46.116 80.184 46.164 79.928C46.164 79.816 46.228 79.736 46.356 79.688C46.468 79.656 46.604 79.664 46.764 79.712C46.924 79.76 47.044 79.832 47.124 79.928C47.22 80.04 47.228 80.16 47.148 80.288C47.1 80.48 46.908 80.872 46.572 81.464C46.444 81.672 46.276 81.96 46.068 82.328L45.804 82.76L45.516 83.216C44.62 84.752 44.268 85.56 44.46 85.64C44.7 85.72 45.764 84.864 47.652 83.072C49.588 81.216 50.66 79.92 50.868 79.184C50.932 78.992 51.1 78.992 51.372 79.184C51.644 79.392 51.788 79.576 51.804 79.736C51.804 79.96 51.636 80.376 51.3 80.984C51.172 81.224 50.996 81.52 50.772 81.872L50.484 82.352L50.196 82.808C49.22 84.44 48.852 85.384 49.092 85.64C49.268 85.832 50.044 85.416 51.42 84.392C51.868 84.072 52.34 83.712 52.836 83.312C52.996 83.184 53.148 83.056 53.292 82.928C53.34 82.896 53.38 82.864 53.412 82.832L53.46 82.784ZM48.804 76.064C48.404 76.448 48.22 76.856 48.252 77.288C48.3 77.768 48.62 78.024 49.212 78.056C49.692 78.072 50.132 77.872 50.532 77.456C50.932 77.024 51.124 76.56 51.108 76.064H51.708C51.708 77.584 50.94 78.384 49.404 78.464C48.604 78.496 48.052 78.28 47.748 77.816C47.428 77.32 47.516 76.736 48.012 76.064H48.804Z" fill="white"/>
<path d="M44.7272 82.76C44.9032 82.744 45.0152 82.816 45.0632 82.976C43.2232 85.376 41.6072 86.576 40.2152 86.576C39.8792 86.576 39.5832 86.504 39.3272 86.36C39.0232 86.2 38.8392 85.976 38.7752 85.688C38.4552 84.504 38.8232 82.752 39.8792 80.432L39.5672 80.888L39.2312 81.368L38.5592 82.352C38.0312 83.088 37.5672 83.696 37.1672 84.176C36.1272 85.456 35.3592 86.064 34.8632 86C34.4472 85.936 34.1192 85.784 33.8792 85.544C33.6072 85.288 33.5192 84.976 33.6152 84.608C33.9032 83.536 34.6072 82.344 35.7272 81.032C36.9432 79.592 37.9592 78.944 38.7752 79.088C39.2392 79.152 39.5592 79.312 39.7352 79.568C40.3752 78.72 40.8872 78.12 41.2712 77.768C41.4312 77.704 41.6072 77.704 41.7992 77.768C42.0072 77.832 42.1592 77.952 42.2552 78.128C42.0312 78.464 41.7512 78.976 41.4152 79.664C40.9992 80.512 40.6472 81.312 40.3592 82.064C39.5432 84.24 39.4792 85.512 40.1672 85.88C40.4872 86.04 41.2312 85.696 42.3992 84.848C43.4872 84.064 44.2632 83.368 44.7272 82.76ZM34.7432 85.304C35.1112 85.336 35.7752 84.76 36.7352 83.576C37.0552 83.176 37.4952 82.592 38.0552 81.824L38.7272 80.888L39.4232 79.976C39.3272 79.672 39.1032 79.56 38.7512 79.64C38.3512 79.704 37.8152 80.12 37.1432 80.888C36.5512 81.544 35.9832 82.304 35.4392 83.168C34.6072 84.544 34.3752 85.256 34.7432 85.304Z" fill="white"/>
<path d="M45.7122 67.232C45.9842 67.248 46.1202 67.44 46.1202 67.808C46.1042 68.16 45.9682 68.328 45.7122 68.312C44.5282 68.04 42.4082 68.856 39.3522 70.76C38.3922 71.384 36.8882 72.44 34.8402 73.928C32.4882 75.64 30.1682 77.384 27.8802 79.16C29.4162 79.544 30.2402 80.416 30.3522 81.776C30.4002 82.288 30.3442 82.928 30.1842 83.696L29.9682 84.728L29.7042 85.76C29.1762 87.808 29.0482 89.216 29.3202 89.984C29.5282 90.528 29.9522 90.8 30.5922 90.8C31.2482 90.784 31.8562 90.456 32.4162 89.816C32.4802 89.752 32.5602 89.752 32.6562 89.816C32.7362 89.88 32.7602 89.96 32.7282 90.056C32.1842 90.952 31.4882 91.408 30.6402 91.424C30.3042 91.44 29.9682 91.384 29.6322 91.256C29.3602 91.16 29.1202 91.04 28.9122 90.896C28.1602 90.352 27.7922 89.528 27.8082 88.424C27.8242 87.736 28.0402 86.672 28.4562 85.232L28.7202 84.296L29.0082 83.384C29.2002 82.68 29.2962 82.112 29.2962 81.68C29.3282 80.544 28.7202 79.864 27.4722 79.64C25.9682 82.024 24.1362 84.328 21.9762 86.552C19.8962 88.696 18.0722 90.2 16.5042 91.064C15.5122 91.608 14.8402 91.752 14.4882 91.496C13.9602 91.144 14.1442 90.416 15.0402 89.312C16.7202 87.216 20.5842 83.76 26.6322 78.944C29.7042 73.984 30.3202 70.608 28.4802 68.816C27.2802 67.648 25.5282 67.248 23.2242 67.616C21.1602 67.952 19.0322 68.816 16.8402 70.208C14.6642 71.6 13.0242 73.128 11.9202 74.792C10.7042 76.6 10.4242 78.16 11.0802 79.472C11.4162 80.128 12.2642 80.56 13.6242 80.768C14.8882 80.96 16.1362 80.904 17.3682 80.6C17.5122 80.584 17.5922 80.648 17.6082 80.792C17.6402 80.92 17.6002 81.008 17.4882 81.056C15.9042 81.696 14.4402 81.864 13.0962 81.56C11.7842 81.272 10.9042 80.624 10.4562 79.616C9.67221 77.872 9.86421 76.016 11.0322 74.048C12.1042 72.272 13.7602 70.704 16.0002 69.344C18.2402 68 20.5122 67.2 22.8162 66.944C25.3122 66.672 27.3442 67.128 28.9122 68.312C31.0402 69.928 31.0402 72.872 28.9122 77.144C33.3762 73.672 36.6722 71.256 38.8002 69.896C41.9042 67.896 44.2082 67.008 45.7122 67.232ZM16.4082 90.272C19.0642 88.464 21.8562 85.584 24.7842 81.632C20.5602 85.056 17.6482 87.672 16.0482 89.48C15.2642 90.344 14.8482 90.872 14.8002 91.064C14.7042 91.336 15.2402 91.072 16.4082 90.272Z" fill="white"/>
</g>
<defs>
<clipPath id="clip0_204_82">
<rect width="383px" height="302px" fill="white"/>
</clipPath>
</defs>
</svg>
