<svg width="383px" height="302px" viewBox="0 0 164 115" fill="none" xmlns="http://www.w3.org/2000/svg">
<g clip-path="url(#clip0_202_4)">
<path d="M150.283 83C150.187 83.368 149.851 84.008 149.275 84.92L148.915 85.472L148.555 86.072C148.283 86.552 148.059 87 147.883 87.416C148.139 87.112 148.507 86.632 148.987 85.976L149.563 85.136L150.163 84.32C151.123 83.072 151.779 82.48 152.131 82.544C152.339 82.576 152.507 82.688 152.635 82.88C152.763 83.04 152.827 83.2 152.827 83.36C152.827 83.584 152.739 83.984 152.563 84.56C152.483 84.784 152.387 85.048 152.275 85.352L151.987 86.192C151.459 87.6 151.243 88.328 151.339 88.376C151.419 88.408 152.019 87.456 153.139 85.52C153.667 84.624 154.083 83.96 154.387 83.528C154.819 82.92 155.123 82.616 155.299 82.616C155.459 82.616 155.627 82.72 155.803 82.928C155.963 83.12 156.027 83.288 155.995 83.432C155.947 83.656 155.843 84.032 155.683 84.56C155.635 84.736 155.563 84.976 155.467 85.28L155.251 86.048C154.867 87.312 154.691 88.024 154.723 88.184C154.803 88.536 155.427 88.424 156.595 87.848C156.995 87.656 157.419 87.432 157.867 87.176C158.027 87.08 158.179 86.984 158.323 86.888C158.451 86.808 158.539 86.752 158.587 86.72C158.699 86.64 158.787 86.648 158.851 86.744C158.899 86.84 158.883 86.928 158.803 87.008C158.739 87.072 158.659 87.152 158.563 87.248C158.419 87.36 158.275 87.48 158.131 87.608C157.731 87.928 157.331 88.2 156.931 88.424C155.795 89.064 154.931 89.168 154.339 88.736C154.003 88.496 153.851 88.056 153.883 87.416C153.883 86.904 154.003 86.28 154.243 85.544C154.339 85.256 154.443 84.952 154.555 84.632C154.651 84.392 154.755 84.136 154.867 83.864L155.155 83.144C155.107 83.16 154.899 83.504 154.531 84.176L154.411 84.416L154.267 84.656L153.979 85.184C153.739 85.632 153.531 86.016 153.355 86.336C152.155 88.416 151.355 89.392 150.955 89.264C150.475 89.104 150.251 88.68 150.283 87.992C150.315 87.464 150.499 86.76 150.835 85.88C150.963 85.576 151.115 85.232 151.291 84.848L151.507 84.368C151.587 84.176 151.643 84.04 151.675 83.96C151.915 83.416 151.979 83.168 151.867 83.216C151.579 83.328 150.771 84.352 149.443 86.288C148.947 87.008 148.451 87.76 147.955 88.544C147.507 89.232 147.187 89.736 146.995 90.056C146.947 90.2 146.827 90.224 146.635 90.128C146.427 90.032 146.307 89.856 146.275 89.6C146.179 88.896 146.651 87.608 147.691 85.736L147.979 85.184L148.267 84.68C148.523 84.248 148.707 83.928 148.819 83.72C149.171 83.048 149.371 82.584 149.419 82.328C149.435 82.216 149.491 82.16 149.587 82.16C149.683 82.16 149.795 82.2 149.923 82.28C150.051 82.376 150.147 82.488 150.211 82.616C150.291 82.744 150.315 82.872 150.283 83Z" fill="white"/>
<path d="M147.766 85.76C147.942 85.744 148.054 85.816 148.102 85.976C146.262 88.376 144.646 89.576 143.254 89.576C142.918 89.576 142.622 89.504 142.366 89.36C142.062 89.2 141.878 88.976 141.814 88.688C141.494 87.504 141.862 85.752 142.918 83.432L142.606 83.888L142.27 84.368L141.598 85.352C141.07 86.088 140.606 86.696 140.206 87.176C139.166 88.456 138.398 89.064 137.902 89C137.486 88.936 137.158 88.784 136.918 88.544C136.646 88.288 136.558 87.976 136.654 87.608C136.942 86.536 137.646 85.344 138.766 84.032C139.982 82.592 140.998 81.944 141.814 82.088C142.278 82.152 142.598 82.312 142.774 82.568C143.414 81.72 143.926 81.12 144.31 80.768C144.47 80.704 144.646 80.704 144.838 80.768C145.046 80.832 145.198 80.952 145.294 81.128C145.07 81.464 144.79 81.976 144.454 82.664C144.038 83.512 143.686 84.312 143.398 85.064C142.582 87.24 142.518 88.512 143.206 88.88C143.526 89.04 144.27 88.696 145.438 87.848C146.526 87.064 147.302 86.368 147.766 85.76ZM137.782 88.304C138.15 88.336 138.814 87.76 139.774 86.576C140.094 86.176 140.534 85.592 141.094 84.824L141.766 83.888L142.462 82.976C142.366 82.672 142.142 82.56 141.79 82.64C141.39 82.704 140.854 83.12 140.182 83.888C139.59 84.544 139.022 85.304 138.478 86.168C137.646 87.544 137.414 88.256 137.782 88.304Z" fill="white"/>
<path d="M134.805 81.896C135.877 81.72 136.405 82.04 136.389 82.856C136.373 83.672 135.901 84.8 134.973 86.24C134.109 87.584 133.373 88.456 132.765 88.856C132.205 89.208 131.621 89.192 131.013 88.808C130.453 88.44 130.157 87.984 130.125 87.44C129.021 88.784 128.101 90.04 127.365 91.208C125.829 93.944 125.229 95.784 125.565 96.728C125.021 96.792 124.701 96.64 124.605 96.272C124.285 95.152 125.397 92.52 127.941 88.376L128.661 87.2L129.021 86.624L129.357 86.072C129.885 85.208 130.301 84.512 130.605 83.984C131.405 82.56 131.773 81.608 131.709 81.128C131.949 81.016 132.157 81.088 132.333 81.344C132.493 81.584 132.541 81.864 132.477 82.184C132.397 82.792 131.789 84.024 130.653 85.88C132.749 83.352 134.133 82.024 134.805 81.896ZM131.949 88.448C132.413 88.304 133.213 87.256 134.349 85.304C135.485 83.336 135.821 82.328 135.357 82.28C135.165 82.264 134.605 82.696 133.677 83.576C132.685 84.52 131.669 85.608 130.629 86.84C130.757 87.368 130.949 87.792 131.205 88.112C131.461 88.416 131.709 88.528 131.949 88.448Z" fill="white"/>
<path d="M129.733 85.784C129.797 85.736 129.869 85.736 129.949 85.784C130.045 85.832 130.069 85.904 130.021 86L129.973 86.048C129.957 86.08 129.925 86.128 129.877 86.192C129.765 86.32 129.645 86.464 129.517 86.624C129.117 87.088 128.709 87.504 128.293 87.872C126.965 89.024 125.853 89.432 124.957 89.096C124.109 88.776 124.149 87.832 125.077 86.264C125.237 85.992 125.421 85.704 125.629 85.4L125.893 84.992C125.973 84.896 126.061 84.776 126.157 84.632C126.525 84.12 126.701 83.848 126.685 83.816C126.669 83.848 126.589 83.952 126.445 84.128C126.285 84.336 126.101 84.568 125.893 84.824C125.333 85.512 124.773 86.152 124.213 86.744C122.485 88.536 121.269 89.368 120.565 89.24C120.197 89.176 119.989 88.96 119.941 88.592C119.845 87.888 120.205 86.864 121.021 85.52L121.261 85.136L121.501 84.776C121.693 84.456 121.837 84.216 121.933 84.056C122.221 83.56 122.389 83.184 122.437 82.928C122.437 82.816 122.501 82.736 122.629 82.688C122.741 82.656 122.877 82.664 123.037 82.712C123.197 82.76 123.317 82.832 123.397 82.928C123.493 83.04 123.501 83.16 123.421 83.288C123.373 83.48 123.181 83.872 122.845 84.464C122.717 84.672 122.549 84.96 122.341 85.328L122.077 85.76L121.789 86.216C120.893 87.752 120.541 88.56 120.733 88.64C120.973 88.72 122.037 87.864 123.925 86.072C125.861 84.216 126.933 82.92 127.141 82.184C127.205 81.992 127.373 81.992 127.645 82.184C127.917 82.392 128.061 82.576 128.077 82.736C128.077 82.96 127.909 83.376 127.573 83.984C127.445 84.224 127.269 84.52 127.045 84.872L126.757 85.352L126.469 85.808C125.493 87.44 125.125 88.384 125.365 88.64C125.541 88.832 126.317 88.416 127.693 87.392C128.141 87.072 128.613 86.712 129.109 86.312C129.269 86.184 129.421 86.056 129.565 85.928C129.613 85.896 129.653 85.864 129.685 85.832L129.733 85.784ZM125.077 79.064C124.677 79.448 124.493 79.856 124.525 80.288C124.573 80.768 124.893 81.024 125.485 81.056C125.965 81.072 126.405 80.872 126.805 80.456C127.205 80.024 127.397 79.56 127.381 79.064H127.981C127.981 80.584 127.213 81.384 125.677 81.464C124.877 81.496 124.325 81.28 124.021 80.816C123.701 80.32 123.789 79.736 124.285 79.064H125.077Z" fill="white"/>
<path d="M121 85.76C121.176 85.744 121.288 85.816 121.336 85.976C119.496 88.376 117.88 89.576 116.488 89.576C116.152 89.576 115.856 89.504 115.6 89.36C115.296 89.2 115.112 88.976 115.048 88.688C114.728 87.504 115.096 85.752 116.152 83.432L115.84 83.888L115.504 84.368L114.832 85.352C114.304 86.088 113.84 86.696 113.44 87.176C112.4 88.456 111.632 89.064 111.136 89C110.72 88.936 110.392 88.784 110.152 88.544C109.88 88.288 109.792 87.976 109.888 87.608C110.176 86.536 110.88 85.344 112 84.032C113.216 82.592 114.232 81.944 115.048 82.088C115.512 82.152 115.832 82.312 116.008 82.568C116.648 81.72 117.16 81.12 117.544 80.768C117.704 80.704 117.88 80.704 118.072 80.768C118.28 80.832 118.432 80.952 118.528 81.128C118.304 81.464 118.024 81.976 117.688 82.664C117.272 83.512 116.92 84.312 116.632 85.064C115.816 87.24 115.752 88.512 116.44 88.88C116.76 89.04 117.504 88.696 118.672 87.848C119.76 87.064 120.536 86.368 121 85.76ZM111.016 88.304C111.384 88.336 112.048 87.76 113.008 86.576C113.328 86.176 113.768 85.592 114.328 84.824L115 83.888L115.696 82.976C115.6 82.672 115.376 82.56 115.024 82.64C114.624 82.704 114.088 83.12 113.416 83.888C112.824 84.544 112.256 85.304 111.712 86.168C110.88 87.544 110.648 88.256 111.016 88.304Z" fill="white"/>
<path d="M121.985 70.232C122.257 70.248 122.393 70.44 122.393 70.808C122.377 71.16 122.241 71.328 121.985 71.312C120.801 71.04 118.681 71.856 115.625 73.76C114.665 74.384 113.161 75.44 111.113 76.928C108.761 78.64 106.441 80.384 104.153 82.16C105.689 82.544 106.513 83.416 106.625 84.776C106.673 85.288 106.617 85.928 106.457 86.696L106.241 87.728L105.977 88.76C105.449 90.808 105.321 92.216 105.593 92.984C105.801 93.528 106.225 93.8 106.865 93.8C107.521 93.784 108.129 93.456 108.689 92.816C108.753 92.752 108.833 92.752 108.929 92.816C109.009 92.88 109.033 92.96 109.001 93.056C108.457 93.952 107.761 94.408 106.913 94.424C106.577 94.44 106.241 94.384 105.905 94.256C105.633 94.16 105.393 94.04 105.185 93.896C104.433 93.352 104.065 92.528 104.081 91.424C104.097 90.736 104.313 89.672 104.729 88.232L104.993 87.296L105.281 86.384C105.473 85.68 105.569 85.112 105.569 84.68C105.601 83.544 104.993 82.864 103.745 82.64C102.241 85.024 100.409 87.328 98.2492 89.552C96.1692 91.696 94.3452 93.2 92.7772 94.064C91.7852 94.608 91.1132 94.752 90.7612 94.496C90.2332 94.144 90.4172 93.416 91.3132 92.312C92.9932 90.216 96.8572 86.76 102.905 81.944C105.977 76.984 106.593 73.608 104.753 71.816C103.553 70.648 101.801 70.248 99.4972 70.616C97.4332 70.952 95.3052 71.816 93.1132 73.208C90.9372 74.6 89.2972 76.128 88.1932 77.792C86.9772 79.6 86.6972 81.16 87.3532 82.472C87.6892 83.128 88.5372 83.56 89.8972 83.768C91.1612 83.96 92.4092 83.904 93.6412 83.6C93.7852 83.584 93.8652 83.648 93.8812 83.792C93.9132 83.92 93.8732 84.008 93.7612 84.056C92.1772 84.696 90.7132 84.864 89.3692 84.56C88.0572 84.272 87.1772 83.624 86.7292 82.616C85.9452 80.872 86.1372 79.016 87.3052 77.048C88.3772 75.272 90.0332 73.704 92.2732 72.344C94.5132 71 96.7852 70.2 99.0892 69.944C101.585 69.672 103.617 70.128 105.185 71.312C107.313 72.928 107.313 75.872 105.185 80.144C109.649 76.672 112.945 74.256 115.073 72.896C118.177 70.896 120.481 70.008 121.985 70.232ZM92.6812 93.272C95.3372 91.464 98.1292 88.584 101.057 84.632C96.8332 88.056 93.9212 90.672 92.3212 92.48C91.5372 93.344 91.1212 93.872 91.0732 94.064C90.9772 94.336 91.5132 94.072 92.6812 93.272Z" fill="white"/>
<path d="M75.6063 83.984L75.7983 83.648L76.0383 83.24C76.4063 82.648 76.6143 82.248 76.6623 82.04C76.8543 81.976 77.0463 81.968 77.2383 82.016C77.4783 82.064 77.6463 82.176 77.7423 82.352C77.6623 82.592 77.3983 83.072 76.9503 83.792L76.6623 84.248L76.3743 84.728C76.1343 85.112 75.9343 85.448 75.7743 85.736C74.8463 87.4 74.7503 88.376 75.4863 88.664C75.8063 88.84 76.5343 88.528 77.6703 87.728C78.7263 86.992 79.4783 86.328 79.9263 85.736C80.1183 85.736 80.2303 85.816 80.2623 85.976C78.5983 88.184 77.0703 89.296 75.6783 89.312C74.9743 89.312 74.4943 89.016 74.2383 88.424C73.9503 87.784 74.1023 86.84 74.6943 85.592C74.5823 85.704 74.4703 85.808 74.3583 85.904C73.0303 87.056 71.9183 87.464 71.0223 87.128C70.9423 87.096 70.8623 87.056 70.7823 87.008C70.6863 87.28 70.5983 87.568 70.5183 87.872C70.2623 88.704 70.0703 89.232 69.9423 89.456C69.8943 89.584 69.7743 89.6 69.5823 89.504C69.3743 89.408 69.2543 89.232 69.2223 88.976C69.1423 88.272 69.5983 87.032 70.5903 85.256L70.8783 84.752L71.1423 84.272C71.3823 83.856 71.5583 83.552 71.6703 83.36C72.0063 82.72 72.1983 82.272 72.2463 82.016C72.2463 81.904 72.3103 81.824 72.4383 81.776C72.5503 81.744 72.6863 81.752 72.8463 81.8C73.0063 81.848 73.1263 81.92 73.2063 82.016C73.2863 82.128 73.2943 82.248 73.2303 82.376C73.1343 82.728 72.7583 83.44 72.1023 84.512C71.9583 84.736 71.8303 84.944 71.7183 85.136C71.3503 85.984 71.2543 86.496 71.4303 86.672C71.6063 86.864 72.3823 86.448 73.7583 85.424C74.2063 85.104 74.6783 84.744 75.1743 84.344C75.3183 84.232 75.4623 84.112 75.6063 83.984Z" fill="white"/>
<path d="M70.2814 85.76C70.4574 85.744 70.5694 85.816 70.6174 85.976C68.7774 88.376 67.1614 89.576 65.7694 89.576C65.4334 89.576 65.1374 89.504 64.8814 89.36C64.5774 89.2 64.3934 88.976 64.3294 88.688C64.0094 87.504 64.3774 85.752 65.4334 83.432L65.1214 83.888L64.7854 84.368L64.1134 85.352C63.5854 86.088 63.1214 86.696 62.7214 87.176C61.6814 88.456 60.9134 89.064 60.4174 89C60.0014 88.936 59.6734 88.784 59.4334 88.544C59.1614 88.288 59.0734 87.976 59.1694 87.608C59.4574 86.536 60.1614 85.344 61.2814 84.032C62.4974 82.592 63.5134 81.944 64.3294 82.088C64.7934 82.152 65.1134 82.312 65.2894 82.568C65.9294 81.72 66.4414 81.12 66.8254 80.768C66.9854 80.704 67.1614 80.704 67.3534 80.768C67.5614 80.832 67.7134 80.952 67.8094 81.128C67.5854 81.464 67.3054 81.976 66.9694 82.664C66.5534 83.512 66.2014 84.312 65.9134 85.064C65.0974 87.24 65.0334 88.512 65.7214 88.88C66.0414 89.04 66.7854 88.696 67.9534 87.848C69.0414 87.064 69.8174 86.368 70.2814 85.76ZM60.2974 88.304C60.6654 88.336 61.3294 87.76 62.2894 86.576C62.6094 86.176 63.0494 85.592 63.6094 84.824L64.2814 83.888L64.9774 82.976C64.8814 82.672 64.6574 82.56 64.3054 82.64C63.9054 82.704 63.3694 83.12 62.6974 83.888C62.1054 84.544 61.5374 85.304 60.9934 86.168C60.1614 87.544 59.9294 88.256 60.2974 88.304Z" fill="white"/>
<path d="M51.9626 83C51.8666 83.368 51.5306 84.008 50.9546 84.92L50.5946 85.472L50.2346 86.072C49.9626 86.552 49.7386 87 49.5626 87.416C49.8186 87.112 50.1866 86.632 50.6666 85.976L51.2426 85.136L51.8426 84.32C52.8026 83.072 53.4586 82.48 53.8106 82.544C54.0186 82.576 54.1866 82.688 54.3146 82.88C54.4426 83.04 54.5066 83.2 54.5066 83.36C54.5066 83.584 54.4186 83.984 54.2426 84.56C54.1626 84.784 54.0666 85.048 53.9546 85.352L53.6666 86.192C53.1386 87.6 52.9226 88.328 53.0186 88.376C53.0986 88.408 53.6986 87.456 54.8186 85.52C55.3466 84.624 55.7626 83.96 56.0666 83.528C56.4986 82.92 56.8026 82.616 56.9786 82.616C57.1386 82.616 57.3066 82.72 57.4826 82.928C57.6426 83.12 57.7066 83.288 57.6746 83.432C57.6266 83.656 57.5226 84.032 57.3626 84.56C57.3146 84.736 57.2426 84.976 57.1466 85.28L56.9306 86.048C56.5466 87.312 56.3706 88.024 56.4026 88.184C56.4826 88.536 57.1066 88.424 58.2746 87.848C58.6746 87.656 59.0986 87.432 59.5466 87.176C59.7066 87.08 59.8586 86.984 60.0026 86.888C60.1306 86.808 60.2186 86.752 60.2666 86.72C60.3786 86.64 60.4666 86.648 60.5306 86.744C60.5786 86.84 60.5626 86.928 60.4826 87.008C60.4186 87.072 60.3386 87.152 60.2426 87.248C60.0986 87.36 59.9546 87.48 59.8106 87.608C59.4106 87.928 59.0106 88.2 58.6106 88.424C57.4746 89.064 56.6106 89.168 56.0186 88.736C55.6826 88.496 55.5306 88.056 55.5626 87.416C55.5626 86.904 55.6826 86.28 55.9226 85.544C56.0186 85.256 56.1226 84.952 56.2346 84.632C56.3306 84.392 56.4346 84.136 56.5466 83.864L56.8346 83.144C56.7866 83.16 56.5786 83.504 56.2106 84.176L56.0906 84.416L55.9466 84.656L55.6586 85.184C55.4186 85.632 55.2106 86.016 55.0346 86.336C53.8346 88.416 53.0346 89.392 52.6346 89.264C52.1546 89.104 51.9306 88.68 51.9626 87.992C51.9946 87.464 52.1786 86.76 52.5146 85.88C52.6426 85.576 52.7946 85.232 52.9706 84.848L53.1866 84.368C53.2666 84.176 53.3226 84.04 53.3546 83.96C53.5946 83.416 53.6586 83.168 53.5466 83.216C53.2586 83.328 52.4506 84.352 51.1226 86.288C50.6266 87.008 50.1306 87.76 49.6346 88.544C49.1866 89.232 48.8666 89.736 48.6746 90.056C48.6266 90.2 48.5066 90.224 48.3146 90.128C48.1066 90.032 47.9866 89.856 47.9546 89.6C47.8586 88.896 48.3306 87.608 49.3706 85.736L49.6586 85.184L49.9466 84.68C50.2026 84.248 50.3866 83.928 50.4986 83.72C50.8506 83.048 51.0506 82.584 51.0986 82.328C51.1146 82.216 51.1706 82.16 51.2666 82.16C51.3626 82.16 51.4746 82.2 51.6026 82.28C51.7306 82.376 51.8266 82.488 51.8906 82.616C51.9706 82.744 51.9946 82.872 51.9626 83Z" fill="white"/>
<path d="M46.521 84.344C46.681 83.688 46.553 83.16 46.137 82.76C45.801 82.424 45.185 82.6 44.289 83.288C43.953 83.528 43.617 83.816 43.281 84.152C42.993 84.456 42.777 84.704 42.633 84.896C41.529 86.432 41.273 87.528 41.865 88.184C42.345 88.68 43.081 88.872 44.073 88.76C45.161 88.648 46.169 88.304 47.097 87.728C47.641 87.392 48.449 86.752 49.521 85.808C49.617 85.744 49.705 85.744 49.785 85.808C49.849 85.872 49.857 85.944 49.809 86.024C49.217 87.08 48.281 87.92 47.001 88.544C45.737 89.184 44.465 89.44 43.185 89.312C41.969 89.2 41.153 88.568 40.737 87.416C40.369 86.424 40.881 85.208 42.273 83.768C42.865 83.176 43.481 82.712 44.121 82.376C44.793 82.024 45.361 81.904 45.825 82.016C46.481 82.176 46.905 82.52 47.097 83.048C47.273 83.496 47.233 83.936 46.977 84.368C46.913 84.464 46.817 84.52 46.689 84.536C46.561 84.536 46.505 84.472 46.521 84.344Z" fill="white"/>
<path d="M41.2107 85.736C41.3067 85.672 41.3947 85.672 41.4747 85.736C41.5387 85.8 41.5467 85.872 41.4987 85.952C41.1467 86.576 40.6347 87.176 39.9627 87.752C39.3867 88.232 38.6907 88.616 37.8747 88.904C36.9947 89.208 36.1867 89.32 35.4507 89.24C34.2347 89.128 33.4107 88.504 32.9787 87.368C32.6107 86.36 33.1227 85.144 34.5147 83.72C35.1067 83.112 35.7227 82.648 36.3627 82.328C37.0507 81.976 37.6267 81.856 38.0907 81.968C38.7787 82.144 39.1707 82.464 39.2667 82.928C39.3467 83.36 39.1627 83.84 38.7147 84.368C37.6747 85.616 36.1067 86.392 34.0107 86.696C33.8827 87.304 33.9707 87.784 34.2747 88.136C34.8667 88.776 35.7627 88.92 36.9627 88.568C37.4107 88.424 37.8827 88.224 38.3787 87.968C38.7947 87.744 39.1627 87.504 39.4827 87.248C39.8667 86.96 40.4427 86.456 41.2107 85.736ZM34.8987 84.824C34.5787 85.256 34.3227 85.728 34.1307 86.24C35.1547 85.952 36.1947 85.312 37.2507 84.32C38.2907 83.328 38.5547 82.704 38.0427 82.448C37.7227 82.304 37.1627 82.576 36.3627 83.264C36.0587 83.536 35.7627 83.832 35.4747 84.152C35.2187 84.424 35.0267 84.648 34.8987 84.824Z" fill="white"/>
<path d="M18.1918 87.848C15.3278 89.32 13.2078 90.8 11.8318 92.288C10.9038 93.296 10.5198 93.864 10.6798 93.992C10.9038 94.136 11.4638 93.896 12.3598 93.272C14.0398 92.168 15.9838 90.36 18.1918 87.848ZM34.0558 77.144C33.9918 77.24 33.9198 77.336 33.8398 77.432C32.2878 79.448 30.9358 81.368 29.7838 83.192C30.2158 83.192 30.6238 83.216 31.0078 83.264C31.2798 83.28 31.4318 83.392 31.4638 83.6C31.4798 83.808 31.3598 83.904 31.1038 83.888C30.4958 83.888 29.8798 83.944 29.2558 84.056C28.2158 85.752 27.5038 87.184 27.1198 88.352C27.0718 88.48 27.0318 88.6 26.9998 88.712L26.8558 89.168C26.7598 89.52 26.7038 89.848 26.6878 90.152C26.6238 90.936 26.8318 91.44 27.3118 91.664C27.8878 91.936 28.3838 91.864 28.7998 91.448C28.8478 91.416 28.8958 91.408 28.9438 91.424C28.9758 91.44 29.0078 91.464 29.0398 91.496C29.0718 91.544 29.0878 91.592 29.0878 91.64C29.0718 91.704 29.0318 91.752 28.9678 91.784C28.6958 92.024 28.3358 92.168 27.8878 92.216C27.5038 92.264 27.1518 92.232 26.8318 92.12C26.1918 91.88 25.8238 91.28 25.7278 90.32C25.6478 89.376 25.8398 88.304 26.3038 87.104C26.6718 86.208 27.1198 85.296 27.6478 84.368C25.4878 84.832 23.1838 85.6 20.7358 86.672C17.7758 90.256 15.0158 92.72 12.4558 94.064C11.4478 94.576 10.7758 94.72 10.4398 94.496C9.9438 94.144 10.1358 93.408 11.0158 92.288C12.5518 90.368 15.3678 88.392 19.4638 86.36C21.9118 83.368 23.6398 80.624 24.6478 78.128C25.8478 75.184 25.7838 73.08 24.4558 71.816C23.2078 70.616 21.4238 70.192 19.1038 70.544C17.0078 70.864 14.8638 71.728 12.6718 73.136C10.4958 74.528 8.8638 76.056 7.7758 77.72C6.5918 79.544 6.3518 81.128 7.0558 82.472C7.7918 83.896 9.8878 84.272 13.3438 83.6C13.4878 83.584 13.5678 83.64 13.5838 83.768C13.6158 83.896 13.5758 83.992 13.4638 84.056C11.8638 84.696 10.3918 84.864 9.0478 84.56C7.7518 84.272 6.8798 83.616 6.4318 82.592C5.6478 80.848 5.8318 79 6.9838 77.048C8.0398 75.288 9.6878 73.736 11.9278 72.392C14.1518 71.064 16.4158 70.264 18.7198 69.992C21.2318 69.72 23.2798 70.16 24.8638 71.312C26.5438 72.528 26.9918 74.52 26.2078 77.288C25.5518 79.656 24.0958 82.312 21.8398 85.256C24.2078 84.264 26.3438 83.624 28.2478 83.336C29.3838 81.496 30.7838 79.544 32.4478 77.48C32.5918 77.304 32.7278 77.136 32.8558 76.976C33.3518 76.368 33.8478 75.792 34.3438 75.248C34.8718 74.656 35.3038 74.2 35.6398 73.88C35.8638 73.592 36.1038 73.472 36.3598 73.52C36.6158 73.584 36.7118 73.76 36.6478 74.048C36.1358 74.56 35.2718 75.592 34.0558 77.144Z" fill="white"/>
<path fill-rule="evenodd" clip-rule="evenodd" d="M105.926 112V111.827C106.065 111.839 106.201 111.851 106.334 111.864V108.704C102.753 108.493 100.014 108.072 98.118 107.44C96.3273 106.808 95.116 105.544 94.484 103.648C93.9614 102.08 93.6549 99.8642 93.5644 97H78.4099C78.3249 99.9301 78.017 102.191 77.4862 103.784C76.8571 105.671 75.6017 106.932 73.7201 107.567C71.9379 108.129 69.3792 108.508 66.044 108.704V108.815C65.9094 108.824 65.7735 108.832 65.6362 108.84V112C67.8482 111.789 70.7449 111.684 74.3262 111.684C77.9076 111.579 81.7522 111.526 85.8602 111.526C89.5469 111.526 93.1809 111.579 96.7622 111.684C100.449 111.684 103.504 111.789 105.926 112ZM78.4342 68V57.196H27.492V68H12.798V16.748C12.798 12.8507 12.482 10.0067 11.85 8.216C11.218 6.32 9.954 5.056 8.058 4.424C6.26733 3.68666 3.58133 3.26533 0 3.16V0C2.212 0.105332 5.10867 0.210666 8.69 0.315998C12.2713 0.42133 16.116 0.473995 20.224 0.473995C23.9107 0.473995 27.5447 0.42133 31.126 0.315998C34.8127 0.210666 37.8673 0.105332 40.29 0V3.16C36.7087 3.26533 33.97 3.68666 32.074 4.424C30.2833 5.056 29.072 6.32 28.44 8.216C27.808 10.0067 27.492 12.8507 27.492 16.748V54.036H78.4342V16.884C78.4342 12.9867 78.1182 10.1427 77.4862 8.352C76.8542 6.456 75.5902 5.192 73.6942 4.56C71.9036 3.82266 69.2176 3.40133 65.6362 3.296V0.136002C65.7697 0.142355 65.9056 0.148709 66.044 0.155063V0C68.4667 0.105332 71.5213 0.210666 75.208 0.315998C78.8947 0.42133 82.5287 0.473995 86.11 0.473995C90.218 0.473995 94.0627 0.42133 97.644 0.315998C101.225 0.210666 104.122 0.105332 106.334 0V3.16C106.197 3.16403 106.061 3.16853 105.926 3.17349V3.296C102.779 3.38857 100.282 3.72521 98.4365 4.3059C98.3278 4.34432 98.2217 4.38369 98.118 4.424C96.3273 5.056 95.116 6.32 94.484 8.216C93.852 10.0067 93.536 12.8507 93.536 16.748V52.58C97.7792 52.4306 101.33 51.5393 104.188 49.906C107.243 48.1153 109.771 45.956 111.772 43.428L126.94 24.152C130.416 19.728 132.786 15.9887 134.05 12.934C135.314 9.87934 135.262 7.562 133.892 5.98201C132.523 4.29667 129.626 3.40133 125.202 3.296V0.136002C127.204 0.241334 129.258 0.346668 131.364 0.452C133.471 0.452 135.525 0.504665 137.526 0.609997H143.372C146.111 0.609997 148.639 0.557332 150.956 0.452C153.274 0.346668 155.222 0.241334 156.802 0.136002V3.296C153.537 3.71734 150.377 4.82333 147.322 6.61399C144.268 8.29933 141.213 11.038 138.158 14.83L108.359 52.7035C112.388 52.9226 116.212 53.4648 119.83 54.33C124.781 55.4887 128.994 57.7007 132.47 60.966C134.431 62.8079 136.073 65.1526 137.397 68H122.448C122.213 67.3186 121.973 66.6593 121.726 66.022C120.462 62.7567 118.461 60.2287 115.722 58.438C112.984 56.542 108.928 55.594 103.556 55.594H93.536V68H78.4342ZM129.435 97L129.468 97.148C131.048 104.205 133.313 108.84 136.262 111.052C139.317 113.159 142.688 114.212 146.374 114.212C150.798 114.212 154.222 113.264 156.644 111.368C159.067 109.472 161.279 107.049 163.28 104.1L160.91 102.362C159.541 104.153 158.224 105.575 156.96 106.628C155.802 107.681 154.327 108.261 152.536 108.366C150.219 108.471 148.586 107.576 147.638 105.68C146.797 103.905 145.874 101.012 144.867 97H129.435ZM12.7696 97H27.5204C27.6109 99.8642 27.9174 102.08 28.44 103.648C29.072 105.544 30.2833 106.808 32.074 107.44C33.97 108.072 36.7087 108.493 40.29 108.704V111.864C37.8673 111.653 34.8127 111.548 31.126 111.548C27.5447 111.443 23.9107 111.39 20.224 111.39C16.116 111.39 12.2713 111.443 8.69 111.548C5.10867 111.548 2.212 111.653 0 111.864V108.704C3.58133 108.493 6.26733 108.072 8.058 107.44C9.954 106.808 11.218 105.544 11.85 103.648C12.3726 102.08 12.6791 99.8642 12.7696 97Z" fill="white"/>
</g>
<defs>
<clipPath id="clip0_202_4">
<rect width="164" height="115" fill="white"/>
</clipPath>
</defs>
</svg>
